<svg xmlns="http://www.w3.org/2000/svg" width="45.725" height="45.725" viewBox="0 0 45.725 45.725"><defs><style>.a{fill:#3d7606;}.b{fill:#356605;}.c{fill:#f4f3f2;}</style></defs><path class="a" d="M352,45.725V25.081a28.744,28.744,0,0,1,5.749-17.246L363.625,0l-2.887,12.509a28.747,28.747,0,0,0,.6,15.119,28.743,28.743,0,0,1,.7,14.678l-.734,3.419Zm0,0" transform="translate(-317.9)"/><path class="b" d="M392.289,182.471h5.4l.732-3.419a28.744,28.744,0,0,0-.7-14.678,28.733,28.733,0,0,1-1-12.96l-.451,1.24A59.943,59.943,0,0,0,392.7,171Zm0,0" transform="translate(-354.286 -136.746)"/><path class="a" d="M90.422,14.652V10.538a4.362,4.362,0,0,0-3.565-4.356,4.258,4.258,0,0,0-4.294,1.933A8.486,8.486,0,0,0,73.8,3.429l-2.851.38.2,1.536,2.678-.357a7.273,7.273,0,0,1,3.354.289,6.968,6.968,0,0,1,4.386,4.5,6.375,6.375,0,0,0-5.249-1.305l.3,1.519a4.848,4.848,0,0,1,5.092,2.254l.181.3v4.078a4.627,4.627,0,0,0-3.1-1.194h-.775a4.655,4.655,0,0,0-4.65,4.65h1.55a3.1,3.1,0,0,1,3.1-3.1H78.8a3.1,3.1,0,0,1,3.1,3.1V31.9a4.24,4.24,0,0,0-2.814-.977,4.385,4.385,0,0,0-4.161,4.447v4.078h1.55V35.267a2.764,2.764,0,0,1,2.143-2.733A2.717,2.717,0,0,1,81.9,35.19V48.752h1.55V28.292A2.764,2.764,0,0,1,85.59,25.56a2.717,2.717,0,0,1,3.282,2.655V28.6h1.55v-.2a4.385,4.385,0,0,0-4.161-4.447,4.24,4.24,0,0,0-2.814.977V10.467A2.764,2.764,0,0,1,85.59,7.735a2.717,2.717,0,0,1,3.282,2.655v4.262Zm0,0" transform="translate(-64.073 -3.027)"/><g transform="translate(0 0.775)"><path class="c" d="M6.975,8H5.425A5.431,5.431,0,0,0,0,13.425a.775.775,0,0,0,.775.775h1.55A5.431,5.431,0,0,0,7.75,8.775.775.775,0,0,0,6.975,8Zm0,0" transform="translate(0 -8)"/><path class="c" d="M62.975,56h-1.55A5.431,5.431,0,0,0,56,61.425a.775.775,0,0,0,.775.775h1.55a5.431,5.431,0,0,0,5.425-5.425A.775.775,0,0,0,62.975,56Zm0,0" transform="translate(-50.575 -51.35)"/><path class="c" d="M207.746,118.651a1.417,1.417,0,0,0-2,0v-1.842a4.759,4.759,0,0,0-4.038-4.773,4.655,4.655,0,0,0-5.262,4.611v2a1.417,1.417,0,0,0-2,0l-.094.094,1.1,1.1a1.55,1.55,0,0,0,1.955.194l1.367-.912,1.466.977a1.545,1.545,0,0,0,1.718,0l1.466-.977,1.367.91a1.55,1.55,0,0,0,1.955-.194l1.1-1.1Zm0,0" transform="translate(-175.517 -101.922)"/><path class="c" d="M37.4,176.039l1.367-.912,1.466.977a1.545,1.545,0,0,0,1.718,0l1.466-.977,1.367.911a1.55,1.55,0,0,0,1.955-.195l1.1-1.1-.094-.094a1.417,1.417,0,0,0-2,0v-1.841a4.759,4.759,0,0,0-4.038-4.773,4.655,4.655,0,0,0-5.262,4.611v2a1.417,1.417,0,0,0-2,0l-.094.094,1.1,1.1A1.55,1.55,0,0,0,37.4,176.039Zm0,0" transform="translate(-31.017 -152.497)"/><path class="c" d="M61.742,374.651v-1.842a4.759,4.759,0,0,0-4.038-4.773,4.655,4.655,0,0,0-5.262,4.611v2a1.417,1.417,0,0,0-2,0l-.094.094,1.1,1.1a1.55,1.55,0,0,0,1.955.194l1.367-.912,1.466.977a1.545,1.545,0,0,0,1.718,0l1.466-.977,1.367.91a1.55,1.55,0,0,0,1.955-.194l1.1-1.1-.094-.094a1.417,1.417,0,0,0-2,0Zm0,0" transform="translate(-45.467 -333.122)"/><path class="c" d="M215.746,262.651a1.417,1.417,0,0,0-2,0v-1.842a4.759,4.759,0,0,0-4.038-4.773,4.655,4.655,0,0,0-5.262,4.611v2a1.417,1.417,0,0,0-2,0l-.094.094,1.1,1.1a1.55,1.55,0,0,0,1.954.194l1.368-.913,1.466.977a1.545,1.545,0,0,0,1.718,0l1.466-.977,1.367.911a1.55,1.55,0,0,0,1.955-.194l1.1-1.1Zm0,0" transform="translate(-182.742 -231.972)"/></g></svg>