<svg xmlns="http://www.w3.org/2000/svg" width="44.62" height="72.538" viewBox="0 0 44.62 72.538"><defs><style>.a{fill:#00a94f;}</style></defs><g transform="translate(-98.527)"><g transform="translate(115.032 60.773)"><g transform="translate(0)"><path class="a" d="M220.911,428.956a5.883,5.883,0,1,0,5.883,5.883A5.889,5.889,0,0,0,220.911,428.956Zm0,8.875a2.993,2.993,0,1,1,2.993-2.993A3,3,0,0,1,220.911,437.831Z" transform="translate(-215.028 -428.956)"/></g></g><g transform="translate(98.527)"><g transform="translate(0)"><path class="a" d="M120.837,0a22.335,22.335,0,0,0-22.31,22.31,5.893,5.893,0,0,0,11.786,0,10.524,10.524,0,1,1,10.524,10.524,5.9,5.9,0,0,0-5.893,5.893V52.475a5.893,5.893,0,1,0,11.786,0V43.829A22.311,22.311,0,0,0,120.837,0Zm4.14,41.286A1.445,1.445,0,0,0,123.84,42.7v9.778a3,3,0,1,1-6.006,0V38.727a3.006,3.006,0,0,1,3-3A13.414,13.414,0,1,0,107.423,22.31a3,3,0,1,1-6.006,0,19.42,19.42,0,1,1,23.56,18.976Z" transform="translate(-98.527)"/></g></g><g transform="translate(119.392 42.482)"><g transform="translate(0)"><path class="a" d="M247.246,299.857A1.445,1.445,0,0,0,245.8,301.3v8.381a1.445,1.445,0,0,0,2.89,0V301.3A1.445,1.445,0,0,0,247.246,299.857Z" transform="translate(-245.801 -299.857)"/></g></g><g transform="translate(119.392 37.28)"><g transform="translate(0)"><path class="a" d="M247.246,263.139a1.445,1.445,0,0,0-1.445,1.445v1.3a1.445,1.445,0,0,0,2.89,0v-1.3A1.445,1.445,0,0,0,247.246,263.139Z" transform="translate(-245.801 -263.139)"/></g></g></g></svg>