<svg xmlns="http://www.w3.org/2000/svg" width="492.227" height="496.321" viewBox="0 0 492.227 496.321"><defs><style>.a,.d{fill:none;stroke:#0079c1;}.b{fill:#eff8fd;}.c{fill:#151515;font-size:16px;font-family:Helvetica;}.d{stroke-linecap:round;stroke-linejoin:round;}</style></defs><g transform="translate(-22 -45)"><path class="a" d="M0,0H275.2" transform="translate(150.852 476.424)"/><path class="a" d="M0,0H382.583" transform="translate(131.006 110.524)"/><circle class="b" cx="65.5" cy="65.5" r="65.5" transform="translate(205 45)"/><text class="c" transform="translate(270 107)"><tspan x="-55.234" y="0">Планирование</tspan><tspan x="-40.75" y="19">инноваций</tspan></text><path class="a" d="M0,0,363.375-.1" transform="translate(150.852 271.5)"/><g transform="translate(-19.35 -52)"><rect class="b" width="159" height="131" rx="14" transform="translate(41.35 97)"/><text class="c" transform="translate(121.5 159)"><tspan x="-68.984" y="0">Прогнозирование </tspan><tspan x="-40.75" y="19">инноваций</tspan></text></g><path class="d" d="M0,6.709,6.709,0l6.709,6.709" transform="translate(205 103.815) rotate(90)"/><circle class="b" cx="65.5" cy="65.5" r="65.5" transform="translate(363 45)"/><text class="c" transform="translate(429 96)"><tspan x="-27.586" y="0">Анализ</tspan><tspan x="-45.734" y="19">проблемной</tspan><tspan x="-35.02" y="38">ситуации</tspan></text><circle class="b" cx="65.5" cy="65.5" r="65.5" transform="translate(363 410)"/><text class="c" transform="translate(429 461.815)"><tspan x="-35.723" y="0">Контроль</tspan><tspan x="-35.859" y="19">и оценка </tspan><tspan x="-46.77" y="38">результатов</tspan></text><path class="d" d="M0,6.709,6.709,0l6.709,6.709" transform="translate(325.83 278.234) rotate(-90)"/><line class="a" y1="127.5" transform="translate(101.5 283.315)"/><circle class="b" cx="65.5" cy="65.5" r="65.5" transform="translate(205 410)"/><text class="c" transform="translate(270 461.321)"><tspan x="-49.609" y="0">Организация</tspan><tspan x="-48.355" y="19">выполнения </tspan><tspan x="-33.152" y="38">решения</tspan></text><rect class="b" width="136" height="131" rx="14" transform="translate(33 410.321)"/><text class="c" transform="translate(101 451.321)"><tspan x="-26.684" y="0">Выбор </tspan><tspan x="-35.375" y="19">решения </tspan><tspan x="-49.695" y="38">(наилучшего </tspan><tspan x="-37.961" y="57">варианта)</tspan></text><path class="d" d="M0,6.709,6.709,0l3.355,3.355,3.355,3.355" transform="translate(363 103.815) rotate(90)"/><path class="a" d="M0,0V160.663" transform="translate(513.5 110.5)"/><path class="d" d="M0,6.709,6.709,0l6.709,6.709" transform="translate(494.501 278.234) rotate(-90)"/><circle class="b" cx="65.5" cy="65.5" r="65.5" transform="translate(36 206)"/><text class="c" transform="translate(102 266)"><tspan x="-46.637" y="0">Разработка </tspan><tspan x="-39.68" y="19">вариантов</tspan></text><circle class="b" cx="65.5" cy="65.5" r="65.5" transform="translate(194.83 206)"/><text class="c" transform="translate(260.83 247)"><tspan x="-53.699" y="0">Определение </tspan><tspan x="-42.121" y="19">критериев </tspan><tspan x="-30.18" y="38">выбора </tspan><tspan x="-39.68" y="57">вариантов</tspan></text><path class="d" d="M0,6.709,6.709,0l6.709,6.709" transform="translate(108.209 410.815) rotate(180)"/><path class="d" d="M0,6.709,6.709,0l6.709,6.709" transform="translate(205 470.105) rotate(90)"/><path class="d" d="M0,6.709,6.709,0l6.709,6.709" transform="translate(363 470.105) rotate(90)"/><rect class="b" width="145" height="131" rx="14" transform="translate(349 206)"/><text class="c" transform="translate(420 247)"><tspan x="-64.27" y="0">Идентификация </tspan><tspan x="-47.813" y="19">потребности</tspan><tspan x="-51.801" y="38">в инновации. </tspan><tspan x="-65.504" y="57">Уточнение целей</tspan></text><path class="d" d="M0,6.709,6.709,0l6.709,6.709" transform="translate(166.646 278.234) rotate(-90)"/></g></svg>