<svg xmlns="http://www.w3.org/2000/svg" width="1068" height="277" viewBox="0 0 1068 277"><defs><style>.a,.d{fill:none;stroke:#0079c1;}.b{fill:#eff8fd;}.c{fill:#151515;font-size:16px;font-family:Helvetica;}.d{stroke-linecap:round;stroke-linejoin:round;}</style></defs><g transform="translate(-41 -97)"><line class="a" x2="843" transform="translate(146.5 162.5)"/><rect class="b" width="184" height="131" rx="14" transform="translate(704 97)"/><text class="c" transform="translate(798 138)"><tspan x="-64.27" y="0">Идентификация </tspan><tspan x="-56.641" y="19">потребности в </tspan><tspan x="-45.195" y="38">инновации. </tspan><tspan x="-65.504" y="57">Уточнение целей</tspan></text><line class="a" x2="779" transform="translate(236.5 308.5)"/><rect class="b" width="184" height="131" rx="14" transform="translate(41 97)"/><text class="c" transform="translate(137.5 159)"><tspan x="-68.984" y="0">Прогнозирование </tspan><tspan x="-40.75" y="19">инноваций</tspan></text><circle class="b" cx="65.5" cy="65.5" r="65.5" transform="translate(839 243)"/><text class="c" transform="translate(904.5 305)"><tspan x="-46.637" y="0">Разработка </tspan><tspan x="-39.68" y="19">вариантов</tspan></text><path class="d" d="M0,6.709,6.709,0l6.709,6.709" transform="translate(281.855 155.815) rotate(90)"/><path class="d" d="M0,6.709,6.709,0l6.709,6.709" transform="translate(302.146 315.234) rotate(-90)"/><path class="d" d="M0,6.709,6.709,0l6.709,6.709" transform="translate(504.855 155.815) rotate(90)"/><path class="d" d="M0,6.709,6.709,0l6.709,6.709" transform="translate(703.855 155.815) rotate(90)"/><path class="d" d="M0,6.709,6.709,0l6.709,6.709" transform="translate(924.855 155.815) rotate(90)"/><circle class="b" cx="65.5" cy="65.5" r="65.5" transform="translate(282 97)"/><text class="c" transform="translate(347.5 159)"><tspan x="-55.234" y="0">Планирование</tspan><tspan x="-40.75" y="19">инноваций</tspan></text><circle class="b" cx="65.5" cy="65.5" r="65.5" transform="translate(505 97)"/><text class="c" transform="translate(570.5 148)"><tspan x="-27.586" y="0">Анализ</tspan><tspan x="-45.734" y="19">проблемной</tspan><tspan x="-35.02" y="38">ситуации</tspan></text><circle class="b" cx="65.5" cy="65.5" r="65.5" transform="translate(616 243)"/><text class="c" transform="translate(681.5 284)"><tspan x="-26.684" y="0">Выбор </tspan><tspan x="-35.375" y="19">решения </tspan><tspan x="-49.695" y="38">(наилучшего </tspan><tspan x="-37.961" y="57">варианта)</tspan></text><circle class="b" cx="65.5" cy="65.5" r="65.5" transform="translate(394 243)"/><text class="c" transform="translate(459.5 294)"><tspan x="-49.609" y="0">Организация</tspan><tspan x="-48.355" y="19">выполнения </tspan><tspan x="-33.152" y="38">решения</tspan></text><circle class="b" cx="65.5" cy="65.5" r="65.5" transform="translate(171 243)"/><text class="c" transform="translate(236.5 294)"><tspan x="-35.723" y="0">Контроль</tspan><tspan x="-35.859" y="19">и оценка </tspan><tspan x="-46.77" y="38">результатов</tspan></text><path class="d" d="M0,6.709,6.709,0l6.709,6.709" transform="translate(525.146 315.234) rotate(-90)"/><path class="d" d="M0,6.709,6.709,0l6.709,6.709" transform="translate(747.146 315.234) rotate(-90)"/><path class="d" d="M0,6.709,6.709,0l6.709,6.709" transform="translate(970.146 315.234) rotate(-90)"/><line class="a" y2="80" transform="translate(1015.5 228.5)"/><rect class="b" width="184" height="131" rx="14" transform="translate(925 97)"/><text class="c" transform="translate(1021.5 138)"><tspan x="-53.699" y="0">Определение </tspan><tspan x="-42.121" y="19">критериев </tspan><tspan x="-30.18" y="38">выбора </tspan><tspan x="-39.68" y="57">вариантов</tspan></text></g></svg>