<svg xmlns="http://www.w3.org/2000/svg" width="688" height="392" viewBox="0 0 688 392"><defs><style>.a,.g{fill:none;}.a,.b{stroke:#0079c1;}.a{stroke-dasharray:3;}.b,.e{fill:#eff8fd;}.c{fill:#151515;font-size:16px;font-family:Roboto-Bold, Roboto;font-weight:700;}.d{font-family:Roboto-Regular, Roboto;font-weight:400;}.f{stroke:none;}</style></defs><g transform="translate(-16 -95)"><g class="a" transform="translate(198 133)"><ellipse class="f" cx="162.5" cy="162" rx="162.5" ry="162"/><ellipse class="g" cx="162.5" cy="162" rx="162" ry="161.5"/></g><g class="b" transform="translate(204 95)"><rect class="f" width="313" height="75" rx="15"/><rect class="g" x="0.5" y="0.5" width="312" height="74" rx="14.5"/></g><text class="c" transform="translate(359 138)"><tspan x="-126.77" y="0" xml:space="preserve">ИННОВАЦИОННЫЙ  ПОТЕНЦИАЛ</tspan></text><g class="b" transform="translate(204 412)"><rect class="f" width="313" height="75" rx="15"/><rect class="g" x="0.5" y="0.5" width="312" height="74" rx="14.5"/></g><text class="c" transform="translate(359 446)"><tspan x="-93.34" y="0">НАУЧНО-ТЕХНИЧЕСКИЙ</tspan><tspan x="-48.793" y="19">ПОТЕНЦИАЛ</tspan></text><line class="a" x2="199" transform="translate(260.891 243.5)"/><line class="a" x1="199" transform="translate(260.891 348.5)"/><line class="a" y2="103" transform="translate(360 245.5)"/><text class="c" transform="translate(172 229)"><tspan x="-81.027" y="0">Кадровый потенциал</tspan><tspan class="d"><tspan x="-115.543" y="21">(общее руководство системой</tspan><tspan x="-77.223" y="42">и стиль управления)</tspan></tspan></text><rect class="e" width="313" height="75" rx="15" transform="translate(16 206)"/><text class="c" transform="translate(172 229)"><tspan x="-81.027" y="0">Кадровый потенциал</tspan><tspan class="d"><tspan x="-115.543" y="21">(общее руководство системой</tspan><tspan x="-77.223" y="42">и стиль управления)</tspan></tspan></text><rect class="e" width="313" height="75" rx="15" transform="translate(391 206)"/><text class="c" transform="translate(548 241)"><tspan x="-106.434" y="0">Финансово-экономический </tspan><tspan x="-39.883" y="19">потенциал</tspan></text><rect class="e" width="313" height="75" rx="15" transform="translate(16 310)"/><text class="c" transform="translate(172 332)"><tspan x="-113.188" y="0">Организационный потенциал </tspan><tspan class="d"><tspan x="-101.445" y="21">(оргструктура, технологии </tspan><tspan x="-118.168" y="42">по всем функциям и проектам)</tspan></tspan></text><rect class="e" width="313" height="75" rx="15" transform="translate(391 310)"/><text class="c" transform="translate(548 344)"><tspan x="-70.66" y="0">Производсвтенно-</tspan><tspan x="-106.566" y="19">технологический потенциал</tspan></text></g></svg>