<svg xmlns="http://www.w3.org/2000/svg" width="520" height="615.096" viewBox="0 0 520 615.096"><defs><style>.a,.h{fill:none;}.a,.b{stroke:#0079c1;}.a{stroke-dasharray:3;}.b,.d{fill:#eff8fd;}.c,.e{fill:#151515;font-family:Roboto-Bold, Roboto;font-weight:700;}.c{font-size:24px;}.e{font-size:21px;}.f{font-family:Roboto-Regular, Roboto;font-weight:400;}.g{stroke:none;}</style></defs><g transform="translate(-10 -95)"><g class="a" transform="translate(21.476 153.143)"><ellipse class="g" cx="248.64" cy="247.875" rx="248.64" ry="247.875"/><ellipse class="h" cx="248.64" cy="247.875" rx="248.14" ry="247.375"/></g><g transform="translate(30.656 95)"><g class="b"><rect class="g" width="478.918" height="68.854" rx="15"/><rect class="h" x="0.5" y="0.5" width="477.918" height="67.854" rx="14.5"/></g><text class="c" transform="translate(232.843 41.891)"><tspan x="-190.154" y="0" xml:space="preserve">ИННОВАЦИОННЫЙ  ПОТЕНЦИАЛ</tspan></text></g><g transform="translate(91.095 621.351)"><g class="b" transform="translate(-0.095 -0.255)"><rect class="g" width="358" height="89" rx="15"/><rect class="h" x="0.5" y="0.5" width="357" height="88" rx="14.5"/></g><text class="c" transform="translate(174.905 37.745)"><tspan x="-140.01" y="0">НАУЧНО-ТЕХНИЧЕСКИЙ</tspan><tspan x="-73.189" y="28">ПОТЕНЦИАЛ</tspan></text></g><line class="a" x2="304.488" transform="translate(143.118 247.244)"/><line class="a" x1="304.488" transform="translate(104.866 466.047)"/><g transform="translate(10 191.396)"><rect class="d" width="223" height="159" rx="15" transform="translate(0 -0.3)"/><text class="e" transform="translate(110 35.7)"><tspan x="-54.002" y="0">Кадровый </tspan><tspan x="-92.634" y="24">потенциал </tspan><tspan class="f" y="24">(общее </tspan><tspan class="f"><tspan x="-66.261" y="48">руководство </tspan><tspan x="-89.942" y="72">системой и стиль </tspan><tspan x="-61.739" y="96">управления)</tspan></tspan></text></g><g transform="translate(317.548 191.396)"><rect class="d" width="212" height="112" rx="15" transform="translate(0.452 -0.3)"/><text class="e" transform="translate(104.452 35.7)"><tspan x="-59.437" y="0">Финансово-</tspan><tspan x="-80.257" y="24">экономический </tspan><tspan x="-52.346" y="48">потенциал</tspan></text></g><g transform="translate(19.181 413.259)"><rect class="d" width="224" height="188" rx="15" transform="translate(-0.181 -0.163)"/><text class="e" transform="translate(111.066 43.481)"><tspan x="-93.598" y="0">Организационный </tspan><tspan x="-54.961" y="24">потенциал </tspan><tspan class="f"><tspan x="-74.505" y="48">(оргструктура, </tspan><tspan x="-58.642" y="72">технологии </tspan><tspan x="-95.074" y="96">по всем функциям </tspan><tspan x="-60.021" y="120">и проектам)</tspan></tspan></text></g><g transform="translate(320.608 413.259)"><rect class="d" width="208" height="120" rx="15" transform="translate(0.392 -0.163)"/><text class="e" transform="translate(102.392 43.837)"><tspan x="-92.741" y="0">Производсвтенно-</tspan><tspan x="-84.907" y="24">технологический</tspan><tspan x="-52.346" y="48">потенциал</tspan></text></g><line class="a" y2="218.803" transform="translate(270.115 247.244)"/></g></svg>