<svg xmlns="http://www.w3.org/2000/svg" width="518" height="410" viewBox="0 0 518 410"><defs><style>.a,.d,.e,.i{fill:none;}.a,.d,.e,.f{stroke:#0079c1;}.a,.d{stroke-linecap:round;}.b,.f{fill:#eff8fd;}.c,.g{fill:#151515;font-size:16px;}.c{font-family:Helvetica;}.d{stroke-linejoin:round;}.g{font-family:Helvetica-Bold, Helvetica;font-weight:700;}.h{stroke:none;}</style></defs><g transform="translate(-43.986 -20)"><line class="a" y1="78.737" transform="translate(497.141 128.5)"/><g transform="translate(44 20)"><g transform="translate(88.355 270)"><circle class="b" cx="65.5" cy="65.5" r="65.5" transform="translate(-25.369 9)"/><text class="c" transform="translate(40.631 60)"><tspan x="-26.336" y="0">Отдел </tspan><tspan x="-33.219" y="19">главного</tspan><tspan x="-51.461" y="38">конструктора</tspan></text></g><g transform="translate(220.891 279)"><circle class="b" cx="65.5" cy="65.5" r="65.5" transform="translate(0.095)"/><text class="c" transform="translate(66.095 51)"><tspan x="-26.336" y="0">Отдел </tspan><tspan x="-33.219" y="19">главного</tspan><tspan x="-38.063" y="38">технолога</tspan></text></g><path class="d" d="M0,6.709,6.434,0l6.434,6.709" transform="translate(261.974 282.683) rotate(150)"/><line class="a" y1="46.759" transform="translate(232.881 244.737) rotate(-30)"/><path class="d" d="M0,6.709,6.434,0l6.434,6.709" transform="translate(161.527 289.116) rotate(-150)"/><line class="a" y1="46.759" transform="translate(179.422 244.751) rotate(30)"/><path class="d" d="M0,6.709,6.434,0l6.434,6.709" transform="translate(459.404 188) rotate(180)"/><rect class="e" width="160" height="137" rx="30" transform="translate(201.986 57)"/><g class="f" transform="translate(-0.014)"><rect class="h" width="264" height="96" rx="15"/><rect class="i" x="0.5" y="0.5" width="263" height="95" rx="14.5"/></g><text class="g" transform="translate(95.986 43)"><tspan x="-78.34" y="0">ИННОВАЦИОННОЕ </tspan><tspan x="-73.621" y="19">ПОДРАЗДЕЛЕНИЕ</tspan></text><g transform="translate(329.986)"><rect class="b" width="188" height="109" rx="15"/><text class="g" transform="translate(99 32)"><tspan x="-52.84" y="0">СЛУЖБА ПО </tspan><tspan x="-53.012" y="19">ВНЕДРЕНИЮ</tspan><tspan x="-71.52" y="38">И СБЫТУ НОВОЙ </tspan><tspan x="-51.793" y="57">ПРОДУКЦИИ</tspan></text></g><g transform="translate(386.986 188)"><circle class="b" cx="65.5" cy="65.5" r="65.5"/><text class="c" transform="translate(66 62)"><tspan x="-56.203" y="0">Участок новых</tspan><tspan x="-48.078" y="19">производств</tspan></text></g><g transform="translate(0 128)"><circle class="b" cx="65.5" cy="65.5" r="65.5" transform="translate(-0.014)"/><text class="c" transform="translate(65.986 62)"><tspan x="-44.578" y="0">Договорной</tspan><tspan x="-22.34" y="19">отдел</tspan></text></g><g transform="translate(136.728 128)"><circle class="b" cx="65.5" cy="65.5" r="65.5" transform="translate(0.258)"/><text class="c" transform="translate(66.258 62)"><tspan x="-48.504" y="0">Техническая</tspan><tspan x="-27.73" y="19">служба</tspan></text></g><path class="d" d="M5711.291,4331.263l6.709-6.709,6.709,6.709" transform="translate(-5356.014 -4215.553)"/><path class="d" d="M0,6.709,6.709,0l6.709,6.709" transform="translate(329.986 50.199) rotate(90)"/><path class="d" d="M0,6.709,6.709,0l6.709,6.709" transform="translate(263.986 63.618) rotate(-90)"/><path class="d" d="M0,6.709,6.709,0l6.709,6.709" transform="translate(209.195 128.263) rotate(180)"/><path class="d" d="M0,6.709,6.434,0l6.434,6.709" transform="translate(71.919 128) rotate(180)"/><line class="a" y1="32.737" transform="translate(65.5 94.5)"/></g></g></svg>