<svg xmlns="http://www.w3.org/2000/svg" width="661" height="520" viewBox="0 0 661 520"><defs><style>.a,.d{fill:#eff8fd;}.a,.g,.h{stroke:#0079c1;}.b,.e{fill:#151515;font-size:13px;}.b,.f{font-family:Helvetica;}.c,.e{font-family:Helvetica-Bold, Helvetica;font-weight:700;}.f{font-weight:400;}.g,.h,.j{fill:none;}.h{stroke-linecap:round;stroke-linejoin:round;}.i{stroke:none;}</style></defs><g transform="translate(-189.057 -107)"><g class="a" transform="translate(189.057 107)"><circle class="i" cx="54.5" cy="54.5" r="54.5"/><circle class="j" cx="54.5" cy="54.5" r="54"/></g><text class="b" transform="translate(244.057 149)"><tspan x="-41.825" y="0">Определение</tspan><tspan class="c"><tspan x="-23.835" y="16">миссии</tspan></tspan><tspan x="-39.032" y="32">организации</tspan></text><ellipse class="d" cx="55" cy="54.5" rx="55" ry="54.5" transform="translate(327.057 107)"/><text class="b" transform="translate(382.057 149)"><tspan x="-41.825" y="0">Определение</tspan><tspan class="c"><tspan x="-19.411" y="16">целей</tspan></tspan><tspan x="-39.032" y="32">организации</tspan></text><circle class="d" cx="54.5" cy="54.5" r="54.5" transform="translate(465.057 107)"/><text class="e" transform="translate(519.057 149)"><tspan x="-23.74" y="0">Анализ</tspan><tspan class="f"><tspan x="-26.87" y="16">внешней</tspan><tspan x="-19.113" y="32">среды</tspan></tspan></text><circle class="d" cx="54.5" cy="54.5" r="54.5" transform="translate(604.057 107)"/><text class="e" transform="translate(659.057 142)"><tspan x="-23.74" y="0">Анализ</tspan><tspan class="f"><tspan x="-37.984" y="16">внутреннего</tspan><tspan x="-36.175" y="32">потенциала</tspan><tspan x="-39.032" y="48">организации</tspan></tspan></text><ellipse class="d" cx="54" cy="54.5" rx="54" ry="54.5" transform="translate(742.057 107)"/><text class="e" transform="translate(796.057 149)"><tspan x="-23.74" y="0">Анализ</tspan><tspan class="f"><tspan x="-47.972" y="16">стратегических</tspan><tspan x="-38.908" y="32">альтернатив</tspan></tspan></text><g class="a" transform="translate(742.057 244)"><ellipse class="i" cx="54" cy="55" rx="54" ry="55"/><ellipse class="j" cx="54" cy="55" rx="53.5" ry="54.5"/></g><text class="e" transform="translate(795.057 297)"><tspan x="-20.224" y="0">Отбор</tspan><tspan x="-23.563" y="16">кадров</tspan></text><ellipse class="d" cx="54.5" cy="55" rx="54.5" ry="55" transform="translate(604.057 244)"/><text class="e" transform="translate(659.057 288)"><tspan x="-37.569" y="0">Разработка</tspan><tspan class="f"><tspan x="-41.583" y="16">оргструктуры</tspan><tspan x="-39.032" y="32">организации</tspan></tspan></text><ellipse class="d" cx="54.5" cy="55" rx="54.5" ry="55" transform="translate(465.057 244)"/><text class="b" transform="translate(517.057 297)"><tspan x="-37.086" y="0">Реализация</tspan><tspan class="c"><tspan x="-32.141" y="16">стратегии</tspan></tspan></text><circle class="d" cx="55" cy="55" r="55" transform="translate(327.057 244)"/><text class="b" transform="translate(382.057 288)"><tspan x="-40.965" y="0">Оперативное</tspan><tspan class="c"><tspan x="-44.234" y="16">управление и</tspan><tspan x="-46.76" y="32">планирование</tspan></tspan></text><ellipse class="d" cx="54.5" cy="55" rx="54.5" ry="55" transform="translate(189.057 244)"/><text class="b" transform="translate(244.057 294)"><tspan x="-23.172" y="0">Оценка</tspan><tspan x="-30.799" y="16">стратегии</tspan></text><ellipse class="d" cx="55" cy="54.5" rx="55" ry="54.5" transform="translate(327.057 381)"/><text class="b" transform="translate(383.057 439)"><tspan x="-25.232" y="0">Бюджет</tspan></text><circle class="d" cx="55" cy="55" r="55" transform="translate(327.057 517)"/><text class="b" transform="translate(382.057 568)"><tspan x="-37.112" y="0">Управление</tspan><tspan x="-28.05" y="16">по целям</tspan></text><g transform="translate(376.101 353.77)"><line class="g" y2="26.909" transform="translate(6.402)"/><path class="h" d="M5347.808,3453.941l6.669,6.669,6.669-6.669" transform="translate(-5347.808 -3433.323)"/></g><g transform="translate(376.101 490.263)"><line class="g" y2="26.909" transform="translate(6.402)"/><path class="h" d="M5347.808,3453.941l6.669,6.669,6.669-6.669" transform="translate(-5347.808 -3433.323)"/></g><g transform="translate(298.384 167.678) rotate(-90)"><line class="g" y2="28.395" transform="translate(6.402)"/><path class="h" d="M0,0,6.669,6.669,13.339,0" transform="translate(0 22.104)"/></g><g transform="translate(436.542 167.678) rotate(-90)"><line class="g" y2="28.395" transform="translate(6.402)"/><path class="h" d="M0,0,6.669,6.669,13.339,0" transform="translate(0 22.104)"/></g><g transform="translate(574.699 167.678) rotate(-90)"><line class="g" y2="28.395" transform="translate(6.402)"/><path class="h" d="M0,0,6.669,6.669,13.339,0" transform="translate(0 22.104)"/></g><g transform="translate(712.857 167.678) rotate(-90)"><line class="g" y2="28.395" transform="translate(6.402)"/><path class="h" d="M0,0,6.669,6.669,13.339,0" transform="translate(0 22.104)"/></g><g transform="translate(712.857 167.678) rotate(-90)"><line class="g" y2="28.395" transform="translate(6.402)"/><path class="h" d="M0,0,6.669,6.669,13.339,0" transform="translate(0 22.104)"/></g><g transform="translate(237.022 215.701)"><line class="g" y2="28.395" transform="translate(6.402)"/><path class="h" d="M5347.808,3453.941l6.669,6.669,6.669-6.669" transform="translate(-5347.808 -3431.837)"/></g><g transform="translate(298.384 307.5) rotate(-90)"><line class="g" y2="28.395" transform="translate(6.402)"/><path class="h" d="M0,0,6.669,6.669,13.339,0" transform="translate(0 22.104)"/></g><g transform="translate(436.542 307.5) rotate(-90)"><line class="g" y2="28.395" transform="translate(6.402)"/><path class="h" d="M0,0,6.669,6.669,13.339,0" transform="translate(0 22.104)"/></g><g transform="translate(574.699 307.5) rotate(-90)"><line class="g" y2="28.395" transform="translate(6.402)"/><path class="h" d="M0,0,6.669,6.669,13.339,0" transform="translate(0 22.104)"/></g><g transform="translate(712.857 307.5) rotate(-90)"><line class="g" y2="28.395" transform="translate(6.402)"/><path class="h" d="M0,0,6.669,6.669,13.339,0" transform="translate(0 22.104)"/></g><g transform="translate(789.654 215.701)"><line class="g" y2="28.395" transform="translate(6.402)"/><path class="h" d="M5347.808,3453.941l6.669,6.669,6.669-6.669" transform="translate(-5347.808 -3431.837)"/></g></g></svg>