<svg xmlns="http://www.w3.org/2000/svg" width="935.791" height="1550.482" viewBox="0 0 935.791 1550.482"><defs><style>.a,.d,.e{fill:none;stroke:#0079c1;}.b{fill:#eff8fd;}.c{fill:#151515;font-size:16px;font-family:Helvetica;}.d,.e{stroke-linecap:round;}.d{stroke-linejoin:round;}</style></defs><g transform="translate(-15.209 -30.5)"><line class="a" y1="336" transform="translate(492.694 798.5)"/><rect class="b" width="736" height="67" rx="15" transform="translate(120 814)"/><rect class="b" width="736" height="67" rx="15" transform="translate(120 892)"/><line class="a" y2="428" transform="translate(492.694 194.5)"/><rect class="b" width="347" height="67" rx="15" transform="translate(318 294)"/><rect class="b" width="492" height="67" rx="15" transform="translate(245 373)"/><rect class="b" width="492" height="67" rx="15" transform="translate(245 452)"/><rect class="b" width="492" height="67" rx="15" transform="translate(245 531)"/><rect class="a" width="704" height="163" rx="30" transform="translate(142 31)"/><rect class="b" width="210" height="108" rx="15" transform="translate(38 73)"/><text class="c" transform="translate(143 112)"><tspan x="-27.586" y="0">Анализ</tspan><tspan x="-77.18" y="19">конъюнктуры рынка</tspan><tspan x="-61.781" y="38">и его тенденции</tspan></text><rect class="b" width="210" height="108" rx="15" transform="translate(268 73)"/><text class="c" transform="translate(372 112)"><tspan x="-78.16" y="0">Анализ информации</tspan><tspan x="-54.301" y="19">о новых видах</tspan><tspan x="-40.48" y="38">продукции</tspan></text><rect class="b" width="210" height="108" rx="15" transform="translate(505 73)"/><text class="c" transform="translate(613 122)"><tspan x="-82.07" y="0">Анализ потребностей</tspan><tspan x="-48.34" y="19">покупателей</tspan></text><rect class="b" width="210" height="108" rx="15" transform="translate(741 73)"/><text class="c" transform="translate(846 112)"><tspan x="-27.586" y="0">Анализ</tspan><tspan x="-71.203" y="19">производственных</tspan><tspan x="-54.863" y="38">возможностей</tspan></text><path class="a" d="M5232.765,6283H4954V7832.482h476.984" transform="translate(-4938.291 -6252)"/><path class="d" d="M0,6.709,6.709,0l6.709,6.709" transform="translate(148.419 73.263) rotate(180)"/><path class="d" d="M0,6.709,6.709,0l6.709,6.709" transform="translate(852.021 73.263) rotate(180)"/><line class="a" y2="12.5" transform="translate(370.296 181.5)"/><line class="a" y2="12.5" transform="translate(615.091 181.5)"/><g transform="translate(364.05 31.5)"><path class="d" d="M0,6.709,6.434,0l6.434,6.709" transform="translate(12.868 41.5) rotate(180)"/><line class="e" y1="40.737" transform="translate(6.448)"/></g><g transform="translate(608.397 31.5)"><path class="d" d="M0,6.709,6.434,0l6.434,6.709" transform="translate(12.868 41.5) rotate(180)"/><line class="e" y1="40.737" transform="translate(6.448)"/></g><path class="d" d="M0,6.709,6.709,0l6.709,6.709" transform="translate(499.378 214.263) rotate(180)"/><rect class="b" width="736" height="67" rx="15" transform="translate(120 214)"/><text class="c" transform="translate(489.471 254)"><tspan x="-305.328" y="0">Разработка рабочего прогноза на кратко-, средне- и долгосрочную перспективу</tspan></text><path class="d" d="M0,6.709,6.709,0l6.709,6.709" transform="translate(499.378 294.263) rotate(180)"/><text class="c" transform="translate(491.125 334)"><tspan x="-150.395" y="0">Выбор исходной идеи новой продукции</tspan></text><path class="d" d="M0,6.709,6.709,0l6.709,6.709" transform="translate(499.378 373.263) rotate(180)"/><text class="c" transform="translate(494 403)"><tspan x="-174.504" y="0">Принятие решения о запуске в производство </tspan><tspan x="-128.473" y="19">опытной партии новой продукции</tspan></text><text class="c" transform="translate(491 492)"><tspan x="-212.102" y="0">Составление плана работ по созданию опытной партии</tspan></text><path class="d" d="M0,6.709,6.709,0l6.709,6.709" transform="translate(499.378 531.263) rotate(180)"/><path class="d" d="M0,6.709,6.709,0l6.709,6.709" transform="translate(499.378 452.263) rotate(180)"/><text class="c" transform="translate(491 571)"><tspan x="-211.418" y="0">Комплекс работ по выпуску опытной партии продукции</tspan></text><path class="d" d="M0,6.709,6.709,0l6.709,6.709" transform="translate(499.378 622.263) rotate(180)"/><rect class="a" width="704" height="175" rx="30" transform="translate(142 623)"/><rect class="b" width="210" height="108" rx="15" transform="translate(38 665)"/><text class="c" transform="translate(143 716)"><tspan x="-98.461" y="0">Лабораторные испытания</tspan><tspan x="-65.102" y="19">новой продукции</tspan></text><rect class="b" width="210" height="108" rx="15" transform="translate(268 665)"/><text class="c" transform="translate(372 716)"><tspan x="-59.281" y="0">Продажа новой</tspan><tspan x="-26.684" y="19">партии</tspan></text><rect class="b" width="210" height="108" rx="15" transform="translate(505 665)"/><text class="c" transform="translate(611 705)"><tspan x="-61.25" y="0">Анализ отзывов</tspan><tspan x="-84.367" y="19">потребителей о новой</tspan><tspan x="-40.48" y="38">продукции</tspan></text><rect class="b" width="210" height="108" rx="15" transform="translate(741 665)"/><text class="c" transform="translate(846 705)"><tspan x="-60.043" y="0">Анализ мнений </tspan><tspan x="-89.113" y="19">специалистов торговли</tspan><tspan x="-71.773" y="38">о новой продукции</tspan></text><path class="d" d="M0,6.709,6.709,0l6.709,6.709" transform="translate(148.419 665.263) rotate(180)"/><path class="d" d="M0,6.709,6.709,0l6.709,6.709" transform="translate(852.021 665.263) rotate(180)"/><line class="a" y2="24.5" transform="translate(370.296 773.5)"/><line class="a" y2="24.5" transform="translate(615.091 773.5)"/><g transform="translate(364.05 623.5)"><path class="d" d="M0,6.709,6.434,0l6.434,6.709" transform="translate(12.868 41.5) rotate(180)"/><line class="e" y1="40.737" transform="translate(6.448)"/></g><g transform="translate(608.397 623.5)"><path class="d" d="M0,6.709,6.434,0l6.434,6.709" transform="translate(12.868 41.5) rotate(180)"/><line class="e" y1="40.737" transform="translate(6.448)"/></g><path class="d" d="M0,6.709,6.709,0l6.709,6.709" transform="translate(499.378 814.263) rotate(180)"/><text class="c" transform="translate(490 854)"><tspan x="-282.816" y="0">Принятие решения о целесообразности внесения изменений в продукцию</tspan></text><path class="d" d="M0,6.709,6.709,0l6.709,6.709" transform="translate(499.378 1427.88) rotate(180)"/><path class="d" d="M0,6.709,6.709,0l6.709,6.709" transform="translate(499.378 1579.88) rotate(180)"/><path class="d" d="M0,6.709,6.709,0l6.709,6.709" transform="translate(499.378 892.263) rotate(180)"/><text class="c" transform="translate(492 932)"><tspan x="-196.605" y="0">Утверждение окончательной концепции продукции</tspan></text><rect class="b" width="736" height="67" rx="15" transform="translate(120 970)"/><path class="d" d="M0,6.709,6.709,0l6.709,6.709" transform="translate(499.378 970.263) rotate(180)"/><text class="c" transform="translate(490 1010)"><tspan x="-284.574" y="0">Разработка наименования, внешнего вида упаковки и фасовки продукции</tspan></text><rect class="b" width="736" height="67" rx="15" transform="translate(120 1048)"/><path class="d" d="M0,6.709,6.709,0l6.709,6.709" transform="translate(499.378 1048.263) rotate(180)"/><text class="c" transform="translate(491 1088)"><tspan x="-267.465" y="0">Разработка плана мероприятий по продвижению продукции на рынок</tspan></text><path class="d" d="M0,6.709,6.709,0l6.709,6.709" transform="translate(499.378 1133.263) rotate(180)"/><rect class="a" width="704" height="175" rx="30" transform="translate(142 1134)"/><rect class="b" width="210" height="108" rx="15" transform="translate(38 1176)"/><text class="c" transform="translate(143 1226)"><tspan x="-41.398" y="0">Концепция</tspan><tspan x="-71.543" y="19">ценовой стратегии</tspan></text><rect class="b" width="210" height="108" rx="15" transform="translate(268 1176)"/><text class="c" transform="translate(373 1236)"><tspan x="-77.051" y="0">Концепция рекламы</tspan></text><rect class="b" width="210" height="108" rx="15" transform="translate(505 1176)"/><text class="c" transform="translate(611 1226)"><tspan x="-41.398" y="0">Концепция</tspan><tspan x="-87.469" y="19">стимулирования сбыта</tspan></text><rect class="b" width="210" height="108" rx="15" transform="translate(741 1176)"/><text class="c" transform="translate(846 1226)"><tspan x="-93.883" y="0">Концепция организации </tspan><tspan x="-64.348" y="19">товародвижения</tspan></text><path class="d" d="M0,6.709,6.709,0l6.709,6.709" transform="translate(148.419 1176.263) rotate(180)"/><path class="d" d="M0,6.709,6.709,0l6.709,6.709" transform="translate(852.021 1176.263) rotate(180)"/><line class="a" y2="24.5" transform="translate(370.296 1284.5)"/><line class="a" y2="24.5" transform="translate(615.091 1284.5)"/><g transform="translate(364.05 1134.5)"><path class="d" d="M0,6.709,6.434,0l6.434,6.709" transform="translate(12.868 41.5) rotate(180)"/><line class="e" y1="40.737" transform="translate(6.448)"/></g><g transform="translate(608.397 1134.5)"><path class="d" d="M0,6.709,6.434,0l6.434,6.709" transform="translate(12.868 41.5) rotate(180)"/><line class="e" y1="40.737" transform="translate(6.448)"/></g><line class="e" y1="270" transform="translate(492.694 1309.5)"/><rect class="b" width="492" height="67" rx="15" transform="translate(245 1330)"/><path class="d" d="M0,6.709,6.709,0l6.709,6.709" transform="translate(499.378 1330.263) rotate(180)"/><text class="c" transform="translate(492 1370)"><tspan x="-188.672" y="0">Составление плана выпуска серийной продукции</tspan></text><circle class="b" cx="65.5" cy="65.5" r="65.5" transform="translate(427 1428)"/><text class="c" transform="translate(492.537 1478.617)"><tspan x="-27.945" y="0">Выпуск</tspan><tspan x="-35.801" y="19">серийной</tspan><tspan x="-40.48" y="38">продукции</tspan></text></g></svg>