<svg xmlns="http://www.w3.org/2000/svg" width="795" height="624" viewBox="0 0 795 624"><defs><style>.a,.d{fill:#eff8fd;}.a,.g,.h{stroke:#0079c1;}.b,.e{fill:#151515;font-size:16px;}.b,.f{font-family:Roboto-Regular, Roboto;}.c,.e{font-family:Roboto-Bold, Roboto;font-weight:700;}.f{font-weight:400;}.g,.h,.j{fill:none;}.h{stroke-linecap:round;stroke-linejoin:round;}.i{stroke:none;}</style></defs><g transform="translate(-189 -107)"><g class="a" transform="translate(189 107)"><circle class="i" cx="65.5" cy="65.5" r="65.5"/><circle class="j" cx="65.5" cy="65.5" r="65"/></g><text class="b" transform="translate(255 158)"><tspan x="-49.859" y="0">Определение</tspan><tspan class="c"><tspan x="-28.035" y="19">миссии</tspan></tspan><tspan x="-48.215" y="40">организации</tspan></text><circle class="d" cx="65.5" cy="65.5" r="65.5" transform="translate(355 107)"/><text class="b" transform="translate(421 158)"><tspan x="-49.859" y="0">Определение</tspan><tspan class="c"><tspan x="-22.609" y="19">целей</tspan></tspan><tspan x="-48.215" y="40">организации</tspan></text><circle class="d" cx="65.5" cy="65.5" r="65.5" transform="translate(521 107)"/><text class="e" transform="translate(587 158)"><tspan x="-27.219" y="0">Анализ</tspan><tspan class="f"><tspan x="-33.074" y="21">внешней</tspan><tspan x="-24.211" y="42">среды</tspan></tspan></text><circle class="d" cx="65.5" cy="65.5" r="65.5" transform="translate(687 107)"/><text class="e" transform="translate(753 146)"><tspan x="-27.219" y="0">Анализ</tspan><tspan class="f"><tspan x="-47.098" y="21">внутреннего</tspan><tspan x="-44.336" y="42">потенциала</tspan><tspan x="-48.215" y="63">организации</tspan></tspan></text><circle class="d" cx="65.5" cy="65.5" r="65.5" transform="translate(853 107)"/><text class="e" transform="translate(919 158)"><tspan x="-27.219" y="0">Анализ</tspan><tspan class="f"><tspan x="-59.047" y="21">стратегических</tspan><tspan x="-47.77" y="42">альтернатив</tspan></tspan></text><g class="a" transform="translate(853 272)"><circle class="i" cx="65.5" cy="65.5" r="65.5"/><circle class="j" cx="65.5" cy="65.5" r="65"/></g><text class="e" transform="translate(919 334)"><tspan x="-23.18" y="0">Отбор</tspan><tspan x="-27.332" y="19">кадров</tspan></text><circle class="d" cx="65.5" cy="65.5" r="65.5" transform="translate(687 272)"/><text class="e" transform="translate(753 323)"><tspan x="-44.141" y="0">Разработка</tspan><tspan class="f"><tspan x="-52.465" y="21">оргструктуры</tspan><tspan x="-48.215" y="42">организации</tspan></tspan></text><circle class="d" cx="65.5" cy="65.5" r="65.5" transform="translate(521 272)"/><text class="b" transform="translate(587 336)"><tspan x="-44.984" y="0">Реализация</tspan><tspan class="c"><tspan x="-37.555" y="19">стратегии</tspan></tspan></text><circle class="d" cx="65.5" cy="65.5" r="65.5" transform="translate(355 272)"/><text class="b" transform="translate(421 324)"><tspan x="-49.625" y="0">Оперативное</tspan><tspan class="c"><tspan x="-50.68" y="19">управление и</tspan><tspan x="-53.699" y="38">планирование</tspan></tspan></text><circle class="d" cx="65.5" cy="65.5" r="65.5" transform="translate(189 272)"/><text class="b" transform="translate(255 333)"><tspan x="-27.629" y="0">Оценка</tspan><tspan x="-37.887" y="21">стратегии</tspan></text><circle class="d" cx="65.5" cy="65.5" r="65.5" transform="translate(355 436)"/><text class="b" transform="translate(421 508)"><tspan x="-30.707" y="0">Бюджет</tspan></text><circle class="d" cx="65.5" cy="65.5" r="65.5" transform="translate(355 600)"/><text class="b" transform="translate(421 662)"><tspan x="-44.727" y="0">Управление</tspan><tspan x="-35.008" y="21">по целям</tspan></text><g transform="translate(0 44)"><line class="g" y2="32.331" transform="translate(421.5 359.5)"/><path class="h" d="M5347.808,3453.941l8.013,8.013,8.013-8.013" transform="translate(-4934 -3069.669)"/></g><g transform="translate(0 208)"><line class="g" y2="32.331" transform="translate(421.5 359.5)"/><path class="h" d="M5347.808,3453.941l8.013,8.013,8.013-8.013" transform="translate(-4934 -3069.669)"/></g><g transform="translate(-39.071 593.714) rotate(-90)"><line class="g" y2="34.117" transform="translate(421.5 359.5)"/><path class="h" d="M5347.808,3453.941l8.013,8.013,8.013-8.013" transform="translate(-4934 -3067.883)"/></g><g transform="translate(126.929 593.714) rotate(-90)"><line class="g" y2="34.117" transform="translate(421.5 359.5)"/><path class="h" d="M5347.808,3453.941l8.013,8.013,8.013-8.013" transform="translate(-4934 -3067.883)"/></g><g transform="translate(292.929 593.714) rotate(-90)"><line class="g" y2="34.117" transform="translate(421.5 359.5)"/><path class="h" d="M5347.808,3453.941l8.013,8.013,8.013-8.013" transform="translate(-4934 -3067.883)"/></g><g transform="translate(458.929 593.714) rotate(-90)"><line class="g" y2="34.117" transform="translate(421.5 359.5)"/><path class="h" d="M5347.808,3453.941l8.013,8.013,8.013-8.013" transform="translate(-4934 -3067.883)"/></g><g transform="translate(458.929 593.714) rotate(-90)"><line class="g" y2="34.117" transform="translate(421.5 359.5)"/><path class="h" d="M5347.808,3453.941l8.013,8.013,8.013-8.013" transform="translate(-4934 -3067.883)"/></g><g transform="translate(-167.107 -121.893)"><line class="g" y2="34.117" transform="translate(421.5 359.5)"/><path class="h" d="M5347.808,3453.941l8.013,8.013,8.013-8.013" transform="translate(-4934 -3067.883)"/></g><g transform="translate(-39.071 761.714) rotate(-90)"><line class="g" y2="34.117" transform="translate(421.5 359.5)"/><path class="h" d="M5347.808,3453.941l8.013,8.013,8.013-8.013" transform="translate(-4934 -3067.883)"/></g><g transform="translate(126.929 761.714) rotate(-90)"><line class="g" y2="34.117" transform="translate(421.5 359.5)"/><path class="h" d="M5347.808,3453.941l8.013,8.013,8.013-8.013" transform="translate(-4934 -3067.883)"/></g><g transform="translate(292.929 761.714) rotate(-90)"><line class="g" y2="34.117" transform="translate(421.5 359.5)"/><path class="h" d="M5347.808,3453.941l8.013,8.013,8.013-8.013" transform="translate(-4934 -3067.883)"/></g><g transform="translate(458.929 761.714) rotate(-90)"><line class="g" y2="34.117" transform="translate(421.5 359.5)"/><path class="h" d="M5347.808,3453.941l8.013,8.013,8.013-8.013" transform="translate(-4934 -3067.883)"/></g><g transform="translate(496.893 -121.893)"><line class="g" y2="34.117" transform="translate(421.5 359.5)"/><path class="h" d="M5347.808,3453.941l8.013,8.013,8.013-8.013" transform="translate(-4934 -3067.883)"/></g></g></svg>