<svg xmlns="http://www.w3.org/2000/svg" width="523" height="514" viewBox="0 0 523 514"><defs><style>.a,.d{fill:#eff8fd;}.a,.g,.h{stroke:#0079c1;}.b,.e{fill:#151515;font-size:13px;}.b,.f{font-family:Helvetica;}.c,.e{font-family:Helvetica-Bold, Helvetica;font-weight:700;}.f{font-weight:400;}.g,.h,.j{fill:none;}.h{stroke-linecap:round;stroke-linejoin:round;}.i{stroke:none;}</style></defs><g transform="translate(-9 -58)"><g transform="translate(-3)"><g class="a" transform="translate(12 58)"><rect class="i" width="99" height="94" rx="4"/><rect class="j" x="0.5" y="0.5" width="98" height="93" rx="3.5"/></g><text class="b" transform="translate(62 94)"><tspan x="-41.825" y="0">Определение</tspan><tspan class="c"><tspan x="-23.835" y="16">миссии</tspan></tspan><tspan x="-39.032" y="32">организации</tspan></text></g><g transform="translate(4)"><rect class="d" width="98" height="94" rx="4" transform="translate(118 58)"/><text class="b" transform="translate(167 94)"><tspan x="-41.825" y="0">Определение</tspan><tspan class="c"><tspan x="-19.411" y="16">целей</tspan></tspan><tspan x="-39.032" y="32">организации</tspan></text></g><g transform="translate(-4)"><rect class="d" width="68" height="94" rx="4" transform="translate(237 58)"/><text class="e" transform="translate(271 94)"><tspan x="-23.74" y="0">Анализ</tspan><tspan class="f"><tspan x="-26.87" y="16">внешней</tspan><tspan x="-19.113" y="32">среды</tspan></tspan></text></g><g transform="translate(-12)"><rect class="d" width="95" height="94" rx="4" transform="translate(327 58)"/><text class="e" transform="translate(375 87)"><tspan x="-23.74" y="0">Анализ</tspan><tspan class="f"><tspan x="-37.984" y="16">внутреннего</tspan><tspan x="-36.175" y="32">потенциала</tspan><tspan x="-39.032" y="48">организации</tspan></tspan></text></g><g transform="translate(-3)"><rect class="d" width="109" height="94" rx="4" transform="translate(426 58)"/><text class="e" transform="translate(480 94)"><tspan x="-23.74" y="0">Анализ</tspan><tspan class="f"><tspan x="-47.972" y="16">стратегических</tspan><tspan x="-38.908" y="32">альтернатив</tspan></tspan></text></g><g transform="translate(-3)"><g class="a" transform="translate(466 198)"><rect class="i" width="69" height="94" rx="4"/><rect class="j" x="0.5" y="0.5" width="68" height="93" rx="3.5"/></g><text class="e" transform="translate(501 242)"><tspan x="-20.224" y="0">Отбор</tspan><tspan x="-23.563" y="16">кадров</tspan></text></g><g transform="translate(17)"><rect class="d" width="95" height="94" rx="4" transform="translate(327 198)"/><text class="e" transform="translate(375 233)"><tspan x="-37.569" y="0">Разработка</tspan><tspan class="f"><tspan x="-41.583" y="16">оргструктуры</tspan><tspan x="-39.032" y="32">организации</tspan></tspan></text></g><g transform="translate(4)"><rect class="d" width="83" height="94" rx="4" transform="translate(232 198)"/><text class="b" transform="translate(274 242)"><tspan x="-37.086" y="0">Реализация</tspan><tspan class="c"><tspan x="-32.141" y="16">стратегии</tspan></tspan></text></g><g transform="translate(-9)"><rect class="d" width="104" height="94" rx="4" transform="translate(117 198)"/><text class="b" transform="translate(169 233)"><tspan x="-40.965" y="0">Оперативное</tspan><tspan class="c"><tspan x="-44.234" y="16">управление и</tspan><tspan x="-46.76" y="32">планирование</tspan></tspan></text></g><g transform="translate(-3)"><rect class="d" width="74" height="94" rx="4" transform="translate(12 198)"/><text class="b" transform="translate(49 239)"><tspan x="-23.172" y="0">Оценка</tspan><tspan x="-30.799" y="16">стратегии</tspan></text></g><ellipse class="d" cx="55" cy="54.5" rx="55" ry="54.5" transform="translate(105 323)"/><text class="b" transform="translate(160 381)"><tspan x="-25.232" y="0">Бюджет</tspan></text><circle class="d" cx="55" cy="55" r="55" transform="translate(105 462)"/><text class="b" transform="translate(160 513)"><tspan x="-37.112" y="0">Управление</tspan><tspan x="-28.05" y="16">по целям</tspan></text><g transform="translate(153 295.77)"><line class="g" y2="26.909" transform="translate(6.402)"/><path class="h" d="M5347.808,3453.941l6.669,6.669,6.669-6.669" transform="translate(-5347.808 -3433.323)"/></g><g transform="translate(153 435.263)"><line class="g" y2="26.909" transform="translate(6.402)"/><path class="h" d="M5347.808,3453.941l6.669,6.669,6.669-6.669" transform="translate(-5347.808 -3433.323)"/></g><path class="h" d="M0,0,6.669,6.669,13.339,0" transform="translate(111.453 112.678) rotate(-90)"/><path class="h" d="M0,0,6.669,6.669,13.339,0" transform="translate(223.423 112.678) rotate(-90)"/><path class="h" d="M0,0,6.669,6.669,13.339,0" transform="translate(304.877 112.678) rotate(-90)"/><path class="h" d="M0,0,6.669,6.669,13.339,0" transform="translate(413.877 112.678) rotate(-90)"/><g transform="translate(56.667 161)"><line class="g" y2="28.395" transform="translate(6.402)"/><path class="h" d="M5347.808,3453.941l6.669,6.669,6.669-6.669" transform="translate(-5347.808 -3431.837)"/></g><g transform="translate(69 252.5) rotate(-90)"><path class="h" d="M0,0,6.669,6.669,13.339,0" transform="translate(0 24.331)"/></g><g transform="translate(466.579 161)"><line class="g" y2="28.395" transform="translate(6.402)"/><path class="h" d="M5347.808,3453.941l6.669,6.669,6.669-6.669" transform="translate(-5347.808 -3431.837)"/></g><g transform="translate(196.669 252.5) rotate(-90)"><path class="h" d="M0,0,6.669,6.669,13.339,0" transform="translate(0 24.331)"/></g><g transform="translate(303.669 252.5) rotate(-90)"><path class="h" d="M0,0,6.669,6.669,13.339,0" transform="translate(0 24.331)"/></g><g transform="translate(423.669 252.5) rotate(-90)"><path class="h" d="M0,0,6.669,6.669,13.339,0" transform="translate(0 24.331)"/></g></g></svg>