<svg xmlns="http://www.w3.org/2000/svg" width="654" height="475.5" viewBox="0 0 654 475.5"><defs><style>.a,.d,.e,.f{fill:none;stroke:#0079c1;}.b{fill:#eff8fd;}.c{fill:#151515;font-size:16px;font-family:Helvetica;}.d,.f{stroke-linecap:round;}.d{stroke-linejoin:round;}.e{stroke-linecap:square;stroke-dasharray:3;}</style></defs><g transform="translate(-33 -27.5)"><rect class="a" width="461" height="209" rx="30" transform="translate(133 28)"/><g transform="translate(110)"><rect class="b" width="186" height="124" rx="15" transform="translate(391 70)"/><text class="c" transform="translate(486 128)"><tspan x="-71.895" y="0">Фирмы венчурного</tspan><tspan x="-64.652" y="19">финансирования</tspan></text><path class="d" d="M0,6.709,6.709,0l6.709,6.709" transform="translate(490.919 70.263) rotate(180)"/></g><g transform="translate(17)"><rect class="b" width="200" height="124" rx="15" transform="translate(16 70)"/><text class="c" transform="translate(116 113)"><tspan x="-83.008" y="0">Дирекция технопарка</tspan></text><line class="e" x2="198" transform="translate(16.5 132.5)"/><text class="c" transform="translate(115 163)"><tspan x="-69.906" y="0">Экспертный совет</tspan></text><path class="d" d="M5711.291,4331.263l6.709-6.709,6.709,6.709" transform="translate(-5601.791 -4131)"/></g><g transform="translate(19)"><rect class="b" width="174" height="108" rx="15" transform="translate(271 183)"/><text class="c" transform="translate(358 234)"><tspan x="-60.766" y="0">Инновационные</tspan><tspan x="-53.699" y="19">малые фирмы</tspan></text></g><path class="d" d="M0,6.709,6.709,0l6.709,6.709" transform="translate(464 243.618) rotate(-90)"/><g transform="translate(383.778 325) rotate(180)"><path class="d" d="M0,6.709,6.434,0l6.434,6.709" transform="translate(12.868 33.5) rotate(180)"/><line class="f" y1="86.237" transform="translate(6.448 -53.5)"/></g><g transform="translate(89 54)"><rect class="b" width="234" height="124" rx="15" transform="translate(171 325)"/><text class="c" transform="translate(288 353)"><tspan x="-93.094" y="0">Инфраструктура общего</tspan><tspan x="-48.352" y="19">пользования</tspan></text><line class="e" x2="231.75" transform="translate(172.077 387.5)"/><text class="c" transform="translate(288 411)"><tspan x="-62.676" y="0">Консалтинговые</tspan><tspan x="-36.844" y="19">компании</tspan></text></g><g transform="translate(63.935 15)"><rect class="b" width="186" height="124" rx="15" transform="translate(437.065 239)"/><text class="c" transform="translate(530.065 277)"><tspan x="-75.488" y="0">Исследовательские</tspan><tspan x="-51.297" y="19">лаборатории,</tspan><tspan x="-32.023" y="38">опытное</tspan><tspan x="-52.527" y="57">производство</tspan></text></g><g transform="translate(501 260.816) rotate(90)"><path class="d" d="M0,6.709,6.434,0l6.434,6.709" transform="translate(12.868 36.5) rotate(180)"/><line class="f" y1="35.737" transform="translate(6.448 0)"/></g></g></svg>