<svg xmlns="http://www.w3.org/2000/svg" width="676.196" height="481.815" viewBox="0 0 676.196 481.815"><defs><style>.a,.d{fill:none;stroke:#0079c1;}.b{fill:#eff8fd;}.c{fill:#151515;font-size:16px;font-family:Helvetica;}.d{stroke-linecap:round;stroke-linejoin:round;}</style></defs><g transform="translate(-41.35 -97)"><path class="a" d="M0,0S396.76.494,571.045.494" transform="translate(146.5 162.5)"/><rect class="b" width="159" height="131" rx="14" transform="translate(529.35 97)"/><text class="c" transform="translate(609.35 138)"><tspan x="-64.27" y="0">Идентификация </tspan><tspan x="-56.641" y="19">потребности в </tspan><tspan x="-45.195" y="38">инновации. </tspan><tspan x="-65.504" y="57">Уточнение целей</tspan></text><line class="a" x2="542.145" transform="translate(174.85 308.5)"/><rect class="b" width="159" height="131" rx="14" transform="translate(41.35 97)"/><text class="c" transform="translate(121.5 159)"><tspan x="-68.984" y="0">Прогнозирование </tspan><tspan x="-40.75" y="19">инноваций</tspan></text><circle class="b" cx="65.5" cy="65.5" r="65.5" transform="translate(376.582 243)"/><text class="c" transform="translate(442.582 305)"><tspan x="-46.637" y="0">Разработка </tspan><tspan x="-39.68" y="19">вариантов</tspan></text><path class="d" d="M0,6.709,6.709,0l6.709,6.709" transform="translate(225.647 155.815) rotate(90)"/><path class="d" d="M0,6.709,6.709,0l6.709,6.709" transform="translate(174.85 315.234) rotate(-90)"/><path class="d" d="M0,6.709,6.709,0l6.709,6.709" transform="translate(371.592 155.815) rotate(90)"/><path class="d" d="M0,6.709,6.709,0l6.709,6.709" transform="translate(529.517 155.815) rotate(90)"/><path class="d" d="M0,6.709,6.709,0l6.709,6.709" transform="translate(116.768 447.815) rotate(180)"/><circle class="b" cx="65.5" cy="65.5" r="65.5" transform="translate(226.438 97)"/><text class="c" transform="translate(291.294 159)"><tspan x="-55.234" y="0">Планирование</tspan><tspan x="-40.75" y="19">инноваций</tspan></text><circle class="b" cx="65.5" cy="65.5" r="65.5" transform="translate(371.918 97)"/><text class="c" transform="translate(437.807 148)"><tspan x="-27.586" y="0">Анализ</tspan><tspan x="-45.734" y="19">проблемной</tspan><tspan x="-35.02" y="38">ситуации</tspan></text><circle class="b" cx="65.5" cy="65.5" r="65.5" transform="translate(207.294 243)"/><text class="c" transform="translate(273.294 284)"><tspan x="-26.684" y="0">Выбор </tspan><tspan x="-35.375" y="19">решения </tspan><tspan x="-49.695" y="38">(наилучшего </tspan><tspan x="-37.961" y="57">варианта)</tspan></text><circle class="b" cx="65.5" cy="65.5" r="65.5" transform="translate(43.85 447.815)"/><text class="c" transform="translate(109.85 498.815)"><tspan x="-35.723" y="0">Контроль</tspan><tspan x="-35.859" y="19">и оценка </tspan><tspan x="-46.77" y="38">результатов</tspan></text><path class="d" d="M0,6.709,6.709,0l6.709,6.709" transform="translate(338.294 315.234) rotate(-90)"/><path class="d" d="M0,6.709,6.709,0l6.709,6.709" transform="translate(504.582 315.234) rotate(-90)"/><line class="a" y2="146" transform="translate(716.994 162.5)"/><rect class="b" width="136" height="131" rx="14" transform="translate(536.351 245)"/><text class="c" transform="translate(605.639 286)"><tspan x="-53.699" y="0">Определение </tspan><tspan x="-42.121" y="19">критериев </tspan><tspan x="-30.18" y="38">выбора </tspan><tspan x="-39.68" y="57">вариантов</tspan></text><path class="d" d="M0,6.709,6.709,0l6.709,6.709" transform="translate(671.995 315.234) rotate(-90)"/><line class="a" y1="127.5" transform="translate(110.059 320.315)"/><circle class="b" cx="65.5" cy="65.5" r="65.5" transform="translate(43.85 243)"/><text class="c" transform="translate(109.471 294)"><tspan x="-49.609" y="0">Организация</tspan><tspan x="-48.355" y="19">выполнения </tspan><tspan x="-33.152" y="38">решения</tspan></text></g></svg>