<svg xmlns="http://www.w3.org/2000/svg" width="651" height="600" viewBox="0 0 651 600"><defs><style>.a,.b,.l{fill:none;}.a,.b,.c{stroke:#0079c1;}.b{stroke-linecap:round;stroke-linejoin:round;}.c{fill:#fff;}.d{fill:#d9d9d9;font-size:13px;letter-spacing:0.6em;}.d,.e,.g,.j{font-family:Helvetica;}.e{fill:#0079c1;}.e,.g,.j{font-size:12px;}.f,.h{fill:#ee2a24;font-family:Roboto-Black, Roboto;font-weight:800;}.f{font-size:10px;}.g{fill:#646464;}.h{font-size:16px;}.i{fill:#eff8fd;}.j{fill:#151515;}.k{stroke:none;}</style></defs><g transform="translate(-52 -7)"><line class="a" y1="180.446" transform="translate(517.5 194.972) rotate(90)"/><line class="a" y1="180.446" transform="translate(517.5 271.14) rotate(90)"/><g class="a" transform="translate(517.5 136.5) rotate(90)"><path class="k" d="M14,0H328.89a14,14,0,0,1,14,14V180.5a0,0,0,0,1,0,0H0a0,0,0,0,1,0,0V14A14,14,0,0,1,14,0Z"/><path class="l" d="M14-.5H328.89A14.5,14.5,0,0,1,343.39,14V180.5a.5.5,0,0,1-.5.5H0a.5.5,0,0,1-.5-.5V14A14.5,14.5,0,0,1,14-.5Z"/></g><line class="a" y2="412" transform="translate(336.5 103.5)"/><path class="b" d="M0,5.634,5.634,0l5.634,5.634" transform="translate(342.134 290.873) rotate(180)"/><g class="c" transform="translate(339.5 132.5) rotate(90)"><circle class="k" cx="3" cy="3" r="3"/><circle class="l" cx="3" cy="3" r="2.5"/></g><g class="c" transform="translate(339.5 191.6) rotate(90)"><circle class="k" cx="3" cy="3" r="3"/><circle class="l" cx="3" cy="3" r="2.5"/></g><g class="c" transform="translate(339.5 267.895) rotate(90)"><circle class="k" cx="3" cy="3" r="3"/><circle class="l" cx="3" cy="3" r="2.5"/></g><text class="d" transform="translate(535.5 314.16) rotate(90)"><tspan x="-80.984" y="0">ПРЕРЫВАНИЕ</tspan></text><text class="e" transform="translate(269 172)"><tspan x="-208.301" y="0">Перечень: цели, требования, задачи</tspan></text><text class="e" transform="translate(240 225)"><tspan x="-146.18" y="0">Требования к разработке</tspan><tspan x="-129.404" y="14">анализ выполнимости,</tspan><tspan x="-158.15" y="28">альтернативные концепции</tspan></text><text class="e" transform="translate(240 301)"><tspan x="-149.127" y="0">Спецификации, чертежи, </tspan><tspan x="-100.43" y="14">детальные планы</tspan></text><text class="f" transform="translate(326 198.1)"><tspan x="-1.379" y="0">!</tspan></text><text class="f" transform="translate(326 273.395)"><tspan x="-1.379" y="0">!</tspan></text><text class="g" transform="translate(512 34)"><tspan x="-35.476" y="0">Прерывание</tspan></text><g class="c" transform="translate(437 24)"><circle class="k" cx="6.5" cy="6.5" r="6.5"/><circle class="l" cx="6.5" cy="6.5" r="6"/></g><line class="a" x1="19.313" transform="translate(450.001 30.9)"/><text class="g" transform="translate(588 59)"><tspan x="-114.478" y="0">Решение о переходе к следующей фазе</tspan></text><text class="h" transform="translate(443 60)"><tspan x="-2.207" y="0">!</tspan></text><line class="a" y1="180.446" transform="translate(517.5 343.778) rotate(90)"/><line class="a" y1="180.446" transform="translate(517.5 408.812) rotate(90)"/><path class="b" d="M0,5.634,5.634,0l5.634,5.634" transform="translate(342.134 424.225) rotate(180)"/><g class="c" transform="translate(339.5 340.5) rotate(90)"><circle class="k" cx="3" cy="3" r="3"/><circle class="l" cx="3" cy="3" r="2.5"/></g><g class="c" transform="translate(339.5 405.5) rotate(90)"><circle class="k" cx="3" cy="3" r="3"/><circle class="l" cx="3" cy="3" r="2.5"/></g><g class="c" transform="translate(339.5 476.39) rotate(90)"><circle class="k" cx="3" cy="3" r="3"/><circle class="l" cx="3" cy="3" r="2.5"/></g><text class="e" transform="translate(240 370)"><tspan x="-187.77" y="0">Рабочая документация, закупки </tspan><tspan x="-112.986" y="14">испытания приёмка</tspan></text><text class="e" transform="translate(240 431.591)"><tspan x="-160.658" y="0">Использование результатов</tspan><tspan x="-117.34" y="14">проекта, техническо</tspan><tspan x="-82.195" y="28">обслуживание</tspan></text><text class="e" transform="translate(240 549)"><tspan x="-171.498" y="0">Демонтаж продажа, решение </tspan><tspan x="-148.119" y="14">развитии (новом проекте)</tspan></text><text class="f" transform="translate(326 347)"><tspan x="-1.379" y="0">!</tspan></text><text class="f" transform="translate(326 412)"><tspan x="-1.379" y="0">!</tspan></text><text class="f" transform="translate(326 482)"><tspan x="-1.379" y="0">!</tspan></text><rect class="i" width="92" height="29" rx="14.5" transform="translate(291 153)"/><text class="j" transform="translate(337 172)"><tspan x="-20.689" y="0">Анализ</tspan></text><rect class="i" width="165" height="30" rx="15" transform="translate(254 221)"/><text class="j" transform="translate(337 241)"><tspan x="-65.464" y="0">Разработка концепции</tspan></text><path class="b" d="M0,5.634,5.634,0l5.634,5.634" transform="translate(342.134 152.412) rotate(180)"/><path class="b" d="M0,5.634,5.634,0l5.634,5.634" transform="translate(342.134 221) rotate(180)"/><rect class="i" width="165" height="30" rx="15" transform="translate(254 291.16)"/><text class="j" transform="translate(338.268 311.16)"><tspan x="-57.949" y="0">Разработка проекта</tspan></text><rect class="i" width="165" height="30" rx="15" transform="translate(254 358.721)"/><text class="j" transform="translate(338.268 378.721)"><tspan x="-58.872" y="0">Реализация проекта</tspan></text><path class="b" d="M0,5.634,5.634,0l5.634,5.634" transform="translate(342.134 358.352) rotate(180)"/><rect class="i" width="165" height="30" rx="15" transform="translate(254 424.512)"/><text class="j" transform="translate(334.871 444.512)"><tspan x="-40.351" y="0">Эксплуатация</tspan></text><path class="b" d="M0,5.634,5.634,0l5.634,5.634" transform="translate(342.134 497) rotate(180)"/><circle class="i" cx="55" cy="55" r="55" transform="translate(282 7)"/><text class="j" transform="translate(336.5 59)"><tspan x="-25.444" y="0">Замысел</tspan><tspan x="-29.473" y="14">инвестора</tspan></text><circle class="i" cx="55" cy="55" r="55" transform="translate(282 497)"/><text class="j" transform="translate(337.871 557)"><tspan x="-34.942" y="0">Ликвидация</tspan></text></g></svg>