<svg xmlns="http://www.w3.org/2000/svg" width="761" height="434" viewBox="0 0 761 434"><defs><style>.a,.g{fill:none;}.a,.b{stroke:#0079c1;}.a{stroke-dasharray:3;}.b,.e{fill:#eff8fd;}.c{fill:#151515;font-size:16px;font-family:Roboto-Bold, Roboto;font-weight:700;}.d{font-family:Roboto-Regular, Roboto;font-weight:400;}.f{stroke:none;}</style></defs><g transform="translate(-16 -95)"><g class="a" transform="translate(217 137)"><ellipse class="f" cx="180" cy="179" rx="180" ry="179"/><ellipse class="g" cx="180" cy="179" rx="179.5" ry="178.5"/></g><g transform="translate(223.068 95)"><g class="b" transform="translate(-0.068)"><rect class="f" width="347" height="83" rx="15"/><rect class="g" x="0.5" y="0.5" width="346" height="82" rx="14.5"/></g><text class="c" transform="translate(158.932 47)"><tspan x="-126.77" y="0" xml:space="preserve">ИННОВАЦИОННЫЙ  ПОТЕНЦИАЛ</tspan></text></g><g transform="translate(223.068 446.069)"><g class="b" transform="translate(-0.068 -0.069)"><rect class="f" width="347" height="83" rx="15"/><rect class="g" x="0.5" y="0.5" width="346" height="82" rx="14.5"/></g><text class="c" transform="translate(161.932 34.931)"><tspan x="-93.34" y="0">НАУЧНО-ТЕХНИЧЕСКИЙ</tspan><tspan x="-48.793" y="19">ПОТЕНЦИАЛ</tspan></text></g><line class="a" x2="220.115" transform="translate(286.875 259.257)"/><line class="a" x1="220.115" transform="translate(286.875 375.398)"/><line class="a" y2="113.929" transform="translate(396.5 261.469)"/><text class="c" transform="translate(176 241)"><tspan x="-81.027" y="0">Кадровый потенциал</tspan><tspan class="d"><tspan x="-115.543" y="21">(общее руководство системой</tspan><tspan x="-77.223" y="42">и стиль управления)</tspan></tspan></text><g transform="translate(16 217.979)"><rect class="e" width="346" height="83" rx="15" transform="translate(0 0.021)"/><text class="c" transform="translate(160 23.021)"><tspan x="-81.027" y="0">Кадровый потенциал</tspan><tspan class="d"><tspan x="-115.543" y="21">(общее руководство системой</tspan><tspan x="-77.223" y="42">и стиль управления)</tspan></tspan></text></g><g transform="translate(431.186 217.979)"><rect class="e" width="346" height="83" rx="15" transform="translate(-0.186 0.021)"/><text class="c" transform="translate(161.813 37.021)"><tspan x="-106.434" y="0">Финансово-экономический </tspan><tspan x="-39.883" y="19">потенциал</tspan></text></g><g transform="translate(16 332.55)"><rect class="e" width="346" height="83" rx="15" transform="translate(0 0.45)"/><text class="c" transform="translate(160 23.45)"><tspan x="-113.188" y="0">Организационный потенциал </tspan><tspan class="d"><tspan x="-101.445" y="21">(оргструктура, технологии </tspan><tspan x="-118.168" y="42">по всем функциям и проектам)</tspan></tspan></text></g><g transform="translate(431.186 332.55)"><rect class="e" width="346" height="83" rx="15" transform="translate(-0.186 0.45)"/><text class="c" transform="translate(161.813 36.45)"><tspan x="-70.66" y="0">Производсвтенно-</tspan><tspan x="-106.566" y="19">технологический потенциал</tspan></text></g></g></svg>