<svg xmlns="http://www.w3.org/2000/svg" width="964" height="421.5" viewBox="0 0 964 421.5"><defs><style>.a,.d,.e,.f{fill:none;stroke:#0079c1;}.b{fill:#eff8fd;}.c{fill:#151515;font-size:16px;font-family:Helvetica;}.d{stroke-linecap:square;stroke-dasharray:3;}.e,.f{stroke-linecap:round;}.e{stroke-linejoin:round;}</style></defs><g transform="translate(-87 -96.5)"><rect class="a" width="437" height="209" rx="30" transform="translate(347 97)"/><rect class="b" width="313" height="124" rx="15" transform="translate(87 139)"/><rect class="b" width="174" height="108" rx="15" transform="translate(479 252)"/><text class="c" transform="translate(242 182)"><tspan x="-83.008" y="0">Дирекция технопарка</tspan></text><line class="d" x2="311" transform="translate(87.5 201.5)"/><text class="c" transform="translate(242 232)"><tspan x="-69.906" y="0">Экспертный совет</tspan></text><rect class="b" width="313" height="124" rx="15" transform="translate(738 139)"/><text class="c" transform="translate(903 197)"><tspan x="-71.895" y="0">Фирмы венчурного</tspan><tspan x="-64.652" y="19">финансирования</tspan></text><path class="e" d="M5711.291,4331.263l6.709-6.709,6.709,6.709" transform="translate(6502 4463.816) rotate(180)"/><path class="e" d="M5711.291,4331.263l6.709-6.709,6.709,6.709" transform="translate(-5371 -4062)"/><text class="c" transform="translate(566 303)"><tspan x="-60.766" y="0">Инновационные</tspan><tspan x="-53.699" y="19">малые фирмы</tspan></text><path class="e" d="M5711.291,4331.263l6.709-6.709,6.709,6.709" transform="translate(-3671.908 6023.908) rotate(-90)"/><rect class="b" width="313" height="124" rx="15" transform="translate(414 394)"/><text class="c" transform="translate(569 437)"><tspan x="-143.668" y="0">Инфраструктура общего пользования</tspan></text><line class="d" x2="311" transform="translate(414.5 456.5)"/><g transform="translate(704.971 566.5) rotate(180)"><path class="e" d="M0,6.709,6.434,0l6.434,6.709" transform="translate(141.919 206) rotate(180)"/><line class="f" y1="32.737" transform="translate(135.5 172.5)"/></g><text class="c" transform="translate(569 489)"><tspan x="-101.742" y="0">Консалтинговые компании</tspan></text><rect class="b" width="228" height="124" rx="15" transform="translate(784 308)"/><text class="c" transform="translate(903 356)"><tspan x="-75.488" y="0">Исследовательские</tspan><tspan x="-51.297" y="19">лаборатории,</tspan><tspan x="-86.773" y="38">опытное производство</tspan></text><g transform="translate(956.5 192.765) rotate(90)"><path class="e" d="M0,6.709,6.434,0l6.434,6.709" transform="translate(141.919 304.188) rotate(180)"/><line class="f" y1="130.925" transform="translate(135.5 172.5)"/></g></g></svg>