<svg xmlns="http://www.w3.org/2000/svg" width="1105.5" height="356" viewBox="0 0 1105.5 356"><defs><style>.a,.d,.k{fill:none;}.a,.d,.e{stroke:#0079c1;}.b{fill:#eff8fd;}.c{fill:#151515;}.c,.f,.g,.h,.i{font-size:16px;}.c,.f,.g,.h{font-family:Helvetica;}.d{stroke-linecap:round;stroke-linejoin:round;}.e{fill:#fff;}.f{fill:#d9d9d9;letter-spacing:0.6em;}.g{fill:#0079c1;}.h{fill:#646464;}.i{fill:#ee2a24;font-family:Roboto-Black, Roboto;font-weight:800;}.j{stroke:none;}</style></defs><g transform="translate(-15 -90)"><line class="a" y1="83.661" transform="translate(321.5 189.839)"/><line class="a" y1="83.661" transform="translate(484.5 189.839)"/><line class="a" y1="83.661" transform="translate(646.5 189.839)"/><line class="a" y1="83.661" transform="translate(808.5 189.839)"/><g class="a" transform="translate(160 191)"><path class="j" d="M14,0H798a14,14,0,0,1,14,14V82a0,0,0,0,1,0,0H0a0,0,0,0,1,0,0V14A14,14,0,0,1,14,0Z"/><path class="k" d="M14-.5H798A14.5,14.5,0,0,1,812.5,14V82a.5.5,0,0,1-.5.5H0A.5.5,0,0,1-.5,82V14A14.5,14.5,0,0,1,14-.5Z"/></g><line class="a" x2="843" transform="translate(146.5 273.5)"/><circle class="b" cx="65.5" cy="65.5" r="65.5" transform="translate(15 208)"/><text class="c" transform="translate(80.5 270)"><tspan x="-36.148" y="0">Замысел </tspan><tspan x="-39.297" y="19">инвестора</tspan></text><circle class="b" cx="65.5" cy="65.5" r="65.5" transform="translate(989 208)"/><text class="c" transform="translate(1054.5 280)"><tspan x="-46.59" y="0">Ликвидация</tspan></text><path class="d" d="M0,6.709,6.709,0l6.709,6.709" transform="translate(176.855 266.815) rotate(90)"/><path class="d" d="M0,6.709,6.709,0l6.709,6.709" transform="translate(339.855 266.815) rotate(90)"/><path class="d" d="M0,6.709,6.709,0l6.709,6.709" transform="translate(501.855 266.815) rotate(90)"/><path class="d" d="M0,6.709,6.709,0l6.709,6.709" transform="translate(663.855 266.815) rotate(90)"/><path class="d" d="M0,6.709,6.709,0l6.709,6.709" transform="translate(826.855 266.815) rotate(90)"/><path class="d" d="M0,6.709,6.709,0l6.709,6.709" transform="translate(988.855 266.815) rotate(90)"/><g class="e" transform="translate(156 270)"><circle class="j" cx="3.5" cy="3.5" r="3.5"/><circle class="k" cx="3.5" cy="3.5" r="3"/></g><g class="e" transform="translate(318 270)"><circle class="j" cx="3.5" cy="3.5" r="3.5"/><circle class="k" cx="3.5" cy="3.5" r="3"/></g><g class="e" transform="translate(481 270)"><circle class="j" cx="3.5" cy="3.5" r="3.5"/><circle class="k" cx="3.5" cy="3.5" r="3"/></g><g class="e" transform="translate(643 270)"><circle class="j" cx="3.5" cy="3.5" r="3.5"/><circle class="k" cx="3.5" cy="3.5" r="3"/></g><g class="e" transform="translate(805 270)"><circle class="j" cx="3.5" cy="3.5" r="3.5"/><circle class="k" cx="3.5" cy="3.5" r="3"/></g><g class="e" transform="translate(969 270)"><circle class="j" cx="3.5" cy="3.5" r="3.5"/><circle class="k" cx="3.5" cy="3.5" r="3"/></g><circle class="b" cx="65.5" cy="65.5" r="65.5" transform="translate(177 208)"/><text class="c" transform="translate(242.5 283)"><tspan x="-27.586" y="0">Анализ</tspan></text><circle class="b" cx="65.5" cy="65.5" r="65.5" transform="translate(340 208)"/><text class="c" transform="translate(405.5 270)"><tspan x="-44.414" y="0">Разработка</tspan><tspan x="-40.648" y="19">концепции</tspan></text><circle class="b" cx="65.5" cy="65.5" r="65.5" transform="translate(502 208)"/><text class="c" transform="translate(567.5 270)"><tspan x="-44.414" y="0">Разработка</tspan><tspan x="-30.629" y="19">проекта</tspan></text><circle class="b" cx="65.5" cy="65.5" r="65.5" transform="translate(664 208)"/><text class="c" transform="translate(729.5 268)"><tspan x="-47.867" y="0">Реализация </tspan><tspan x="-30.629" y="19">проекта</tspan></text><circle class="b" cx="65.5" cy="65.5" r="65.5" transform="translate(827 208)"/><text class="c" transform="translate(892.5 280)"><tspan x="-53.801" y="0">Эксплуатация</tspan></text><text class="f" transform="translate(570 177)"><tspan x="-99.673" y="0">ПРЕРЫВАНИЕ</tspan></text><text class="g" transform="translate(242.5 366)"><tspan x="-63.492" y="0">Перечень: цели, </tspan><tspan x="-48.656" y="19">требования, </tspan><tspan x="-26.719" y="38">задачи</tspan></text><text class="g" transform="translate(406 366)"><tspan x="-53.926" y="0">Требования к </tspan><tspan x="-76.805" y="19">разработке, анализ </tspan><tspan x="-59.66" y="38">выполнимости, </tspan><tspan x="-64.785" y="57">альтернативные </tspan><tspan x="-40.648" y="76">концепции</tspan></text><text class="g" transform="translate(570 366)"><tspan x="-62.414" y="0">Спецификации, </tspan><tspan x="-37.004" y="19">чертежи, </tspan><tspan x="-43.234" y="38">детальные </tspan><tspan x="-23.719" y="57">планы</tspan></text><text class="g" transform="translate(730 366)"><tspan x="-34.125" y="0">Рабочая </tspan><tspan x="-58.5" y="19">документация, </tspan><tspan x="-34.777" y="38">закупки, </tspan><tspan x="-45.371" y="57">испытания, </tspan><tspan x="-32.176" y="76">приёмка</tspan></text><text class="g" transform="translate(893 366)"><tspan x="-60.336" y="0">Использование </tspan><tspan x="-48.992" y="19">результатов </tspan><tspan x="-35.074" y="38">проекта, </tspan><tspan x="-49.824" y="57">техническое </tspan><tspan x="-54.797" y="76">обслуживание</tspan></text><text class="g" transform="translate(1054.5 366)"><tspan x="-43.418" y="0">Демонтаж, </tspan><tspan x="-40" y="19" xml:space="preserve">продажа,  </tspan><tspan x="-42.031" y="38">решение о </tspan><tspan x="-65.453" y="57">развитии (новом </tspan><tspan x="-33.293" y="76">проекте)</tspan></text><text class="h" transform="translate(160 103)"><tspan x="-47.301" y="0">Прерывание</tspan></text><g class="e" transform="translate(65 90)"><circle class="j" cx="8" cy="8" r="8"/><circle class="k" cx="8" cy="8" r="7.5"/></g><line class="a" x1="23" transform="translate(80.5 98.5)"/><text class="h" transform="translate(266 134)"><tspan x="-152.637" y="0">Решение о переходе к следующей фазе</tspan></text><text class="i" transform="translate(73 134)"><tspan x="-2.207" y="0">!</tspan></text><text class="i" transform="translate(322 295)"><tspan x="-2.207" y="0">!</tspan></text><text class="i" transform="translate(484 295)"><tspan x="-2.207" y="0">!</tspan></text><text class="i" transform="translate(647 295)"><tspan x="-2.207" y="0">!</tspan></text><text class="i" transform="translate(809 295)"><tspan x="-2.207" y="0">!</tspan></text><text class="i" transform="translate(972 295)"><tspan x="-2.207" y="0">!</tspan></text></g></svg>