<svg xmlns="http://www.w3.org/2000/svg" width="891" height="381" viewBox="0 0 891 381"><defs><style>.a,.f{fill:#eff8fd;}.b,.g{fill:#151515;font-size:16px;}.b{font-family:Helvetica;}.c,.d,.e,.i{fill:none;}.c,.d,.e,.f{stroke:#0079c1;}.c,.d{stroke-linecap:round;}.c{stroke-linejoin:round;}.g{font-family:Helvetica-Bold, Helvetica;font-weight:700;}.h{stroke:none;}</style></defs><g transform="translate(-44 -40)"><g transform="translate(118 290)"><circle class="a" cx="65.5" cy="65.5" r="65.5"/><text class="b" transform="translate(66 51)"><tspan x="-26.336" y="0">Отдел </tspan><tspan x="-33.219" y="19">главного</tspan><tspan x="-51.461" y="38">конструктора</tspan></text></g><g transform="translate(297.188 290)"><circle class="a" cx="65.5" cy="65.5" r="65.5" transform="translate(-0.188)"/><text class="b" transform="translate(65.812 51)"><tspan x="-26.336" y="0">Отдел </tspan><tspan x="-33.219" y="19">главного</tspan><tspan x="-38.063" y="38">технолога</tspan></text></g><path class="c" d="M0,6.709,6.434,0l6.434,6.709" transform="translate(327.02 302.683) rotate(150)"/><line class="d" y1="46.759" transform="translate(296.831 264.737) rotate(-30)"/><path class="c" d="M0,6.709,6.434,0l6.434,6.709" transform="translate(230.196 309.116) rotate(-150)"/><line class="d" y1="46.759" transform="translate(248.65 264.751) rotate(30)"/><path class="c" d="M0,6.709,6.434,0l6.434,6.709" transform="translate(877.524 148) rotate(180)"/><line class="d" y1="32.737" transform="translate(871.105 114.5)"/><rect class="e" width="437" height="137" rx="30" transform="translate(275 77)"/><g transform="translate(44 40)"><g class="f"><rect class="h" width="342" height="75" rx="15"/><rect class="i" x="0.5" y="0.5" width="341" height="74" rx="14.5"/></g><text class="g" transform="translate(172 43)"><tspan x="-151.961" y="0">ИННОВАЦИОННОЕ ПОДРАЗДЕЛЕНИЕ</tspan></text></g><g transform="translate(597.153 40)"><rect class="a" width="313" height="75" rx="15" transform="translate(-0.153)"/><text class="g" transform="translate(155.847 34)"><tspan x="-105.852" y="0">СЛУЖБА ПО ВНЕДРЕНИЮ</tspan><tspan x="-123.313" y="19">И СБЫТУ НОВОЙ ПРОДУКЦИИ</tspan></text></g><g transform="translate(804.153 148)"><circle class="a" cx="65.5" cy="65.5" r="65.5" transform="translate(-0.153)"/><text class="b" transform="translate(65.847 62)"><tspan x="-56.203" y="0">Участок новых</tspan><tspan x="-48.078" y="19">производств</tspan></text></g><g transform="translate(44 148)"><circle class="a" cx="65.5" cy="65.5" r="65.5"/><text class="b" transform="translate(66 62)"><tspan x="-44.578" y="0">Договорной</tspan><tspan x="-22.34" y="19">отдел</tspan></text></g><g transform="translate(209.776 148)"><circle class="a" cx="65.5" cy="65.5" r="65.5" transform="translate(0.224)"/><text class="b" transform="translate(66.224 62)"><tspan x="-48.504" y="0">Техническая</tspan><tspan x="-27.73" y="19">служба</tspan></text></g><path class="c" d="M5711.291,4331.263l6.709-6.709,6.709,6.709" transform="translate(-5006 -4210)"/><path class="c" d="M0,6.709,6.709,0l6.709,6.709" transform="translate(597 70.199) rotate(90)"/><path class="c" d="M0,6.709,6.709,0l6.709,6.709" transform="translate(386 83.618) rotate(-90)"/><path class="c" d="M0,6.709,6.709,0l6.709,6.709" transform="translate(281 148.263) rotate(180)"/><path class="c" d="M0,6.709,6.434,0l6.434,6.709" transform="translate(115.919 148) rotate(180)"/><line class="d" y1="32.737" transform="translate(109.5 114.5)"/></g></svg>