<svg xmlns="http://www.w3.org/2000/svg" width="517" height="428.5" viewBox="0 0 517 428.5"><defs><style>.a,.d,.e,.f{fill:none;stroke:#0079c1;}.b{fill:#eff8fd;}.c{fill:#151515;font-size:16px;font-family:Helvetica;}.d{stroke-linecap:square;stroke-dasharray:3;}.e,.f{stroke-linecap:round;}.e{stroke-linejoin:round;}</style></defs><g transform="translate(-10 -27.5)"><rect class="a" width="383" height="209" rx="30" transform="translate(71 28)"/><g transform="translate(10)"><rect class="b" width="122" height="124" rx="15" transform="translate(0 70)"/><text class="c" transform="translate(61 100)"><tspan x="-37.258" y="0">Дирекция</tspan><tspan x="-43.527" y="19">технопарка</tspan></text><line class="d" x2="121.453" transform="translate(0.5 132.5)"/><text class="c" transform="translate(61 160)"><tspan x="-46.402" y="0">Экспертный</tspan><tspan x="-21.281" y="19">совет</tspan></text></g><path class="e" d="M5711.291,4331.263l6.709-6.709,6.709,6.709" transform="translate(-5647 -4130.553)"/><g transform="translate(-39)"><rect class="b" width="156" height="108" rx="15" transform="translate(185 183)"/><text class="c" transform="translate(261 234)"><tspan x="-60.766" y="0">Инновационные</tspan><tspan x="-53.699" y="19">малые фирмы</tspan></text></g><path class="e" d="M0,6.709,6.709,0l6.709,6.709" transform="translate(302.309 243.618) rotate(-90)"/><g transform="translate(231 325) rotate(180)"><path class="e" d="M0,6.709,6.434,0l6.434,6.709" transform="translate(12.868 33.5) rotate(180)"/><line class="f" y1="32.737" transform="translate(6.448)"/></g><g transform="translate(414.691 259.816) rotate(90)"><path class="e" d="M0,6.709,6.434,0l6.434,6.709" transform="translate(12.868 112.691) rotate(180)"/><line class="f" y1="111.928" transform="translate(6.448)"/></g><g transform="translate(-5130 -5207)"><rect class="b" width="165" height="124" rx="15" transform="translate(5492 5277)"/><text class="c" transform="translate(5576 5324)"><tspan x="-27.066" y="0">Фирмы</tspan><tspan x="-42.605" y="19">венчурного</tspan><tspan x="-64.652" y="38">финансирования</tspan></text></g><g transform="translate(-63)"><rect class="b" width="169" height="131" rx="15" transform="translate(202 325)"/><text class="c" transform="translate(288 348)"><tspan x="-63.512" y="0">Инфраструктура</tspan><tspan x="-27.359" y="19">общего</tspan><tspan x="-48.352" y="38">пользования</tspan></text><line class="d" x2="169" transform="translate(202.5 399)"/><text class="c" transform="translate(288 420)"><tspan x="-62.676" y="0">Консалтинговые</tspan><tspan x="-36.844" y="19">компании</tspan></text></g><path class="e" d="M0,6.709,6.709,0l6.709,6.709" transform="translate(461.031 70.263) rotate(180)"/><g transform="translate(-5191 -5194.184)"><rect class="b" width="180" height="110" rx="15" transform="translate(5538 5446.184)"/><text class="c" transform="translate(5628 5477.184)"><tspan x="-75.488" y="0">Исследовательские</tspan><tspan x="-51.297" y="19">лаборатории,</tspan><tspan x="-32.023" y="38">опытное</tspan><tspan x="-52.527" y="57">производство</tspan></text></g></g></svg>