<svg xmlns="http://www.w3.org/2000/svg" width="496.08" height="309.189" viewBox="0 0 496.08 309.189"><defs><style>.a{fill:#0079c1;}.b{fill:#fff;}.c{fill:#b0bfde;}.d{fill:#e4efff;}.e{fill:#d1dbea;}.ac,.f,.g,.i,.l,.t{fill:none;stroke-miterlimit:10;}.ac,.f{stroke:#fff;}.f{stroke-width:2.68px;}.g{stroke:#d1dbea;stroke-width:4.008px;}.h{fill:#194866;}.i{stroke:#3bb6d5;stroke-width:1.799px;}.j{fill:#3bb6d5;}.k{fill:#0c1153;}.l{stroke:#0c1153;stroke-width:1.813px;}.m{isolation:isolate;}.n{fill:#ffc910;}.o{fill:#ffab01;}.p{fill:#f99b0f;}.q{fill:#ffca10;}.r{fill:#fec12f;}.s{fill:#3d7aa8;}.t{stroke:#f4da80;stroke-width:9.712px;}.u{fill:#34688f;}.v{fill:#163f59;}.w{fill:#593446;}.x{fill:#081832;}.y{fill:#e2c59c;}.z{fill:#e9d6b8;}.aa{fill:#161711;}.ab{fill:#fdbf14;}.ac{stroke-width:5.359px;}</style></defs><g transform="translate(-914.93 -325.133)"><g transform="translate(1137.932 368.967)"><path class="a" d="M1467.43,629.283a4.476,4.476,0,0,0,4.476,4.476h2.983l10.444,10.442V633.759h34.315a4.475,4.475,0,0,0,4.476-4.476v-37.3a4.475,4.475,0,0,0-4.476-4.477h-47.742a4.477,4.477,0,0,0-4.476,4.477Z" transform="translate(-1467.43 -587.507)"/><rect class="b" width="38.792" height="2.985" transform="translate(8.951 13.429)"/><rect class="b" width="38.792" height="2.981" transform="translate(8.951 20.889)"/><rect class="b" width="38.792" height="2.983" transform="translate(8.951 28.348)"/></g><path class="c" d="M1569.309,915.529c15.158-10.615,2.633-13.353-12.069-12.442,6.73-7.441,1.939-13.931-16.049-20.476-8.075-2.938-17.567-.469-26.736,4.461-8.066-13.389-18.419-22.273-29.463-16.5-9.13,4.77-15.787,10.289-19.809,16q-4.452-1.466-9.559-2.682c-7.406-1.753-12.706.224-16.361,4.4-14.749-7.432-29.479-11.447-37.659-5.274-14.223,10.734-15.706,19.249-5.583,27.016-14.662,1.314-25.448,6.622-5.637,16.794-17.547-.864-29.9,1.622-21.871,11.512,17.9,22.05,96.355,21.5,154.169,7.717,36.757-4.007,67.064-12.392,72.321-24.387C1598.874,912.839,1585.942,912.526,1569.309,915.529Z" transform="translate(-269.014 -386.284)"/><path class="d" d="M1160.084,1033.363c73.866-4.134,138.849-2.417,181.676,1.816,43.2,4.335,64.213,11.183,58.433,19.677-5.795,8.57-36.761,17.771-78.4,27.317-41.921,9.437-94.517,19.224-150.68,26.483-109.411,14.84-212.844,10.793-239.4-13.005C904.962,1072.009,1009.1,1041.046,1160.084,1033.363Z" transform="translate(-7.508 -483.027)"/><path class="e" d="M1950.873,1021.691s30.637-8.962,22.174-26.368c-7.923-16.293-23.971,5.394-25.17,11.986s16.78-17.379,6.592-21.574-30.563,13.783-29.365,20.974,20.974-17.379,7.191-25.769-18.576,9.589-17.978,19.178,7.791-20.376-1.8-21.573-11.985,19.176-10.188,22.772,10.188-28.166-7.791-26.369-9.589,19.176-7.191,22.773,0-25.17-17.978-16.181-7.79,36.556,7.79,37.155S1950.873,1021.691,1950.873,1021.691Z" transform="translate(-563.515 -449.556)"/><g transform="translate(1200.628 401.866)"><path class="b" d="M1725.643,669.822a90.855,90.855,0,1,0,78.047,102.072A90.955,90.955,0,0,0,1725.643,669.822Z" transform="translate(-1622.764 -669.017)"/><g transform="translate(0.921 12.567)"><path class="e" d="M1902.162,792.349l-9.392,12.962-16.542,24.76-6.161-17.584-13.451,6.682-6.368-16L1842,811.22l-3.45-1.365L1827.7,803.9l.647,12.208,8.311,4.626-20.208,35.521-7.295,3.42-4.32-14.742-.968-23.9-11.442-2.006-3.8-9.307,8.818-17.011,9.913-.979,5.455,4.724,14.609-1.584-14.435-10.613-12.706-3.948-.158-4,13.491-5.591-4.241-8.9,14.25-9.853,12.933,6.556,23.473-4.047s9.868-3.686,20.906-7.725A90.992,90.992,0,0,1,1902.162,792.349Z" transform="translate(-1722.599 -727.935)"/><path class="e" d="M1667.757,702.2l-6.3,8.165L1650.4,725.435a1.429,1.429,0,0,0-.143,1.407l4.919,10.813a1.562,1.562,0,0,0,1.106.8,1.414,1.414,0,0,0,1.253-.511l6.4-7.958,8.907,14.315-23,15.65-11.786-.442a1.406,1.406,0,0,0-1.3.761l-3.437,6.8a1.4,1.4,0,0,0,.037,1.341l6.47,10.938-11.789-7.441-2.99-4.8A90.63,90.63,0,0,1,1667.757,702.2Z" transform="translate(-1625.046 -701.372)"/><path class="e" d="M1679.594,923.532l-5.913-16.563,10.782-17.618,21.507,25.356-26.2,39.6-2.943-10.159,2.824-19.954A1.326,1.326,0,0,0,1679.594,923.532Z" transform="translate(-1654.051 -812.986)"/><path class="e" d="M1756.623,728.508l-7.347-22.582c15.674-5.52,25.753-5.887,29.6-5.754l-6.942,19Z" transform="translate(-1699.134 -700.152)"/></g></g><path class="a" d="M1871.746,1036.405c2-3.077-.487-5.693-10-7.085a77.615,77.615,0,0,0-28.448,1.4c19.238-9.32,41.667-22.411,21.189-23.926-6.385-.471-16.2,2.62-27.126,7.451,12.183-9.915,18.885-18.065,11.5-19.579-6.851-1.407-20.826,6.656-35.7,17.362,8.475-8.971,13.381-16.8,9.576-20.492-3.108-3.014-9.735.446-17.358,6.855.339-5.636-2.028-9.038-7.433-8.355-5.083.642-9.2,7.165-12.141,14.99-4.877-12.136-17.757-19.558-30.75-15.874-15.263,4.328-3,33.426,3.828,47.259Z" transform="translate(-490.705 -457.503)"/><g transform="translate(928.954 518.633)"><path class="e" d="M1012.071,967.057a66.919,66.919,0,0,1,33.477,52.69,66.764,66.764,0,0,1-95.873-54.677A66.924,66.924,0,0,1,1012.071,967.057Z" transform="translate(-949.675 -958.312)"/><g transform="translate(7.73 2.515)"><line class="f" x2="84.675" y2="48.294" transform="translate(0 8.251)"/><line class="f" x1="15.601" y2="5.498" transform="translate(1.806 18.314)"/><line class="f" x1="19.233" y2="6.776" transform="translate(12.614 26.548)"/><line class="f" x1="32.15" y2="11.329" transform="translate(14.135 34.782)"/><line class="f" x1="31.277" y2="11.025" transform="translate(29.446 43.016)"/><line class="f" x1="17.416" y2="6.138" transform="translate(57.745 51.251)"/><line class="f" x1="3.211" y1="16.227" transform="translate(12.599 0.84)"/><line class="f" x1="5.004" y1="25.301" transform="translate(25.243)"/><line class="f" x1="6.268" y1="31.673" transform="translate(38.419 1.865)"/><line class="f" x1="6.435" y1="32.532" transform="translate(52.688 9.238)"/><line class="f" x1="5.531" y1="27.946" transform="translate(68.033 22.058)"/></g></g><g transform="translate(917.034 478.417)"><g transform="translate(18.622 4.73)"><path class="c" d="M1001.28,950.735a123.615,123.615,0,0,0-17.931-59.577c-8.237-13.458-16.343-20.694-16.424-20.765l-.644.727c.081.071,8.1,7.233,16.259,20.579a122.653,122.653,0,0,1,17.769,59.074Z" transform="translate(-966.281 -870.393)"/></g><path class="c" d="M959.351,864.566a10.447,10.447,0,0,0-3.152-5.021c-.869-.711-2.908-1.285-3.569-.477s-.091,2.368,1.173,3.4A10.459,10.459,0,0,0,959.351,864.566Z" transform="translate(-939.352 -858.674)"/><path class="c" d="M966.887,880.213a9.789,9.789,0,0,0-4.946-2.06c-1.018-.089-2.839.487-2.915,1.385s1.156,1.736,2.636,1.864A9.806,9.806,0,0,0,966.887,880.213Z" transform="translate(-943.33 -870.286)"/><path class="c" d="M982.091,899.477a7.4,7.4,0,0,0-4.445-1.364c-.862.07-2.291.948-2.217,1.887s1.231,1.616,2.485,1.516A7.363,7.363,0,0,0,982.091,899.477Z" transform="translate(-953.113 -882.186)"/><path class="c" d="M976.525,873.716a7.328,7.328,0,0,0,2.894-3.6c.253-.823-.032-2.465-.925-2.741s-1.945.542-2.314,1.735A7.337,7.337,0,0,0,976.525,873.716Z" transform="translate(-953.418 -863.831)"/><path class="c" d="M1043.65,1000.051a8.678,8.678,0,0,0,4.276-2.487c.615-.707,1.147-2.392.487-2.967s-1.975-.143-2.872.883A8.678,8.678,0,0,0,1043.65,1000.051Z" transform="translate(-993.8 -939.583)"/><path class="c" d="M992.329,889.1a9.765,9.765,0,0,0,3.242-4.493c.31-1,.092-2.971-.839-3.261s-2.08.754-2.532,2.215A9.753,9.753,0,0,0,992.329,889.1Z" transform="translate(-962.907 -872.164)"/><path class="c" d="M1005.932,910.1a7.348,7.348,0,0,0,3.355-3.764c.272-.879-.149-2.669-1.251-3.011a2.353,2.353,0,0,0-2.735,1.773A7.373,7.373,0,0,0,1005.932,910.1Z" transform="translate(-970.796 -885.255)"/><path class="c" d="M994.711,917.36a7.844,7.844,0,0,0-4.54-2.347c-.94-.076-2.637.668-2.724,1.751s1.033,2.064,2.4,2.173A7.836,7.836,0,0,0,994.711,917.36Z" transform="translate(-960.279 -892.27)"/><path class="c" d="M1032.855,1003.171a7.867,7.867,0,0,0-3.23-3.741c-.874-.52-2.9-.911-3.533-.281s-.034,1.8,1.238,2.557A12.578,12.578,0,0,0,1032.855,1003.171Z" transform="translate(-983.177 -942.256)"/><path class="c" d="M1017.865,960.875a6.649,6.649,0,0,0-4.059-.725c-.891.1-2.6.837-2.823,1.524s.741,1.112,2.036.962A13.761,13.761,0,0,0,1017.865,960.875Z" transform="translate(-974.3 -919.162)"/><path class="c" d="M1018.925,932.763a5.681,5.681,0,0,0,1.894-3.222c.168-.785-.016-2.453-.6-2.838s-1.271.3-1.515,1.441A11.26,11.26,0,0,0,1018.925,932.763Z" transform="translate(-978.829 -899.18)"/><path class="c" d="M1028.773,980.35a10.953,10.953,0,0,0-3.021-4.126c-.672-.471-1.982-.489-2.168.488a3.5,3.5,0,0,0,1.5,3.057A4.156,4.156,0,0,0,1028.773,980.35Z" transform="translate(-981.815 -928.591)"/><path class="c" d="M1027.689,952.806a14.737,14.737,0,0,0,4.579-4.263c.54-.9.627-2.544-.414-2.664s-2.567.924-3.353,2.229A6.231,6.231,0,0,0,1027.689,952.806Z" transform="translate(-984.19 -910.676)"/><path class="c" d="M1037.293,978.086a12.871,12.871,0,0,0,4.185-3.992c.456-.827.391-2.327-.661-2.411a3.945,3.945,0,0,0-3.147,2.107A5.138,5.138,0,0,0,1037.293,978.086Z" transform="translate(-989.83 -926.067)"/><path class="c" d="M920.144,920.516a8.706,8.706,0,0,0,4.278-2.488c.616-.707,1.146-2.391.487-2.967s-1.977-.144-2.873.884A8.692,8.692,0,0,0,920.144,920.516Z" transform="translate(-920.144 -892.149)"/><path class="c" d="M1038.263,1026.524a6.564,6.564,0,0,0-3.1-2.713c-.819-.368-2.675-.607-3.223-.122s.056,1.351,1.245,1.882A13.7,13.7,0,0,0,1038.263,1026.524Z" transform="translate(-986.693 -956.923)"/><path class="c" d="M983.809,946.658a11.411,11.411,0,0,0-4.167-2.629c-.786-.222-2.032.081-1.9.925a3.379,3.379,0,0,0,2.384,2.129A4.64,4.64,0,0,0,983.809,946.658Z" transform="translate(-954.489 -909.536)"/><path class="c" d="M1007.127,939.8a9.933,9.933,0,0,0-4.618-2.422c-1.066-.247-3.239-.142-3.636.517s.633,1.5,2.189,1.861A16.2,16.2,0,0,0,1007.127,939.8Z" transform="translate(-967.044 -905.54)"/></g><g transform="translate(914.93 542.939)"><path class="c" d="M1007.216,1049.581c-1.585.74-15.872,3.811-19.046,13.841-2.518,7.959-6.253,5.934-8.667,3.09s-3.423-6.607-7.215-3.847c-12.484,9.087-27.844,7.978-22.7-1.182,2.78-4.951-3.656-7.56-6.869-5.334-6.813,4.719-13.557,4.814-12.292-1.233,1.243-5.947-.365-9.62-3.9-8.689s-8.678,5.985-11.4-.527c-1.072-2.564,2.471-8.618,8.022-10.131,3.164-.862,13.586-.8,8.037-7.008-5.717-6.394,1-8.333,5.189-6.156,1.558.81,16.588,7.184,14.822,2.1-2.087-6.006,2.979-8.214,9.352-3.171,2.891,2.292,7.66,9.178,9.437,6.542s9.754-7.276,11.827-2.015C987.694,1040.791,1003.924,1051.12,1007.216,1049.581Z" transform="translate(-914.93 -1018.531)"/><path class="g" d="M924.1,1070.661a95.754,95.754,0,0,1,47.539-2.168c26.928,5.683,36.243,13.6,52.737,7.411" transform="translate(-920.4 -1047.14)"/><path class="g" d="M969.122,1079.22s6.6-10.95,15.216-13.455" transform="translate(-947.249 -1046.7)"/><path class="g" d="M963.207,1035.854s8.372,9.3,19.706,12.262" transform="translate(-943.721 -1028.862)"/><path class="g" d="M1014.548,1097.9s5.624-2.389,20.768-19.942" transform="translate(-974.34 -1053.969)"/><path class="g" d="M1012.085,1025.053s10.326,16.418,14.081,19.235" transform="translate(-972.871 -1022.42)"/><path class="g" d="M1065.185,1040.7s6.831,14.351,15.746,19" transform="translate(-1004.539 -1031.755)"/></g><g transform="translate(944.638 528.048)"><path class="h" d="M996.21,989.868a11.917,11.917,0,0,1-6.525-3.256c-.93-1-1.692-3.508-.65-4.476s3.062-.472,4.412.983A11.913,11.913,0,0,1,996.21,989.868Z" transform="translate(-988.533 -981.638)"/><path class="h" d="M1016.361,999.253a10.126,10.126,0,0,1-1.736-6.073c.109-1.174,1.314-3.107,2.572-2.99s2.139,1.7,1.981,3.409A10.12,10.12,0,0,1,1016.361,999.253Z" transform="translate(-1004.076 -986.735)"/><path class="h" d="M1029.4,1015.446a10.118,10.118,0,0,1,.894-6.254c.578-1.028,2.468-2.3,3.568-1.679s1.258,2.428.418,3.92A10.126,10.126,0,0,1,1029.4,1015.446Z" transform="translate(-1012.816 -996.972)"/><path class="h" d="M1005.727,1011.367a11.339,11.339,0,0,1-5.615,2.577c-1.17.146-3.293-.435-3.417-1.459s1.257-2.04,2.957-2.25A11.35,11.35,0,0,1,1005.727,1011.367Z" transform="translate(-993.395 -998.653)"/><path class="h" d="M1017.193,1024.783a10.951,10.951,0,0,1-5.6,2.687c-1.169.145-3.3-.486-3.432-1.569s1.246-2.147,2.947-2.357A10.96,10.96,0,0,1,1017.193,1024.783Z" transform="translate(-1000.233 -1006.592)"/><path class="h" d="M1032.481,1045.846a7.3,7.3,0,0,1-4.219,2.516c-.894.111-2.544-.578-2.678-1.661a2.286,2.286,0,0,1,2.191-2.266A7.311,7.311,0,0,1,1032.481,1045.846Z" transform="translate(-1010.623 -1019.067)"/><path class="h" d="M1043.043,1037.133a8.794,8.794,0,0,1,.169-5.05c.339-.894,1.612-2.177,2.458-1.854s1.1,1.719.6,3.02A8.78,8.78,0,0,1,1043.043,1037.133Z" transform="translate(-1020.865 -1010.586)"/><g transform="translate(6.089 6.68)"><path class="h" d="M1046.224,1047.837a3.4,3.4,0,0,0,1.2-.737l-.483-.454.24.228-.239-.228a3.835,3.835,0,0,1-3.315.787c-2.49-.362-5.364-2.27-8.545-5.667-4.364-4.663-9.172-12.036-14.293-21.914-5.948-11.474-11.079-16.295-14.475-19.485-.87-.817-1.622-1.524-2.2-2.179l-.495.439c.6.677,1.361,1.393,2.242,2.223,3.363,3.158,8.446,7.933,14.342,19.306,11.4,21.99,19,27.331,23.369,27.937A5.263,5.263,0,0,0,1046.224,1047.837Z" transform="translate(-1003.618 -998.187)"/></g></g><g transform="translate(1302.14 483.97)"><path class="i" d="M1932.244,893.647s-27.908,20.026-50.181,76.435" transform="translate(-1878.915 -885.085)"/><path class="i" d="M1900.072,911.883s-20,27.917-25.807,62.416" transform="translate(-1874.265 -895.96)"/><path class="i" d="M1935.193,980.007s-23.99,7.684-29.437,39.277" transform="translate(-1893.045 -936.588)"/><path class="j" d="M1998.709,876.693c4.453,3.743,6.831,8.24,5.314,10.044s-6.354.23-10.806-3.513-6.831-8.24-5.314-10.044S1994.258,872.95,1998.709,876.693Z" transform="translate(-1941.763 -872.434)"/><path class="k" d="M2005.425,886.512c1.413,1.188,2.169,2.616,1.687,3.189s-2.018.073-3.431-1.116-2.169-2.615-1.688-3.188S2004.011,885.323,2005.425,886.512Z" transform="translate(-1950.352 -880.023)"/><path class="j" d="M1935.006,904.822c1.854,1.559,2.844,3.431,2.213,4.182s-2.646.1-4.5-1.462-2.844-3.431-2.213-4.182S1933.153,903.263,1935.006,904.822Z" transform="translate(-1907.692 -890.692)"/><path class="k" d="M1937.8,908.909c.589.5.9,1.09.7,1.328s-.841.031-1.429-.464-.9-1.09-.7-1.328S1937.214,908.414,1937.8,908.909Z" transform="translate(-1911.269 -893.851)"/><path class="j" d="M1975.048,971.574c1.783,2.563,2.385,5.226,1.347,5.949s-3.326-.77-5.108-3.334-2.385-5.227-1.346-5.949S1973.267,969.009,1975.048,971.574Z" transform="translate(-1931.021 -929.461)"/><path class="k" d="M1977.532,977.329c.566.814.757,1.661.429,1.889s-1.056-.244-1.623-1.057-.757-1.66-.427-1.89S1976.966,976.516,1977.532,977.329Z" transform="translate(-1934.787 -934.325)"/></g><g transform="translate(973.549 505.155)"><path class="a" d="M1104.227,960.9c6.84,18.031,4.995,36.949-3.422,51.112-15.693-5.016-29.624-17.951-36.464-35.981s-5-36.95,3.422-51.113C1083.455,929.937,1097.386,942.871,1104.227,960.9Z" transform="translate(-1060.161 -924.921)"/><g transform="translate(2.047 6.777)"><line class="l" x2="29.183" y2="76.922" transform="translate(8.396)"/><line class="l" x1="11.787" y1="5.304" transform="translate(2.549 10.592)"/><line class="l" x1="14.528" y1="6.537" transform="translate(4.784 22.476)"/><line class="l" x1="24.289" y1="10.927" transform="translate(0 31.201)"/><line class="l" x1="23.629" y1="10.631" transform="translate(5.635 44.613)"/><line class="l" x1="13.157" y1="5.92" transform="translate(21.083 62.44)"/><line class="l" y1="11.787" x2="5.305" transform="translate(13.934 2.451)"/><line class="l" y1="18.379" x2="8.27" transform="translate(18.91 8.975)"/><line class="l" y1="23.005" x2="10.35" transform="translate(23.886 17.466)"/><line class="l" y1="23.63" x2="10.633" transform="translate(28.862 29.958)"/><line class="l" y1="20.301" x2="9.133" transform="translate(33.839 46.402)"/></g></g><g transform="translate(1005.167 501.885)"><g transform="translate(0 40.365)"><g transform="translate(0 20.601)"><g transform="translate(0 9.483)"><g class="m"><g transform="translate(5.707 10.563)"><path class="n" d="M1152.912,1124.8c-.081-2.18-.191-5.091-.274-7.272.054,1.5.214,5.552.274,7.106C1152.911,1124.695,1152.911,1124.748,1152.912,1124.8Z" transform="translate(-1152.638 -1117.531)"/></g><g transform="translate(0.003 7.502)"><path class="o" d="M1204.591,1109.946q.153,4.026.3,8.051c.078,2.054-2.612,4.219-8.178,6.083-12.02,4.029-32.9,5.126-46.631,2.458-7.375-1.436-11.188-3.664-11.279-6.043l-.3-8.052c.09,2.377,3.905,4.609,11.28,6.041,13.731,2.669,34.607,1.569,46.626-2.456C1201.978,1114.162,1204.668,1112,1204.591,1109.946Z" transform="translate(-1138.505 -1109.946)"/></g><path class="n" d="M1193.306,1092.817c13.733,2.671,15.125,8.1,3.1,12.126s-32.894,5.125-46.626,2.456-15.124-8.1-3.1-12.123S1179.571,1090.149,1193.306,1092.817Zm-39.79,13.332c11.376,2.209,28.668,1.3,38.624-2.036s8.81-7.83-2.569-10.041-28.665-1.3-38.622,2.032-8.806,7.833,2.567,10.044" transform="translate(-1138.499 -1091.36)"/><path class="o" d="M1197.955,1096.294c11.376,2.21,12.524,6.7,2.569,10.041s-27.248,4.245-38.624,2.036-12.523-6.708-2.567-10.044S1186.583,1094.083,1197.955,1096.294Z" transform="translate(-1146.883 -1093.582)"/><path class="p" d="M1159.336,1099.332c9.956-3.337,27.251-4.248,38.622-2.038,5.661,1.1,8.788,2.767,9.275,4.576.568-2.183-2.58-4.276-9.275-5.576-11.371-2.211-28.665-1.3-38.622,2.032-5,1.677-7.2,3.645-6.706,5.468C1153.029,1102.27,1155.24,1100.7,1159.336,1099.332Z" transform="translate(-1146.886 -1093.582)"/><g transform="translate(13.872 4.246)"><path class="p" d="M1199.1,1108.087c.852.777.2,1.7-2.052,2.449a31.162,31.162,0,0,1-10.188,1.125,25.606,25.606,0,0,1-3.587-.4l-.614-.122-.221.073-.851.286-.5-.1-2.56-.5,1.069-.359-1.836-.358-.219.075-.849.285-.5-.1-2.558-.5,1.069-.359-1.838-.357,2.458-.825.219-.075,1.337.261.5.1,7.507-2.513,2.679-.9,6.429-2.151-1.839-.358,2.462-.825.218-.075,1.335.26.5.1.852-.286.221-.073,3.057.595-1.073.358,1.336.259.5.1.853-.283.217-.075,3.061.6-1.072.359c3.713.72,4.092,2.195.843,3.284A24.818,24.818,0,0,1,1199.1,1108.087Zm-11.2,2.5a18.362,18.362,0,0,0,6.088-.648c2.071-.693,1.832-1.632-.533-2.091l-5.512-1.07-.219.072-7.281,2.441,5.507,1.07a14.077,14.077,0,0,0,1.95.226m8.934-6.787-6.21,2.08,4.894.951a12.084,12.084,0,0,0,1.622.191,15.676,15.676,0,0,0,5.267-.552c1.777-.6,1.571-1.4-.459-1.792l-4.9-.95-.22.073" transform="translate(-1172.867 -1101.879)"/></g><g transform="translate(13.872 3.243)"><path class="q" d="M1199.1,1105.605c.852.773.2,1.694-2.052,2.448a31.2,31.2,0,0,1-10.188,1.122,24.787,24.787,0,0,1-3.587-.4l-.614-.117-.221.073-.851.283-.5-.1-2.56-.495,1.069-.359-1.836-.355-.219.071-.849.285-.5-.1-2.558-.5,1.069-.36-1.838-.357,2.458-.826.219-.074,1.337.26.5.1,7.507-2.514,2.679-.9,6.429-2.153-1.839-.361,2.462-.821.218-.076,1.335.261.5.1.852-.283.221-.075,3.057.6-1.073.358,1.336.258.5.1.853-.287.217-.072,3.061.6-1.072.357c3.713.723,4.092,2.195.843,3.283A24.858,24.858,0,0,1,1199.1,1105.605Zm-11.2,2.5a18.239,18.239,0,0,0,6.088-.65c2.071-.693,1.832-1.629-.533-2.087l-5.512-1.073-.219.072-7.281,2.442,5.507,1.072a14.454,14.454,0,0,0,1.95.224m8.934-6.786-6.21,2.078,4.894.953a11.691,11.691,0,0,0,1.622.189,15.7,15.7,0,0,0,5.267-.55c1.777-.6,1.571-1.4-.459-1.795l-4.9-.952-.22.076" transform="translate(-1172.867 -1099.394)"/></g><path class="p" d="M1146.329,1124.816v7.891a29.693,29.693,0,0,0,8.424,2.7,84.892,84.892,0,0,0,12.284,1.346v-8.038a85.375,85.375,0,0,1-12.586-1.362A30.771,30.771,0,0,1,1146.329,1124.816Z" transform="translate(-1143.168 -1111.313)"/></g></g><g transform="translate(3.047)"><g class="m"><g transform="translate(5.706 10.563)"><path class="n" d="M1160.457,1101.307c-.082-2.18-.189-5.089-.273-7.271.054,1.5.214,5.552.275,7.107C1160.457,1101.2,1160.455,1101.252,1160.457,1101.307Z" transform="translate(-1160.184 -1094.036)"/></g><g transform="translate(0.002 7.503)"><path class="o" d="M1212.135,1086.454q.156,4.023.308,8.052c.078,2.051-2.613,4.216-8.18,6.083-12.019,4.025-32.894,5.124-46.628,2.455-7.373-1.434-11.188-3.665-11.279-6.041l-.305-8.053c.089,2.378,3.9,4.606,11.28,6.04,13.731,2.671,34.608,1.567,46.629-2.456C1209.525,1090.669,1212.213,1088.506,1212.135,1086.454Z" transform="translate(-1146.051 -1086.454)"/></g><path class="n" d="M1200.855,1069.323c13.731,2.671,15.123,8.1,3.1,12.124s-32.9,5.128-46.629,2.456-15.123-8.1-3.1-12.122S1187.12,1066.654,1200.855,1069.323Zm-39.789,13.33c11.375,2.21,28.664,1.3,38.621-2.035s8.807-7.833-2.569-10.044-28.664-1.3-38.622,2.034-8.8,7.833,2.569,10.044" transform="translate(-1146.047 -1067.865)"/><path class="o" d="M1205.5,1072.794c11.376,2.211,12.525,6.706,2.569,10.043s-27.247,4.245-38.621,2.035-12.525-6.708-2.569-10.044S1194.129,1070.582,1205.5,1072.794Z" transform="translate(-1154.432 -1070.084)"/><path class="p" d="M1166.883,1075.832c9.957-3.335,27.248-4.246,38.622-2.037,5.661,1.1,8.787,2.769,9.276,4.574.566-2.18-2.58-4.276-9.276-5.575-11.374-2.212-28.665-1.3-38.622,2.034-5,1.677-7.2,3.644-6.705,5.469C1160.575,1078.772,1162.789,1077.2,1166.883,1075.832Z" transform="translate(-1154.434 -1070.084)"/><g transform="translate(13.873 4.245)"><path class="p" d="M1206.65,1084.593c.852.775.2,1.7-2.048,2.447a31.156,31.156,0,0,1-10.189,1.124,25.353,25.353,0,0,1-3.588-.4l-.613-.12-.219.072-.852.288-.5-.1-2.56-.5,1.071-.359-1.836-.356-.217.072-.854.287-.5-.1-2.561-.5,1.072-.358-1.837-.357,2.458-.823.22-.074,1.335.259.5.1,7.5-2.514,2.68-.9,6.43-2.154-1.836-.357,2.459-.823.221-.077,1.332.262.5.1.851-.286.22-.073,3.059.6-1.072.357,1.335.262.5.1.853-.286.219-.074,3.061.6-1.075.359c3.716.722,4.1,2.2.843,3.284A24.847,24.847,0,0,1,1206.65,1084.593Zm-11.2,2.5a18.3,18.3,0,0,0,6.088-.65c2.07-.692,1.831-1.629-.535-2.089l-5.509-1.072-.22.073-7.283,2.44,5.509,1.071a13.992,13.992,0,0,0,1.95.226m8.932-6.788-6.21,2.08,4.9.953a12,12,0,0,0,1.621.19,15.735,15.735,0,0,0,5.267-.553c1.778-.6,1.571-1.395-.458-1.791l-4.9-.955-.221.076" transform="translate(-1180.417 -1078.382)"/></g><g transform="translate(13.873 3.241)"><path class="q" d="M1206.65,1082.107c.852.774.2,1.7-2.048,2.448a31.154,31.154,0,0,1-10.189,1.121,24.583,24.583,0,0,1-3.588-.4l-.613-.119-.219.075-.852.283-.5-.1-2.56-.5,1.071-.357-1.836-.358-.217.076-.854.283-.5-.1-2.561-.5,1.072-.357-1.837-.358,2.458-.824.22-.075,1.335.261.5.1,7.5-2.514,2.68-.9,6.43-2.155-1.836-.359,2.459-.822.221-.074,1.332.26.5.1.851-.287.22-.074,3.059.6-1.072.359,1.335.258.5.1.853-.287.219-.073,3.061.6-1.075.358c3.716.723,4.1,2.2.843,3.283A24.769,24.769,0,0,1,1206.65,1082.107Zm-11.2,2.5a18.2,18.2,0,0,0,6.088-.648c2.07-.694,1.831-1.628-.535-2.089l-5.509-1.072-.22.075-7.283,2.439,5.509,1.074a14.49,14.49,0,0,0,1.95.22m8.932-6.786-6.21,2.079,4.9.952a11.336,11.336,0,0,0,1.621.19,15.665,15.665,0,0,0,5.267-.551c1.778-.6,1.571-1.4-.458-1.793l-4.9-.95-.221.073" transform="translate(-1180.417 -1075.896)"/></g><path class="p" d="M1153.871,1101.32v7.891a29.629,29.629,0,0,0,8.428,2.7,84.55,84.55,0,0,0,12.284,1.347v-8.037a85.32,85.32,0,0,1-12.588-1.363A30.861,30.861,0,0,1,1153.871,1101.32Z" transform="translate(-1150.713 -1087.817)"/></g></g></g><g transform="translate(0 9.484)"><g class="m"><g transform="translate(5.707 10.562)"><path class="n" d="M1152.912,1073.764c-.081-2.181-.191-5.093-.274-7.275.054,1.5.214,5.553.274,7.107C1152.911,1073.655,1152.911,1073.708,1152.912,1073.764Z" transform="translate(-1152.638 -1066.49)"/></g><g transform="translate(0.003 7.503)"><path class="o" d="M1204.591,1058.912q.153,4.024.3,8.051c.078,2.052-2.612,4.217-8.178,6.082-12.02,4.024-32.9,5.125-46.631,2.455-7.375-1.435-11.188-3.661-11.279-6.04l-.3-8.054c.09,2.38,3.905,4.608,11.28,6.042,13.731,2.671,34.607,1.571,46.626-2.457C1201.978,1063.126,1204.668,1060.961,1204.591,1058.912Z" transform="translate(-1138.505 -1058.912)"/></g><path class="n" d="M1193.306,1041.78c13.733,2.672,15.125,8.1,3.1,12.125s-32.894,5.127-46.626,2.457-15.124-8.1-3.1-12.123S1179.571,1039.112,1193.306,1041.78Zm-39.79,13.33c11.376,2.213,28.668,1.3,38.624-2.035s8.81-7.832-2.569-10.044-28.665-1.3-38.622,2.036-8.806,7.833,2.567,10.043" transform="translate(-1138.499 -1040.323)"/><path class="o" d="M1197.955,1045.25c11.376,2.212,12.524,6.708,2.569,10.044s-27.248,4.247-38.624,2.035-12.523-6.707-2.567-10.043S1186.583,1043.043,1197.955,1045.25Z" transform="translate(-1146.883 -1042.543)"/><path class="p" d="M1159.336,1048.29c9.956-3.335,27.251-4.249,38.622-2.037,5.661,1.1,8.788,2.769,9.275,4.575.568-2.181-2.58-4.273-9.275-5.578-11.371-2.208-28.665-1.3-38.622,2.035-5,1.679-7.2,3.645-6.706,5.47C1153.029,1051.229,1155.24,1049.662,1159.336,1048.29Z" transform="translate(-1146.886 -1042.543)"/><g transform="translate(13.872 4.245)"><path class="p" d="M1199.1,1057.051c.852.773.2,1.7-2.052,2.446a31.136,31.136,0,0,1-10.188,1.124,25,25,0,0,1-3.587-.4l-.614-.119-.221.075-.851.285-.5-.1-2.56-.5,1.069-.359-1.836-.359-.219.076-.849.283-.5-.1-2.558-.5,1.069-.357-1.838-.358,2.458-.823.219-.074,1.337.26.5.1,7.507-2.513,2.679-.9L1194,1052.1l-1.839-.357,2.462-.823.218-.076,1.335.262.5.1.852-.287.221-.072,3.057.595-1.073.358,1.336.26.5.1.853-.287.217-.073,3.061.593-1.072.36c3.713.723,4.092,2.195.843,3.284A24.906,24.906,0,0,1,1199.1,1057.051Zm-11.2,2.5a18.321,18.321,0,0,0,6.088-.65c2.071-.693,1.832-1.628-.533-2.09l-5.512-1.073-.219.076-7.281,2.439,5.507,1.072a14.626,14.626,0,0,0,1.95.225m8.934-6.786-6.21,2.079,4.894.951a12.267,12.267,0,0,0,1.622.19,15.749,15.749,0,0,0,5.267-.551c1.777-.6,1.571-1.4-.459-1.792l-4.9-.952-.22.075" transform="translate(-1172.867 -1050.84)"/></g><g transform="translate(13.872 3.239)"><path class="q" d="M1199.1,1054.561c.852.774.2,1.7-2.052,2.448a31.113,31.113,0,0,1-10.188,1.124,24.923,24.923,0,0,1-3.587-.4l-.614-.117-.221.072-.851.285-.5-.1-2.56-.5,1.069-.359-1.836-.358-.219.074-.849.284-.5-.1-2.558-.5,1.069-.357-1.838-.358,2.458-.825.219-.073,1.337.259.5.1,7.507-2.513,2.679-.9,6.429-2.154-1.839-.359,2.462-.825.218-.073,1.335.26.5.1.852-.285.221-.075,3.057.6-1.073.36,1.336.258.5.1.853-.286.217-.075,3.061.6-1.072.359c3.713.722,4.092,2.2.843,3.283A24.785,24.785,0,0,1,1199.1,1054.561Zm-11.2,2.5a18.237,18.237,0,0,0,6.088-.648c2.071-.694,1.832-1.629-.533-2.088l-5.512-1.074-.219.075-7.281,2.441,5.507,1.072a14.546,14.546,0,0,0,1.95.222m8.934-6.788-6.21,2.083,4.894.95a11.225,11.225,0,0,0,1.622.189,15.655,15.655,0,0,0,5.267-.551c1.777-.6,1.571-1.4-.459-1.791l-4.9-.952-.22.072" transform="translate(-1172.867 -1048.349)"/></g><path class="p" d="M1146.329,1073.781v7.89a29.67,29.67,0,0,0,8.424,2.7,84.423,84.423,0,0,0,12.284,1.347v-8.038a85.011,85.011,0,0,1-12.586-1.362A30.856,30.856,0,0,1,1146.329,1073.781Z" transform="translate(-1143.168 -1060.277)"/></g></g><g transform="translate(3.047)"><g class="m"><g transform="translate(5.706 10.562)"><path class="n" d="M1160.457,1050.267c-.082-2.18-.189-5.09-.273-7.273.054,1.5.214,5.553.275,7.107C1160.457,1050.157,1160.455,1050.213,1160.457,1050.267Z" transform="translate(-1160.184 -1042.994)"/></g><g transform="translate(0.002 7.502)"><path class="o" d="M1212.135,1035.412q.156,4.027.308,8.052c.078,2.053-2.613,4.216-8.18,6.084-12.019,4.025-32.894,5.123-46.628,2.455-7.373-1.435-11.188-3.664-11.279-6.042l-.305-8.052c.089,2.379,3.9,4.606,11.28,6.042,13.731,2.668,34.608,1.567,46.629-2.457C1209.525,1039.629,1212.213,1037.464,1212.135,1035.412Z" transform="translate(-1146.051 -1035.412)"/></g><path class="n" d="M1200.855,1018.283c13.731,2.673,15.123,8.1,3.1,12.127s-32.9,5.124-46.629,2.456-15.123-8.1-3.1-12.125S1187.12,1015.615,1200.855,1018.283Zm-39.789,13.329c11.375,2.212,28.664,1.3,38.621-2.034s8.807-7.833-2.569-10.042-28.664-1.3-38.622,2.035-8.8,7.831,2.569,10.041" transform="translate(-1146.047 -1016.826)"/><path class="o" d="M1205.5,1021.755c11.376,2.209,12.525,6.706,2.569,10.042s-27.247,4.247-38.621,2.035-12.525-6.706-2.569-10.041S1194.129,1019.544,1205.5,1021.755Z" transform="translate(-1154.432 -1019.046)"/><path class="p" d="M1166.883,1024.793c9.957-3.335,27.248-4.246,38.622-2.037,5.661,1.1,8.787,2.769,9.276,4.577.566-2.185-2.58-4.276-9.276-5.578-11.374-2.211-28.665-1.3-38.622,2.036-5,1.677-7.2,3.644-6.705,5.468C1160.575,1027.734,1162.789,1026.164,1166.883,1024.793Z" transform="translate(-1154.434 -1019.046)"/><path class="p" d="M1153.871,1050.286v7.888a29.605,29.605,0,0,0,8.428,2.7,84.327,84.327,0,0,0,12.284,1.348v-8.038a85.5,85.5,0,0,1-12.588-1.361A30.978,30.978,0,0,1,1153.871,1050.286Z" transform="translate(-1150.713 -1036.781)"/></g></g></g><g transform="translate(0 20.601)"><g transform="translate(0 9.483)"><g class="m"><g transform="translate(5.707 10.562)"><path class="n" d="M1152.912,1024.8c-.081-2.18-.191-5.092-.274-7.273.054,1.5.214,5.552.274,7.107C1152.911,1024.688,1152.911,1024.743,1152.912,1024.8Z" transform="translate(-1152.638 -1017.524)"/></g><g transform="translate(0.003 7.503)"><path class="o" d="M1204.591,1009.944q.153,4.024.3,8.051c.078,2.054-2.612,4.217-8.178,6.082-12.02,4.029-32.9,5.127-46.631,2.458-7.375-1.436-11.188-3.665-11.279-6.042l-.3-8.052c.09,2.378,3.905,4.608,11.28,6.039,13.731,2.671,34.607,1.572,46.626-2.454C1201.978,1014.159,1204.668,1011.993,1204.591,1009.944Z" transform="translate(-1138.505 -1009.944)"/></g><path class="n" d="M1193.306,992.812c13.733,2.671,15.125,8.1,3.1,12.128s-32.894,5.124-46.626,2.454-15.124-8.1-3.1-12.12S1179.571,990.144,1193.306,992.812Zm-39.79,13.331c11.376,2.209,28.668,1.3,38.624-2.036s8.81-7.829-2.569-10.04-28.665-1.3-38.622,2.033-8.806,7.832,2.567,10.043" transform="translate(-1138.499 -991.356)"/><path class="o" d="M1197.955,996.288c11.376,2.21,12.524,6.7,2.569,10.04s-27.248,4.246-38.624,2.036-12.523-6.707-2.567-10.043S1186.583,994.077,1197.955,996.288Z" transform="translate(-1146.883 -993.577)"/><path class="p" d="M1159.336,999.327c9.956-3.338,27.251-4.248,38.622-2.038,5.661,1.1,8.788,2.767,9.275,4.576.568-2.182-2.58-4.276-9.275-5.576-11.371-2.211-28.665-1.3-38.622,2.033-5,1.677-7.2,3.645-6.706,5.468C1153.029,1002.266,1155.24,1000.7,1159.336,999.327Z" transform="translate(-1146.886 -993.577)"/><g transform="translate(13.872 4.246)"><path class="p" d="M1199.1,1008.082c.852.777.2,1.7-2.052,2.45a31.168,31.168,0,0,1-10.188,1.125,25.677,25.677,0,0,1-3.587-.4l-.614-.122-.221.074-.851.285-.5-.1-2.56-.5,1.069-.358-1.836-.357-.219.074-.849.285-.5-.1-2.558-.5,1.069-.36-1.838-.356,2.458-.825.219-.074,1.337.261.5.1,7.507-2.512,2.679-.9,6.429-2.152-1.839-.358,2.462-.825.218-.075,1.335.26.5.1.852-.286.221-.073,3.057.595-1.073.357,1.336.26.5.1.853-.282.217-.075,3.061.6-1.072.359c3.713.721,4.092,2.194.843,3.284A24.808,24.808,0,0,1,1199.1,1008.082Zm-11.2,2.5a18.325,18.325,0,0,0,6.088-.649c2.071-.693,1.832-1.631-.533-2.09l-5.512-1.07-.219.072-7.281,2.441,5.507,1.07a14.172,14.172,0,0,0,1.95.226m8.934-6.787-6.21,2.08,4.894.951a12.167,12.167,0,0,0,1.622.19,15.669,15.669,0,0,0,5.267-.552c1.777-.594,1.571-1.4-.459-1.793l-4.9-.95-.22.075" transform="translate(-1172.867 -1001.874)"/></g><g transform="translate(13.872 3.242)"><path class="q" d="M1199.1,1005.6c.852.775.2,1.7-2.052,2.448a31.178,31.178,0,0,1-10.188,1.123,24.994,24.994,0,0,1-3.587-.4l-.614-.117-.221.073-.851.281-.5-.1-2.56-.494,1.069-.36-1.836-.356-.219.073-.849.284-.5-.1-2.558-.5,1.069-.36-1.838-.357,2.458-.826.219-.074,1.337.261.5.1,7.507-2.513,2.679-.9,6.429-2.153-1.839-.361,2.462-.821.218-.076,1.335.26.5.1.852-.285.221-.074,3.057.6-1.073.358,1.336.258.5.1.853-.287.217-.072,3.061.6-1.072.358c3.713.723,4.092,2.2.843,3.283A24.759,24.759,0,0,1,1199.1,1005.6Zm-11.2,2.5a18.2,18.2,0,0,0,6.088-.65c2.071-.692,1.832-1.629-.533-2.086l-5.512-1.073-.219.072-7.281,2.439,5.507,1.074a14.677,14.677,0,0,0,1.95.224m8.934-6.785-6.21,2.078,4.894.953a11.941,11.941,0,0,0,1.622.188,15.675,15.675,0,0,0,5.267-.55c1.777-.6,1.571-1.4-.459-1.795l-4.9-.951-.22.077" transform="translate(-1172.867 -999.387)"/></g><path class="p" d="M1146.329,1024.814v7.89a29.682,29.682,0,0,0,8.424,2.7,84.722,84.722,0,0,0,12.284,1.346v-8.039a85.123,85.123,0,0,1-12.586-1.363A30.718,30.718,0,0,1,1146.329,1024.814Z" transform="translate(-1143.168 -1011.309)"/></g></g><g transform="translate(3.047)"><g class="m"><g transform="translate(5.706 10.563)"><path class="n" d="M1160.457,1001.3c-.082-2.18-.189-5.089-.273-7.272.054,1.5.214,5.553.275,7.107C1160.457,1001.193,1160.455,1001.247,1160.457,1001.3Z" transform="translate(-1160.184 -994.03)"/></g><g transform="translate(0.002 7.502)"><path class="o" d="M1212.135,986.446q.156,4.025.308,8.052c.078,2.053-2.613,4.217-8.18,6.083-12.019,4.026-32.894,5.125-46.628,2.456-7.373-1.435-11.188-3.665-11.279-6.042l-.305-8.052c.089,2.377,3.9,4.607,11.28,6.041,13.731,2.67,34.608,1.568,46.629-2.456C1209.525,990.662,1212.213,988.5,1212.135,986.446Z" transform="translate(-1146.051 -986.446)"/></g><path class="n" d="M1200.855,969.316c13.731,2.672,15.123,8.1,3.1,12.126s-32.9,5.126-46.629,2.456-15.123-8.1-3.1-12.121S1187.12,966.648,1200.855,969.316Zm-39.789,13.331c11.375,2.21,28.664,1.3,38.621-2.035s8.807-7.832-2.569-10.044-28.664-1.3-38.622,2.035-8.8,7.833,2.569,10.044" transform="translate(-1146.047 -967.859)"/><path class="o" d="M1205.5,972.788c11.376,2.211,12.525,6.707,2.569,10.044s-27.247,4.245-38.621,2.035-12.525-6.708-2.569-10.044S1194.129,970.577,1205.5,972.788Z" transform="translate(-1154.432 -970.079)"/><path class="p" d="M1166.883,975.828c9.957-3.337,27.248-4.247,38.622-2.037,5.661,1.1,8.787,2.768,9.276,4.574.566-2.18-2.58-4.275-9.276-5.577-11.374-2.211-28.665-1.3-38.622,2.035-5,1.678-7.2,3.645-6.705,5.468C1160.575,978.767,1162.789,977.2,1166.883,975.828Z" transform="translate(-1154.434 -970.079)"/><g transform="translate(13.873 4.246)"><path class="p" d="M1206.65,984.589c.852.776.2,1.7-2.048,2.447a31.173,31.173,0,0,1-10.189,1.124,25.265,25.265,0,0,1-3.588-.4l-.613-.12-.219.072-.852.286-.5-.1-2.56-.495,1.071-.36-1.836-.357-.217.072-.854.288-.5-.1-2.561-.5,1.072-.358-1.837-.357,2.458-.823.22-.074,1.335.26.5.1,7.5-2.512,2.68-.9,6.43-2.153-1.836-.359,2.459-.822.221-.077,1.332.261.5.1.851-.286.22-.073,3.059.594-1.072.358,1.335.261.5.1.853-.284.219-.075,3.061.594-1.075.36c3.716.723,4.1,2.2.843,3.284A24.8,24.8,0,0,1,1206.65,984.589Zm-11.2,2.5a18.324,18.324,0,0,0,6.088-.65c2.07-.693,1.831-1.63-.535-2.089l-5.509-1.072-.22.073-7.283,2.441,5.509,1.07a14.234,14.234,0,0,0,1.95.226m8.932-6.788-6.21,2.079,4.9.952a12.271,12.271,0,0,0,1.621.191,15.747,15.747,0,0,0,5.267-.553c1.778-.6,1.571-1.4-.458-1.791l-4.9-.954-.221.076" transform="translate(-1180.417 -978.379)"/></g><g transform="translate(13.873 3.242)"><path class="q" d="M1206.65,982.1c.852.775.2,1.7-2.048,2.449a31.171,31.171,0,0,1-10.189,1.121,24.752,24.752,0,0,1-3.588-.4l-.613-.118-.219.074-.852.284-.5-.1-2.56-.5,1.071-.358-1.836-.356-.217.075-.854.282-.5-.1-2.561-.5,1.072-.357-1.837-.357,2.458-.824.22-.074,1.335.259.5.1,7.5-2.514,2.68-.9,6.43-2.156-1.836-.358,2.459-.821.221-.076,1.332.26.5.1.851-.287.22-.074,3.059.6-1.072.359,1.335.258.5.1.853-.286.219-.073,3.061.6-1.075.359c3.716.723,4.1,2.2.843,3.282A24.78,24.78,0,0,1,1206.65,982.1Zm-11.2,2.5a18.182,18.182,0,0,0,6.088-.649c2.07-.693,1.831-1.628-.535-2.089l-5.509-1.071-.22.076-7.283,2.439,5.509,1.074a14.4,14.4,0,0,0,1.95.221m8.932-6.787-6.21,2.079,4.9.953a11.513,11.513,0,0,0,1.621.19,15.683,15.683,0,0,0,5.267-.552c1.778-.6,1.571-1.4-.458-1.793l-4.9-.95-.221.073" transform="translate(-1180.417 -975.891)"/></g><path class="p" d="M1153.871,1001.314v7.891a29.606,29.606,0,0,0,8.428,2.7,84.619,84.619,0,0,0,12.284,1.347v-8.039a84.985,84.985,0,0,1-12.588-1.361A30.881,30.881,0,0,1,1153.871,1001.314Z" transform="translate(-1150.713 -987.811)"/></g></g></g><g transform="translate(0 9.485)"><g class="m"><g transform="translate(5.707 10.56)"><path class="n" d="M1152.912,973.758c-.081-2.181-.191-5.092-.274-7.275.054,1.5.214,5.554.274,7.108C1152.911,973.648,1152.911,973.7,1152.912,973.758Z" transform="translate(-1152.638 -966.483)"/></g><g transform="translate(0.003 7.502)"><path class="o" d="M1204.591,958.907q.153,4.024.3,8.051c.078,2.053-2.612,4.217-8.178,6.082-12.02,4.025-32.9,5.125-46.631,2.454-7.375-1.434-11.188-3.661-11.279-6.041l-.3-8.054c.09,2.38,3.905,4.609,11.28,6.042,13.731,2.67,34.607,1.57,46.626-2.456C1201.978,963.122,1204.668,960.955,1204.591,958.907Z" transform="translate(-1138.505 -958.907)"/></g><path class="n" d="M1193.306,941.776c13.733,2.671,15.125,8.1,3.1,12.125s-32.894,5.126-46.626,2.456-15.124-8.1-3.1-12.123S1179.571,939.107,1193.306,941.776Zm-39.79,13.329c11.376,2.213,28.668,1.3,38.624-2.035s8.81-7.831-2.569-10.043-28.665-1.3-38.622,2.035-8.806,7.833,2.567,10.043" transform="translate(-1138.499 -940.319)"/><path class="o" d="M1197.955,945.246c11.376,2.211,12.524,6.707,2.569,10.043s-27.248,4.248-38.624,2.035-12.523-6.707-2.567-10.043S1186.583,943.038,1197.955,945.246Z" transform="translate(-1146.883 -942.539)"/><path class="p" d="M1159.336,948.286c9.956-3.337,27.251-4.249,38.622-2.037,5.661,1.1,8.788,2.768,9.275,4.576.568-2.181-2.58-4.274-9.275-5.578-11.371-2.209-28.665-1.3-38.622,2.035-5,1.678-7.2,3.645-6.706,5.468C1153.029,951.226,1155.24,949.658,1159.336,948.286Z" transform="translate(-1146.886 -942.539)"/><g transform="translate(13.872 4.245)"><path class="p" d="M1199.1,957.046c.852.775.2,1.7-2.052,2.447a31.143,31.143,0,0,1-10.188,1.124,24.722,24.722,0,0,1-3.587-.4l-.614-.119-.221.076-.851.285-.5-.1-2.56-.5,1.069-.359-1.836-.359-.219.077-.849.282-.5-.1-2.558-.5,1.069-.357-1.838-.358,2.458-.823.219-.075,1.337.26.5.1,7.507-2.513,2.679-.9,6.429-2.154-1.839-.358,2.462-.824.218-.074,1.335.262.5.1.852-.288.221-.071,3.057.6-1.073.356,1.336.26.5.1.853-.287.217-.073,3.061.593-1.072.36c3.713.722,4.092,2.195.843,3.284A24.928,24.928,0,0,1,1199.1,957.046Zm-11.2,2.5a18.317,18.317,0,0,0,6.088-.65c2.071-.693,1.832-1.629-.533-2.09l-5.512-1.073-.219.076-7.281,2.439,5.507,1.072a14.755,14.755,0,0,0,1.95.226m8.934-6.786-6.21,2.08,4.894.951a12.371,12.371,0,0,0,1.622.19,15.762,15.762,0,0,0,5.267-.552c1.777-.6,1.571-1.4-.459-1.792l-4.9-.951-.22.075" transform="translate(-1172.867 -950.836)"/></g><g transform="translate(13.872 3.239)"><path class="q" d="M1199.1,954.557c.852.774.2,1.7-2.052,2.447a31.11,31.11,0,0,1-10.188,1.124,24.874,24.874,0,0,1-3.587-.4l-.614-.116-.221.071-.851.285-.5-.1-2.56-.5,1.069-.358-1.836-.358-.219.074-.849.284-.5-.1-2.558-.5,1.069-.357-1.838-.357,2.458-.825.219-.073,1.337.259.5.1,7.507-2.512,2.679-.9L1194,949.6l-1.839-.359,2.462-.825.218-.073,1.335.26.5.1.852-.286.221-.076,3.057.6-1.073.359,1.336.259.5.1.853-.286.217-.075,3.061.6-1.072.36c3.713.722,4.092,2.195.843,3.282A24.849,24.849,0,0,1,1199.1,954.557Zm-11.2,2.5a18.259,18.259,0,0,0,6.088-.647c2.071-.7,1.832-1.63-.533-2.088l-5.512-1.074-.219.075-7.281,2.44,5.507,1.072a14.516,14.516,0,0,0,1.95.222m8.934-6.787-6.21,2.082,4.894.951a11.169,11.169,0,0,0,1.622.19,15.662,15.662,0,0,0,5.267-.552c1.777-.6,1.571-1.4-.459-1.792l-4.9-.952-.22.072" transform="translate(-1172.867 -948.344)"/></g><path class="p" d="M1146.329,973.775v7.892a29.672,29.672,0,0,0,8.424,2.695,84.522,84.522,0,0,0,12.284,1.348v-8.038a85.11,85.11,0,0,1-12.586-1.362A30.858,30.858,0,0,1,1146.329,973.775Z" transform="translate(-1143.168 -960.271)"/></g></g><g transform="translate(3.047)"><g class="m"><g transform="translate(5.706 10.563)"><path class="n" d="M1160.457,950.262c-.082-2.18-.189-5.089-.273-7.273.054,1.5.214,5.552.275,7.107C1160.457,950.153,1160.455,950.209,1160.457,950.262Z" transform="translate(-1160.184 -942.99)"/></g><g transform="translate(0.002 7.502)"><path class="o" d="M1212.135,935.407q.156,4.028.308,8.053c.078,2.052-2.613,4.216-8.18,6.082-12.019,4.026-32.894,5.124-46.628,2.456-7.373-1.435-11.188-3.664-11.279-6.044l-.305-8.052c.089,2.38,3.9,4.608,11.28,6.044,13.731,2.667,34.608,1.566,46.629-2.457C1209.525,939.624,1212.213,937.459,1212.135,935.407Z" transform="translate(-1146.051 -935.407)"/></g><path class="n" d="M1200.855,918.277c13.731,2.673,15.123,8.1,3.1,12.127s-32.9,5.124-46.629,2.457-15.123-8.1-3.1-12.126S1187.12,915.608,1200.855,918.277Zm-39.789,13.329c11.375,2.213,28.664,1.3,38.621-2.034s8.807-7.832-2.569-10.042-28.664-1.3-38.622,2.034-8.8,7.833,2.569,10.042" transform="translate(-1146.047 -916.82)"/><path class="o" d="M1205.5,921.752c11.376,2.209,12.525,6.706,2.569,10.042s-27.247,4.246-38.621,2.033-12.525-6.7-2.569-10.041S1194.129,919.54,1205.5,921.752Z" transform="translate(-1154.432 -919.041)"/><path class="p" d="M1166.883,924.789c9.957-3.335,27.248-4.246,38.622-2.037,5.661,1.1,8.787,2.769,9.276,4.576.566-2.184-2.58-4.275-9.276-5.577-11.374-2.212-28.665-1.3-38.622,2.034-5,1.677-7.2,3.644-6.705,5.469C1160.575,927.73,1162.789,926.16,1166.883,924.789Z" transform="translate(-1154.434 -919.041)"/><path class="p" d="M1153.871,950.278v7.89a29.669,29.669,0,0,0,8.428,2.7,84.472,84.472,0,0,0,12.284,1.346v-8.037a85.573,85.573,0,0,1-12.588-1.361A30.977,30.977,0,0,1,1153.871,950.278Z" transform="translate(-1150.713 -936.773)"/></g></g></g><g transform="translate(954.088 558.423)"><g transform="translate(0 20.6)"><g transform="translate(0 9.483)"><g class="m"><g transform="translate(5.707 10.562)"><path class="n" d="M1026.36,1164.871c-.082-2.18-.193-5.092-.275-7.273.054,1.5.214,5.552.275,7.107C1026.358,1164.761,1026.358,1164.816,1026.36,1164.871Z" transform="translate(-1026.085 -1157.598)"/></g><g transform="translate(0.003 7.503)"><path class="o" d="M1078.039,1150.017q.152,4.022.3,8.051c.077,2.054-2.613,4.218-8.177,6.081-12.02,4.03-32.9,5.128-46.631,2.458-7.373-1.436-11.188-3.665-11.278-6.044l-.3-8.052c.09,2.378,3.905,4.61,11.279,6.041,13.731,2.669,34.609,1.57,46.626-2.455C1075.425,1154.231,1078.115,1152.068,1078.039,1150.017Z" transform="translate(-1011.953 -1150.017)"/></g><path class="n" d="M1066.753,1132.885c13.733,2.672,15.125,8.1,3.1,12.127s-32.895,5.124-46.626,2.455-15.123-8.1-3.1-12.122S1053.019,1130.218,1066.753,1132.885Zm-39.79,13.332c11.375,2.209,28.667,1.3,38.624-2.037s8.807-7.83-2.569-10.039-28.665-1.3-38.622,2.032-8.807,7.833,2.567,10.044" transform="translate(-1011.946 -1131.429)"/><path class="o" d="M1071.4,1136.362c11.375,2.209,12.524,6.7,2.569,10.039s-27.248,4.246-38.624,2.036-12.522-6.708-2.567-10.044S1060.031,1134.15,1071.4,1136.362Z" transform="translate(-1020.33 -1133.651)"/><path class="p" d="M1032.782,1139.4c9.957-3.337,27.251-4.248,38.622-2.038,5.66,1.1,8.788,2.768,9.275,4.576.568-2.183-2.58-4.276-9.275-5.576-11.371-2.212-28.665-1.3-38.622,2.032-5,1.677-7.2,3.645-6.706,5.468C1026.476,1142.339,1028.687,1140.771,1032.782,1139.4Z" transform="translate(-1020.332 -1133.651)"/><g transform="translate(13.872 4.245)"><path class="p" d="M1072.551,1148.155c.852.776.2,1.7-2.053,2.45a31.163,31.163,0,0,1-10.187,1.124,25.634,25.634,0,0,1-3.587-.4l-.612-.122-.222.073-.851.286-.5-.1-2.559-.5,1.069-.357-1.835-.359-.219.074-.85.285-.5-.1-2.561-.5,1.07-.36-1.838-.357,2.459-.823.218-.074,1.336.26.5.1,7.507-2.513,2.679-.9,6.429-2.152-1.839-.358,2.461-.825.22-.075,1.334.261.5.1.852-.285.22-.074,3.059.6-1.074.358,1.336.26.5.1.853-.283.217-.075,3.061.6-1.071.359c3.713.721,4.092,2.194.842,3.285A24.857,24.857,0,0,1,1072.551,1148.155Zm-11.2,2.5a18.334,18.334,0,0,0,6.089-.648c2.071-.693,1.833-1.631-.533-2.09l-5.512-1.071-.218.072-7.282,2.442,5.507,1.071a14.2,14.2,0,0,0,1.95.225m8.936-6.787-6.211,2.079,4.894.952a12.127,12.127,0,0,0,1.623.19,15.669,15.669,0,0,0,5.269-.552c1.776-.6,1.571-1.4-.46-1.792l-4.894-.95-.22.073" transform="translate(-1046.314 -1141.946)"/></g><g transform="translate(13.872 3.242)"><path class="q" d="M1072.551,1145.672c.852.773.2,1.7-2.053,2.448a31.149,31.149,0,0,1-10.187,1.122,24.974,24.974,0,0,1-3.587-.4l-.612-.117-.222.073-.851.283-.5-.1-2.559-.5,1.069-.359-1.835-.356-.219.072-.85.285-.5-.1-2.561-.5,1.07-.36-1.838-.357,2.459-.826.218-.073,1.336.258.5.1,7.507-2.514,2.679-.9,6.429-2.153-1.839-.36,2.461-.822.22-.075,1.334.26.5.1.852-.285.22-.074,3.059.6-1.074.358,1.336.258.5.1.853-.288.217-.072,3.061.6-1.071.359c3.713.723,4.092,2.194.842,3.283A24.793,24.793,0,0,1,1072.551,1145.672Zm-11.2,2.5a18.218,18.218,0,0,0,6.089-.649c2.071-.692,1.833-1.628-.533-2.087l-5.512-1.073-.218.073-7.282,2.44,5.507,1.073a14.469,14.469,0,0,0,1.95.223m8.936-6.784-6.211,2.078,4.894.953a11.728,11.728,0,0,0,1.623.189,15.656,15.656,0,0,0,5.269-.55c1.776-.6,1.571-1.4-.46-1.795l-4.894-.952-.22.078" transform="translate(-1046.314 -1139.461)"/></g><path class="p" d="M1019.775,1164.884v7.892a29.765,29.765,0,0,0,8.424,2.7,84.723,84.723,0,0,0,12.284,1.346v-8.038a85.334,85.334,0,0,1-12.586-1.363A30.7,30.7,0,0,1,1019.775,1164.884Z" transform="translate(-1016.615 -1151.38)"/></g></g><g transform="translate(3.046)"><g class="m"><g transform="translate(5.706 10.562)"><path class="n" d="M1033.905,1141.375c-.082-2.18-.19-5.09-.274-7.272.055,1.5.215,5.552.275,7.107C1033.905,1141.267,1033.9,1141.321,1033.905,1141.375Z" transform="translate(-1033.631 -1134.103)"/></g><g transform="translate(0.002 7.503)"><path class="o" d="M1085.583,1126.522q.156,4.024.307,8.051c.078,2.052-2.612,4.216-8.179,6.083-12.018,4.025-32.892,5.124-46.628,2.455-7.374-1.435-11.189-3.664-11.279-6.041l-.305-8.053c.09,2.378,3.9,4.606,11.28,6.041,13.733,2.67,34.609,1.568,46.63-2.457C1082.972,1130.737,1085.66,1128.573,1085.583,1126.522Z" transform="translate(-1019.498 -1126.522)"/></g><path class="n" d="M1074.3,1109.391c13.73,2.672,15.122,8.1,3.1,12.124s-32.9,5.127-46.63,2.457-15.123-8.1-3.1-12.121S1060.567,1106.722,1074.3,1109.391Zm-39.789,13.33c11.373,2.21,28.663,1.3,38.62-2.035s8.806-7.833-2.569-10.044-28.665-1.3-38.623,2.036-8.805,7.833,2.571,10.043" transform="translate(-1019.494 -1107.934)"/><path class="o" d="M1078.95,1112.862c11.374,2.211,12.525,6.707,2.569,10.044s-27.247,4.245-38.62,2.034-12.526-6.707-2.571-10.042S1067.577,1110.651,1078.95,1112.862Z" transform="translate(-1027.878 -1110.153)"/><path class="p" d="M1040.33,1115.9c9.958-3.337,27.25-4.247,38.623-2.036,5.661,1.1,8.786,2.767,9.276,4.573.567-2.181-2.58-4.275-9.276-5.577-11.373-2.211-28.665-1.3-38.623,2.036-5,1.676-7.2,3.644-6.7,5.467C1034.023,1118.84,1036.235,1117.273,1040.33,1115.9Z" transform="translate(-1027.881 -1110.153)"/><g transform="translate(13.873 4.245)"><path class="p" d="M1080.1,1124.662c.853.776.2,1.7-2.049,2.447a31.168,31.168,0,0,1-10.189,1.125,25.184,25.184,0,0,1-3.589-.4l-.612-.12-.219.072-.852.288-.5-.1-2.559-.5,1.07-.359-1.837-.356-.217.071-.853.287-.5-.1-2.56-.5,1.07-.358-1.837-.357,2.457-.823.22-.073,1.336.259.5.1,7.5-2.514,2.679-.9,6.431-2.153-1.837-.358,2.459-.824.222-.076,1.331.261.505.1.851-.285.222-.074,3.057.6-1.071.357,1.334.261.5.1.852-.286.219-.074,3.061.6-1.074.359c3.716.723,4.1,2.2.843,3.285A24.868,24.868,0,0,1,1080.1,1124.662Zm-11.2,2.5a18.278,18.278,0,0,0,6.088-.65c2.07-.693,1.832-1.629-.535-2.089l-5.508-1.071-.221.072-7.284,2.442,5.51,1.07a14.067,14.067,0,0,0,1.95.227m8.934-6.787-6.211,2.079,4.9.953a12.192,12.192,0,0,0,1.62.191,15.764,15.764,0,0,0,5.268-.553c1.777-.6,1.572-1.4-.459-1.792l-4.9-.954-.22.077" transform="translate(-1053.865 -1118.452)"/></g><g transform="translate(13.873 3.241)"><path class="q" d="M1080.1,1122.175c.853.774.2,1.7-2.049,2.45a31.179,31.179,0,0,1-10.189,1.12,24.542,24.542,0,0,1-3.589-.4l-.612-.117-.219.073-.852.284-.5-.1-2.559-.5,1.07-.357-1.837-.358-.217.076-.853.282-.5-.1-2.56-.5,1.07-.358-1.837-.358,2.457-.825.22-.074,1.336.259.5.1,7.5-2.514,2.679-.895,6.431-2.156-1.837-.359,2.459-.822.222-.074,1.331.259.505.1.851-.288.222-.074,3.057.6-1.071.358,1.334.258.5.1.852-.287.219-.073,3.061.6-1.074.359c3.716.723,4.1,2.2.843,3.282A24.774,24.774,0,0,1,1080.1,1122.175Zm-11.2,2.5a18.208,18.208,0,0,0,6.088-.65c2.07-.692,1.832-1.627-.535-2.088l-5.508-1.072-.221.075-7.284,2.441,5.51,1.074a14.667,14.667,0,0,0,1.95.221m8.934-6.788-6.211,2.081,4.9.951a11.4,11.4,0,0,0,1.62.19,15.7,15.7,0,0,0,5.268-.551c1.777-.6,1.572-1.4-.459-1.794l-4.9-.95-.22.072" transform="translate(-1053.865 -1115.964)"/></g><path class="p" d="M1027.318,1141.388v7.892a29.686,29.686,0,0,0,8.427,2.7,84.606,84.606,0,0,0,12.284,1.347v-8.038a85.187,85.187,0,0,1-12.587-1.362A30.826,30.826,0,0,1,1027.318,1141.388Z" transform="translate(-1024.16 -1127.885)"/></g></g></g><g transform="translate(0 0)"><g transform="translate(0 9.484)"><g class="m"><g transform="translate(5.707 10.562)"><path class="n" d="M1026.36,1113.833c-.082-2.18-.193-5.092-.275-7.272.054,1.5.214,5.552.275,7.107C1026.358,1113.724,1026.358,1113.778,1026.36,1113.833Z" transform="translate(-1026.085 -1106.561)"/></g><g transform="translate(0.003 7.504)"><path class="o" d="M1078.039,1098.983q.152,4.023.3,8.049c.077,2.053-2.613,4.218-8.177,6.083-12.02,4.025-32.9,5.124-46.631,2.454-7.373-1.435-11.188-3.662-11.278-6.041l-.3-8.053c.09,2.381,3.905,4.608,11.279,6.042,13.731,2.671,34.609,1.571,46.626-2.457C1075.425,1103.2,1078.115,1101.031,1078.039,1098.983Z" transform="translate(-1011.953 -1098.983)"/></g><path class="n" d="M1066.753,1081.848c13.733,2.671,15.125,8.1,3.1,12.124s-32.895,5.128-46.626,2.457-15.123-8.1-3.1-12.122S1053.019,1079.18,1066.753,1081.848Zm-39.79,13.328c11.375,2.214,28.667,1.3,38.624-2.033s8.807-7.832-2.569-10.044-28.665-1.3-38.622,2.036-8.807,7.833,2.567,10.042" transform="translate(-1011.946 -1080.392)"/><path class="o" d="M1071.4,1085.32c11.375,2.212,12.524,6.708,2.569,10.044s-27.248,4.247-38.624,2.034-12.522-6.706-2.567-10.042S1060.031,1083.111,1071.4,1085.32Z" transform="translate(-1020.33 -1082.612)"/><path class="p" d="M1032.782,1088.359c9.957-3.336,27.251-4.247,38.622-2.038,5.66,1.1,8.788,2.769,9.275,4.576.568-2.18-2.58-4.273-9.275-5.577-11.371-2.209-28.665-1.3-38.622,2.036-5,1.678-7.2,3.645-6.706,5.468C1026.476,1091.3,1028.687,1089.732,1032.782,1088.359Z" transform="translate(-1020.332 -1082.612)"/><g transform="translate(13.872 4.244)"><path class="p" d="M1072.551,1097.117c.852.775.2,1.7-2.053,2.448a31.176,31.176,0,0,1-10.187,1.125,24.945,24.945,0,0,1-3.587-.4l-.612-.119-.222.074-.851.285-.5-.1-2.559-.495,1.069-.359-1.835-.36-.219.076-.85.284-.5-.1-2.561-.5,1.07-.356-1.838-.358,2.459-.823.218-.075,1.336.26.5.1,7.507-2.514,2.679-.9,6.429-2.156-1.839-.357,2.461-.823.22-.076,1.334.262.5.1.852-.287.22-.073,3.059.6-1.074.358,1.336.259.5.1.853-.286.217-.073,3.061.593-1.071.359c3.713.722,4.092,2.2.842,3.284A24.813,24.813,0,0,1,1072.551,1097.117Zm-11.2,2.5a18.339,18.339,0,0,0,6.089-.65c2.071-.693,1.833-1.629-.533-2.091l-5.512-1.072-.218.077-7.282,2.438,5.507,1.073a14.514,14.514,0,0,0,1.95.225m8.936-6.786-6.211,2.079,4.894.952a12.185,12.185,0,0,0,1.623.19,15.746,15.746,0,0,0,5.269-.551c1.776-.6,1.571-1.4-.46-1.792l-4.894-.952-.22.075" transform="translate(-1046.314 -1090.907)"/></g><g transform="translate(13.872 3.24)"><path class="q" d="M1072.551,1094.631c.852.774.2,1.7-2.053,2.447a31.117,31.117,0,0,1-10.187,1.124,24.865,24.865,0,0,1-3.587-.4l-.612-.116-.222.072-.851.286-.5-.1-2.559-.5,1.069-.358-1.835-.357-.219.073-.85.284-.5-.1-2.561-.5,1.07-.358-1.838-.358,2.459-.826.218-.073,1.336.26.5.1,7.507-2.512,2.679-.9,6.429-2.154-1.839-.359,2.461-.825.22-.073,1.334.259.5.1.852-.286.22-.076,3.059.6-1.074.359,1.336.259.5.1.853-.286.217-.076,3.061.6-1.071.359c3.713.722,4.092,2.194.842,3.282A24.838,24.838,0,0,1,1072.551,1094.631Zm-11.2,2.5a18.264,18.264,0,0,0,6.089-.648c2.071-.7,1.833-1.63-.533-2.088l-5.512-1.075-.218.075-7.282,2.441,5.507,1.073a14.9,14.9,0,0,0,1.95.222m8.936-6.788-6.211,2.081,4.894.952a11.523,11.523,0,0,0,1.623.189,15.69,15.69,0,0,0,5.269-.551c1.776-.6,1.571-1.4-.46-1.793l-4.894-.951-.22.072" transform="translate(-1046.314 -1088.418)"/></g><path class="p" d="M1019.775,1113.848v7.891a29.7,29.7,0,0,0,8.424,2.7,84.592,84.592,0,0,0,12.284,1.348v-8.038a84.944,84.944,0,0,1-12.586-1.362A30.842,30.842,0,0,1,1019.775,1113.848Z" transform="translate(-1016.615 -1100.344)"/></g></g><g transform="translate(3.046)"><g class="m"><g transform="translate(5.706 10.562)"><path class="n" d="M1033.905,1090.337c-.082-2.18-.19-5.089-.274-7.273.055,1.5.215,5.552.275,7.106C1033.905,1090.227,1033.9,1090.282,1033.905,1090.337Z" transform="translate(-1033.631 -1083.064)"/></g><g transform="translate(0.002 7.502)"><path class="o" d="M1085.583,1075.481q.156,4.026.307,8.052c.078,2.052-2.612,4.217-8.179,6.083-12.018,4.025-32.892,5.123-46.628,2.456-7.374-1.436-11.189-3.664-11.279-6.042l-.305-8.053c.09,2.38,3.9,4.607,11.28,6.042,13.733,2.668,34.609,1.567,46.63-2.455C1082.972,1079.7,1085.66,1077.532,1085.583,1075.481Z" transform="translate(-1019.498 -1075.481)"/></g><path class="n" d="M1074.3,1058.351c13.73,2.672,15.122,8.1,3.1,12.128s-32.9,5.124-46.63,2.456-15.123-8.1-3.1-12.125S1060.567,1055.684,1074.3,1058.351Zm-39.789,13.33c11.373,2.212,28.663,1.3,38.62-2.035s8.806-7.832-2.569-10.042-28.665-1.3-38.623,2.035-8.805,7.831,2.571,10.042" transform="translate(-1019.494 -1056.895)"/><path class="o" d="M1078.95,1061.823c11.374,2.21,12.525,6.707,2.569,10.042s-27.247,4.246-38.62,2.035-12.526-6.706-2.571-10.042S1067.577,1059.611,1078.95,1061.823Z" transform="translate(-1027.878 -1059.114)"/><path class="p" d="M1040.33,1064.862c9.958-3.335,27.25-4.248,38.623-2.037,5.661,1.1,8.786,2.768,9.276,4.578.567-2.185-2.58-4.277-9.276-5.579-11.373-2.212-28.665-1.3-38.623,2.035-5,1.677-7.2,3.645-6.7,5.469C1034.023,1067.8,1036.235,1066.233,1040.33,1064.862Z" transform="translate(-1027.881 -1059.114)"/><path class="p" d="M1027.318,1090.354v7.888a29.675,29.675,0,0,0,8.427,2.7,84.555,84.555,0,0,0,12.284,1.347v-8.038a85.389,85.389,0,0,1-12.587-1.361A30.953,30.953,0,0,1,1027.318,1090.354Z" transform="translate(-1024.16 -1076.849)"/></g></g></g></g><g transform="translate(1157.785 513.124)"><path class="r" d="M1583.574,948.629c-26.032-9.7-52.979-1.885-63.563,26.518s4.679,51.945,30.715,61.644c20.306,7.567,32.662-4.045,54.009-9.853,4.223-1.151,16.414,6.116,16.414,6.116l13.233-35.513s-13.976-2.481-16.414-6.116C1605.623,973.063,1603.884,956.2,1583.574,948.629Z" transform="translate(-1516.618 -944.663)"/><path class="o" d="M1632.749,1118.653c-29.5,8.027-46.573,24.073-74.635,13.617a87.917,87.917,0,0,1-16.748-8.306c5.951,7.156,14.26,12.816,24.12,16.489,20.305,7.566,32.662-4.045,54.009-9.853,4.223-1.151,16.415,6.116,16.415,6.116l6.069-16.289C1638.344,1119.009,1634.839,1118.083,1632.749,1118.653Z" transform="translate(-1531.377 -1048.325)"/><path class="s" d="M1775.038,1110.892l4.9,1.825a15.681,15.681,0,0,0,20.17-9.218l2.737-7.347a15.683,15.683,0,0,0-9.221-20.169l-4.894-1.823Z" transform="translate(-1670.734 -1021.891)"/><path class="t" d="M1612.3,1043.909l-5.255-8.354,9.445-2.895-5.251-8.361,9.445-2.894-5.247-8.373,9.446-2.894-5.246-8.378,9.453-2.915" transform="translate(-1570.549 -976.975)"/><path class="t" d="M1641.982,1100.341l27.313.907,30.821,11.484" transform="translate(-1591.382 -1037.506)"/><path class="t" d="M1667.418,1032.075l21.246,17.189,30.821,11.485" transform="translate(-1606.552 -996.794)"/><rect class="u" width="24.501" height="4.072" transform="matrix(0.349, -0.937, 0.937, 0.349, 110.558, 79.943)"/><rect class="u" width="17.639" height="4.071" transform="matrix(0.349, -0.937, 0.937, 0.349, 117.446, 82.51)"/></g><g transform="translate(1029.996 403.024)"><g transform="translate(20.074 84.388)"><path class="v" d="M1284.563,885.069l15.744,64s12.464,6.493,12.319-9.872-3.5-52.812-3.5-52.812Z" transform="translate(-1270.511 -883.41)"/><rect class="w" width="7.632" height="13.499" transform="translate(33.164 107.341)"/><path class="w" d="M1253.027,1152.953l-.814,10.161,7.329.945.612-12.285Z" transform="translate(-1251.218 -1042.467)"/><path class="h" d="M1264.965,887.061l.4,68.385s4.843,11.023,8.07,7.352c2.5-2.848,10.567-34.819,13.514-56.263.854-6.236,8.707-15.557,8.2-21.184C1294.912,882.721,1264.965,887.061,1264.965,887.061Z" transform="translate(-1258.823 -883.074)"/><path class="x" d="M1332.071,1179.311h5.573v-1.969l2.423,1.969h14.059s-.24-2.671-9.7-3.092c-2.424-.109-4.117-3.938-4.117-3.938s-1.212-1.265-3.032,1.689c-.473.766-5.571-.706-5.571-.706S1331.225,1177.2,1332.071,1179.311Z" transform="translate(-1298.546 -1054.537)"/><path class="x" d="M1251.458,1179.955l5.575.284.063-1.993,2.361,2.121,14.059.733s-.157-2.721-9.6-3.639c-2.421-.238-4-4.207-4-4.207s-1.17-1.346-3.083,1.555c-.5.753-5.555-1-5.555-1S1250.676,1177.771,1251.458,1179.955Z" transform="translate(-1250.529 -1055.091)"/><rect class="h" width="33.041" height="3.372" transform="translate(6.144 0.477)"/><rect class="v" width="1.212" height="4.52" transform="translate(35.5)"/><rect class="v" width="1.213" height="4.52" transform="translate(24.523)"/><rect class="v" width="1.214" height="4.52" transform="translate(10.834)"/><path class="h" d="M1256.726,1011.912l-6.978,62.464,10.061.676s10.147-63.922,9.077-66.338C1266.115,1002.447,1257.064,1009.856,1256.726,1011.912Z" transform="translate(-1249.748 -955.678)"/><path class="v" d="M1323.2,1014.778l2.631,63.261,9.229-.9s2.681-64.114-.712-66.459S1323.2,1011.85,1323.2,1014.778Z" transform="translate(-1293.555 -957.864)"/></g><path class="c" d="M1315.181,755.558s-6.734,2.8,1.508,23.056,12.48,17.606,12.48,17.606l5.459-.745,9.55-13.286-6.076-4.921-1.112.513a3.018,3.018,0,0,1-1.8-1.977c-.281-1.4-3.889-7.332-7.589-19.086C1324.87,748.029,1316.475,755.01,1315.181,755.558Z" transform="translate(-1267.151 -719.895)"/><path class="y" d="M1369.811,826.951s11.486,6.276,18.467,7.051c4.678.521-4.982,5.736-14.592,6.774s-13.336.612-15.411-2.769S1369.811,826.951,1369.811,826.951Z" transform="translate(-1294.269 -764.362)"/><path class="e" d="M1353.84,814.953l3.288-2.44,1.372-.9a3.242,3.242,0,0,0,1.637,1.487l-2.8,1.333-2.993,2.2L1351.4,820.8Z" transform="translate(-1290.298 -755.217)"/><path class="e" d="M1289.643,808.025l-34-.383-3.638-42.131s-3.3-23.132,9.128-24.418c13.673-1.414,28.471,4,28.471,4S1297.409,748.637,1289.643,808.025Z" transform="translate(-1230.785 -713.018)"/><path class="z" d="M1309.838,677.938s1.8,18.205-2.308,20.344c-.177.089-3.1.217-4.635,1.593-1.44,1.3-1.5,2.76-2.012,3.335a14.506,14.506,0,0,1-1.13,1.741c-1.551,1.357-2.808-.378-3.685-.776-2.132-.97-2.694,1.607-3.023.7-.224-.622-2.214-1.562-1.716-2.348,1.065-1.673,3.713-8.512,3.6-9.875-.327-3.99-4.637-11.363,2.33-15.848C1299.3,675.5,1309.344,676.764,1309.838,677.938Z" transform="translate(-1254.424 -674.488)"/><path class="c" d="M1297.228,742.9l-.627,4.4-8.092-6.719.938-1.642Z" transform="translate(-1252.791 -711.872)"/><path class="c" d="M1313.23,741.732l1.251,1.058.071,4.662-3.194-2.785Z" transform="translate(-1266.417 -713.54)"/><path class="y" d="M1314.092,720.314s-.569-.312-1.59-.991a10.289,10.289,0,0,0-1.9-1.043c-2.473-.765-2.4-.523-3.808-1.278a41.633,41.633,0,0,1-4.617-3.348s.982,1.86,1.36,2.609a5.16,5.16,0,0,0,2.757,2.487c4.206,1.768,3.928,2.082,4.5,2.1A22.1,22.1,0,0,1,1314.092,720.314Z" transform="translate(-1260.944 -696.795)"/><path class="z" d="M1336.029,698.9a36.6,36.6,0,0,0,1.376,3.79c.219.54.521,1.221.421,1.412a5.609,5.609,0,0,1-.9.942c-.247.2-1.19,1.033-1.35-.359A40.717,40.717,0,0,1,1336.029,698.9Z" transform="translate(-1280.843 -687.993)"/><path class="v" d="M1299.414,673.422c3.382-2.645,10.179-1.925,14.808,2.513a3.2,3.2,0,0,1-1.8,1.957,8.371,8.371,0,0,0-7.087-2.994c-4.609.518-1.442,2.753-2.517,3.872-.9.944-1.75,1.745-1.75,1.745l-.7,2.561-1.208.132s-.644-2.756-1.257-1.944c-.744.986-.418,3.051-.4,3.345s.06.783-.085.865a32.847,32.847,0,0,1-.133,4.325c-.567.007-1.267-.776-1.606-2.475C1294.922,683.5,1295.292,676.653,1299.414,673.422Z" transform="translate(-1256.879 -671.884)"/><path class="z" d="M1299.386,694.706a1.876,1.876,0,0,0-.167,3.749" transform="translate(-1258.109 -685.493)"/><path class="y" d="M1332.934,710.926a19.36,19.36,0,0,1,2.416-.471c.226.059.784.133.8.356s-.328.786-1.416,1.391C1334.465,712.347,1334.62,711.792,1332.934,710.926Z" transform="translate(-1279.284 -694.884)"/><path class="z" d="M1220.17,851.56l11.613,29.885s-2.326.934-3.832-.116c-4.084-2.85-11.506-10.971-14.264-15.546a79.846,79.846,0,0,1-6.174-13.186Z" transform="translate(-1204.486 -779.038)"/><path class="y" d="M1427.791,839.754l7.693-4.461,4.957.566s.561,1.162-1.131,2.011a13.5,13.5,0,0,1-3.826,1.106l-3.3,4.914s3.22,1.906,4.073,1.487,4.2-2,4.2-2-1.939,4.137-4.008,4.137a40.063,40.063,0,0,1-5.818-.258c-1.552-.259-2.069-4.655-3.62-5.431S1427.791,839.754,1427.791,839.754Z" transform="translate(-1335.074 -769.337)"/><g transform="translate(79.87 2.478)"><path class="z" d="M1441.078,845.8l2.292.8,9.415-3.1-3.682-6.619-1.233,1.95-3.288-.133-4.133,5.78Z" transform="translate(-1423.274 -772.764)"/><g transform="translate(0 12.085)"><path class="z" d="M1438.145,750.082l-19.121-17.487s-1.272,1.537-.792,2.942c1.311,3.8,6.007,11.438,8.988,14.661a68.044,68.044,0,0,0,8.982,7.933Z" transform="translate(-1409.959 -722.654)"/><path class="z" d="M1412.738,729.316l-2.414-2.053a10.892,10.892,0,0,1-2.19-2.456c-.995-1.536-.427-3.026.86-4.253a4.711,4.711,0,0,1,2.26-1.365s2.079.922,1.816,2.781,1.61,5.963.9,6.26A3.226,3.226,0,0,0,1412.738,729.316Z" transform="translate(-1403.699 -714.659)"/><path class="z" d="M1411.367,712.864l-2.4-2.59-2.343-2.309-.3.677,1.435,1.868.766,3.91.948-.52Z" transform="translate(-1402.921 -707.965)"/><path class="z" d="M1403.317,714.654l-2.583-1.351-.469.568,2.308,1.794,1.672,2.628,1.614-1.21Z" transform="translate(-1399.308 -711.149)"/><path class="z" d="M1399.061,717.611l2.126.945,1.5.435,1.031,1.375-.961,1.369-1.065-1.519-2.587-1.72Z" transform="translate(-1398.591 -713.718)"/><path class="z" d="M1397.9,723.271l4.063,1.04.667,1.025-.605.974-1.648-1.141-2.187-1.23Z" transform="translate(-1397.896 -717.093)"/><path class="z" d="M1419.816,726.127a4.266,4.266,0,0,1-1.026-3.321s.6-4.965-.132-5.785a8.574,8.574,0,0,1-1.184-2.939s-.623-.792-.889,1.217a8.317,8.317,0,0,0,.077,2.486s-1.342,2.708-1.238,3.586c.2,1.812,3.462,4.993,3.462,4.993S1419.984,726.3,1419.816,726.127Z" transform="translate(-1408.346 -711.521)"/><path class="c" d="M1485.992,759.482l-21.263,3.929-.813,1.384-1.235-1.011-2.7,8.152,6.123,4.6,28.943-5.893a17.5,17.5,0,0,0,8.47-11.24C1505.079,753.409,1487.755,759.231,1485.992,759.482Z" transform="translate(-1434.924 -737.032)"/><path class="e" d="M1466.245,783.567s-.307-5.861-.358-8.919l-.354.607-1.237-1.012-.908,2.829-.692,4.2,1.533.884.494-1.186Z" transform="translate(-1436.541 -747.491)"/></g><g transform="translate(25.214)"><path class="y" d="M1549.809,714.769c-.058,2.7,1.14,5.182,2.642,5.454l4.317.456c1.532.047,3.219-2.128,3.725-4.784q1.23-6.58,2.463-13.161c.511-2.629.038-8.065-2.094-9.881a5.766,5.766,0,0,0-6.609-.7c-2.46,1.333-4.061,6.55-4.106,9.226Q1549.98,708.071,1549.809,714.769Z" transform="translate(-1513.706 -686.017)"/><path class="z" d="M1484.329,847.278l-23.965.709s17.757,10.692,24.21,5.3S1484.329,847.278,1484.329,847.278Z" transform="translate(-1460.364 -778.963)"/><path class="aa" d="M1547.284,1194.695l.05,2.435,13.529-.288.179-6.546-8.163-.1S1548.563,1194.319,1547.284,1194.695Z" transform="translate(-1512.201 -983.473)"/><path class="v" d="M1531.824,893.166s-6.152,40.241-13.085,57.991c-6.138,15.729-14.116-4.392-14.116-4.392l10.386-67.519,19.436-1.891S1535.793,877.821,1531.824,893.166Z" transform="translate(-1486.759 -796.9)"/><path class="h" d="M1537.714,882.188l-1.847,25.9,3.417,1.912s2.768,38.357,3.449,40.285c3.886,11.038,13.191,4.169,14.4.435s2.773-31.2,1.921-51.194l-.854-20Z" transform="translate(-1505.392 -798.195)"/><path class="h" d="M1552.849,1024.616s-1.415,6.871-.917,19.8c.319,8.194,1.58,29.882,3.427,46.007.115.988,8.166.068,8.166.068s3.8-52.551,4.018-62.713C1567.609,1024.717,1559.14,1017.244,1552.849,1024.616Z" transform="translate(-1514.909 -882.844)"/><path class="e" d="M1533.546,749.385l12.658-2.831,6.494,7.306s4.816,6.457,4.922,20.961c.105,14.538-4.819,41.47-4.819,41.47l-28.976-9.312S1525.175,755.937,1533.546,749.385Z" transform="translate(-1498.211 -718.893)"/><path class="c" d="M1542.607,763.3s5.595,2.877,2.909,11.191c-4.573,14.171-14.122,25.844-15.919,28.181s-8.074,8-12.263,6.125l-4.189-1.87-.284-9.448,2.776-.282,1.647-.309s5.8-9.206,10.648-18.171S1542.607,763.3,1542.607,763.3Z" transform="translate(-1491.672 -728.88)"/><path class="c" d="M1550.96,747.643l2.171,6.117,11.4-5.968-1.191-3.389Z" transform="translate(-1514.393 -717.611)"/><path class="c" d="M1546.116,748.654l.264,1.367-2.559,3.722.066-3.052Z" transform="translate(-1510.136 -720.146)"/><path class="v" d="M1499.66,1042.738s2.274.69,9.471.792c7.169.106-8.006,58.106-8.006,58.106l-10.258-3.524,6.1-58.193Z" transform="translate(-1478.556 -893.849)"/><path class="aa" d="M1488.22,1186.2l-.857,5.075-5.153.109-4.831.1-6.765.143-.038-1.856s7.993-2.956,9.538-6.082S1488.22,1186.2,1488.22,1186.2Z" transform="translate(-1466.454 -979.026)"/><g transform="translate(29.545)"><path class="v" d="M1544.167,681.2l-.292-3.074-1.268.122-3.348.319-2.02.193a4.065,4.065,0,0,0-3.656,4.431l.293,3.068,1.27-.122,3.348-.319,2.019-.192A4.057,4.057,0,0,0,1544.167,681.2Z" transform="translate(-1533.564 -678.086)"/><path class="z" d="M1555.006,701.518a3.609,3.609,0,0,1-3.251,3.933l-8.152.779a3.611,3.611,0,0,1-3.939-3.248l-1.557-16.309a3.611,3.611,0,0,1,3.251-3.94l8.153-.779a3.615,3.615,0,0,1,3.939,3.253Z" transform="translate(-1536.264 -680.358)"/><path class="v" d="M1549.106,678.042a4.06,4.06,0,0,1,3.553,1.507l1.387-.134a3.15,3.15,0,0,1,3.432,2.833l.739,7.737-2.205.211-.3-3.148a2.213,2.213,0,0,0-2.413-1.99l-1.286.122-3.346.319-2.018.193a4.057,4.057,0,0,1-4.427-3.656l-.315-3.306Z" transform="translate(-1538.539 -678.023)"/><path class="z" d="M1575.6,710.185a1.926,1.926,0,0,1,1.734-2.1l.159-.013a1.924,1.924,0,0,1,2.1,1.73l.222,2.328a1.93,1.93,0,0,1-1.735,2.1l-.159.014a1.932,1.932,0,0,1-1.865-.977" transform="translate(-1558.626 -695.939)"/></g></g></g><g transform="translate(23.018 96.512)"><path class="z" d="M1257.042,916.615s2.376-3.542,3.452-3.923,5.075-1.5,5.075-1.5l1.047-.193s.816,1.038-1.883,1.764-1.213,1.09-1.213,1.09l2.665.273,3.235.591,1.474.078a2.641,2.641,0,0,1,1.041.147c.573.485-.022.761-.022.761l-5.768.189,5.329,1.282s.654.279.628.655c-.023.356-.247.319-.247.319l-6.408-.008,2.667.972s.633.289.626.661c0,.4.008.513.008.513l-9.932-1.941Z" transform="translate(-1257.042 -910.999)"/><path class="z" d="M1278.641,925.7l3.693,1.119a3.077,3.077,0,0,1,1.2.484.521.521,0,0,1,.075.741l-5.745-1.137Z" transform="translate(-1269.458 -919.766)"/></g><path class="c" d="M1228.719,762.791,1216.6,784.423l.275,3.218.012,2.632-13.538-.936-3.335-8.977,19.275-31.416s6.375-9.061,12.356-4.969C1238.149,748.426,1229.7,760.779,1228.719,762.791Z" transform="translate(-1200.014 -714.245)"/><path class="e" d="M1211.429,840.156s6.933,2.412,10.591,3.543l-.859.2.749,1.783-3.735.059-5.316-.672-.492-2.083,1.612-.156Z" transform="translate(-1206.821 -772.237)"/></g><path class="b" d="M1925.888,1049.43c.082-.066.166-.125.248-.185-.043-.015-.087-.03-.13-.046-1.141-.448-1.877-1.293-1.643-1.889s1.348-.717,2.487-.271c.1.039.192.081.283.125-.007-.044-.016-.09-.023-.136-.183-1.212.18-2.271.813-2.367s1.295.809,1.478,2.02c.016.1.026.206.035.307.034-.03.07-.061.106-.09.956-.764,2.057-.98,2.457-.48s-.053,1.527-1.01,2.291c-.081.065-.165.125-.248.182l.13.046c1.14.448,1.876,1.293,1.643,1.888s-1.348.718-2.487.271a3.029,3.029,0,0,1-.283-.125c.008.046.016.092.023.138.184,1.212-.181,2.27-.814,2.366s-1.3-.808-1.477-2.019c-.016-.1-.026-.2-.033-.307l-.107.091c-.958.764-2.057.979-2.456.479S1924.932,1050.194,1925.888,1049.43Zm2.731.825a1.2,1.2,0,1,0-1.368-1.006A1.2,1.2,0,0,0,1928.619,1050.255Z" transform="translate(-601.977 -491.172)"/><path class="b" d="M1785.333,1017.063a5.861,5.861,0,0,0-3.013-.358,1.761,1.761,0,0,0,1.415-1.65c0-1.224-1.625-.293-2.079,1.109a13.619,13.619,0,0,0-.866-2.1c-.665-1.106-1.711-.222-1.49.773a2.415,2.415,0,0,0,1.661,2.13,4,4,0,0,0-1.775.367c-2.585,1.282-2.685,1.991-1.656,2.262a4.316,4.316,0,0,0,3.677-1.486c-.139.988-.31,2.672.226,3.3.791.928,1.653.848,1.639-1.108-.014-1.876-.278-2.132-.3-2.15a3.348,3.348,0,0,0,1.823.737C1786.453,1018.872,1786.509,1017.615,1785.333,1017.063Zm-3.9.489a.313.313,0,1,1,.369.277A.328.328,0,0,1,1781.432,1017.553Z" transform="translate(-514.07 -472.622)"/><g transform="translate(1289.244 560.045)"><path class="b" d="M1844.259,1063.89a2.357,2.357,0,0,0-1.339.3c-1.057.748-.589,1.49.3,1.339a4.2,4.2,0,0,0,2-1.124c.3-.3-.965.673-.291,1.637s1.481-1.642-.009-2.38,1.27,1.409,2.089,1.777,1.068-.552.545-1.034c-.392-.361-.758-1.03-3.125-.211s1.229.5,2.2-1.264.746-2.207.049-1.953-2.474,2.381-.851,3.38-.158-.047-.515-.77c-.246-.5-.928-1.922-1.589-2.1-.822-.217-1.283.171-.5,1.285S1844.259,1063.89,1844.259,1063.89Z" transform="translate(-1842.314 -1060.915)"/><path class="b" d="M1849.073,1068.03a.238.238,0,1,1-.015-.32A.228.228,0,0,1,1849.073,1068.03Z" transform="translate(-1846.109 -1064.923)"/></g><path class="d" d="M1258.468,419.858h-53.94s12.983-22.968,22.417-22.968c8.778,0,9.106,16.213,14.711,17.024s4.576-2.444,9.106-2.433C1255.023,411.491,1258.468,419.858,1258.468,419.858Z" transform="translate(-9.558 -71.757)"/><path class="c" d="M1942.523,491.771h59.745s-3.946,0-8.083-4.076c-2.061-2.03-6.306-8.489-13.354-8.512-7.152-.025-9.466,7-15.815,7.063-4.253.044-3.639-.975-7.152-.975s-5.839,2.427-8.135,3.873C1946.925,490.908,1944.984,491.68,1942.523,491.771Z" transform="translate(-612.833 -153.938)"/><g transform="translate(978.316 388.275)"><path class="h" d="M1161.11,647a30.855,30.855,0,0,0-23.01-11.616c-.57-.025-1.142-.044-1.722-.045h-.007a30.491,30.491,0,0,0-9.9,1.568c-.089.031-.176.066-.266.093.089-.027.172-.06.26-.09l3.055,9.4a22.13,22.13,0,0,1,6.849-1.087h0a22.13,22.13,0,0,1,17.933,9.142l8-5.814Q1161.726,647.758,1161.11,647Z" transform="translate(-1104.317 -635.343)"/><path class="ab" d="M1195.825,673.45a22.046,22.046,0,0,1,4.238,13.029h9.886v0c0,.578-.017,1.152-.047,1.723a.7.7,0,0,0,0,.074c.033-.6.052-1.2.052-1.8a31.9,31.9,0,0,0-5.885-18.518c-.456-.644-.628-.855-.24-.322Z" transform="translate(-1145.835 -654.421)"/><path class="a" d="M1117.06,687.656a22.169,22.169,0,1,1-19.882-39.019l-3.055-9.4c-.089.03-.171.063-.26.09-.393.133-.786.27-1.171.414-.111.041-.218.086-.333.131A31.458,31.458,0,0,0,1072,668.412c-.015.3-.015.606-.019.911,0,.135-.008.265-.008.4,0,.025,0,.05,0,.075,0,.43.012.857.03,1.284.007.13.007.255.015.386.017.332.046.662.076,1,.018.23.035.463.062.693.018.185.047.369.068.553.049.384.1.767.158,1.145,0,.022.009.042.011.064a31.814,31.814,0,0,0,2.322,7.787c.136.3.267.606.409.9a.191.191,0,0,1,.013.027,32.081,32.081,0,0,0,25.533,17.968l.193.017c.378.036.758.064,1.14.089.2.01.389.024.584.033.255.012.512.015.772.019.222.005.443.018.668.018a31.9,31.9,0,0,0,18.838-6.127Z" transform="translate(-1071.973 -637.664)"/><path class="c" d="M1190.972,739.56a30.77,30.77,0,0,0,11.568-21.492c0-.059.01-.118.014-.174.04-.439.077-.88.1-1.326,0-.025,0-.052,0-.074.025-.571.047-1.142.047-1.723v0h-9.886a22.136,22.136,0,0,1-9.141,17.934l5.812,8h0l.007-.005C1190,740.327,1190.494,739.946,1190.972,739.56Z" transform="translate(-1138.591 -682.71)"/></g><path class="c" d="M1854.919,717.455a6.794,6.794,0,0,0-6.794,6.793c0,3.754,6.794,14.04,6.794,14.04s6.794-10.286,6.794-14.04A6.794,6.794,0,0,0,1854.919,717.455Zm0,9.181a2.01,2.01,0,1,1,2.012-2.011A2.01,2.01,0,0,1,1854.917,726.636Z" transform="translate(-556.536 -296.038)"/><g transform="translate(1083.05 365.652)"><path class="r" d="M1341.626,587.9a2.34,2.34,0,0,0-1.886.965l-3.682-2.3a2.1,2.1,0,0,0,0-1.24l3.681-2.3a2.337,2.337,0,1,0-.459-1.382,2.29,2.29,0,0,0,.026.269l-3.827,2.394a2.347,2.347,0,1,0,0,3.279l3.828,2.394a2.271,2.271,0,0,0-.026.269,2.346,2.346,0,1,0,2.346-2.347Z" transform="translate(-1331.457 -579.293)"/><path class="r" d="M1354.917,582.2a1.174,1.174,0,1,1-1.173,1.173A1.175,1.175,0,0,1,1354.917,582.2Z" transform="translate(-1344.749 -581.026)"/><path class="r" d="M1335.537,595.2a1.174,1.174,0,1,1,1.174-1.174A1.175,1.175,0,0,1,1335.537,595.2Z" transform="translate(-1333.191 -587.381)"/><path class="r" d="M1354.917,605.862a1.173,1.173,0,1,1,1.174-1.172A1.175,1.175,0,0,1,1354.917,605.862Z" transform="translate(-1344.749 -593.739)"/></g><g transform="translate(1040.065 359.481)"><rect class="a" width="32.66" height="33.477" transform="translate(0 0)"/><g transform="translate(7.796 9.012)"><path class="b" d="M1268.545,590.829h-5.607a12.007,12.007,0,0,0,.673-1.809,7.817,7.817,0,0,0,0-1.37,1.317,1.317,0,0,0-1.318-1.317h-.657v2.032s-2.3,2.683-2.3,3.779v6.414a1.317,1.317,0,0,0,1.317,1.316h4.6a2.08,2.08,0,0,0,1.793-1.316l2.335-6.414A.89.89,0,0,0,1268.545,590.829Z" transform="translate(-1253.256 -586.333)"/><rect class="b" width="1.753" height="7.182" transform="translate(5.147 5.536)"/><rect class="b" width="3.126" height="9.046" transform="translate(0 4.495)"/></g></g><g transform="translate(1298.921 380.859)"><path class="e" d="M1930.2,618.729a1.765,1.765,0,0,0-1.759-1.759h-57.975a1.766,1.766,0,0,0-1.759,1.759v2.748l-2.417,2.747,2.417,3.187v2.308a1.765,1.765,0,0,0,1.759,1.759h57.975a1.764,1.764,0,0,0,1.759-1.759Z" transform="translate(-1866.291 -616.97)"/><g transform="translate(8.967 7.355)"><line class="ac" x1="18.16" transform="translate(31.598)"/><line class="ac" x1="21.97" transform="translate(7.447)"/><line class="ac" x1="5.024"/></g></g></g></svg>