<svg xmlns="http://www.w3.org/2000/svg" width="43" height="71.954" viewBox="0 0 43 71.954"><defs><style>.a{fill:#b6ba5e;}.b{fill:#a67348;}.c{fill:#9f33d4;}.d{fill:#6a34ba;}</style></defs><g transform="translate(-0.007)"><path class="a" d="M210.645,356.708l.061-20.732,2.439.007-.061,20.732Zm0,0" transform="translate(-178.528 -284.761)"/><path class="a" d="M58.629,288h2.439v28.049H58.629Zm0,0" transform="translate(-49.685 -244.098)"/><path class="b" d="M39.584,293.853l-4.146-3.109-4.147,3.109L29.828,291.9l4.878-3.659a1.217,1.217,0,0,1,1.463,0l4.878,3.659Zm0,0" transform="translate(-25.275 -244.097)"/><g transform="translate(8.943 10.965)"><path class="a" d="M58.629,71.953l2.439-.019.038,4.878-2.439.019Zm0,0" transform="translate(-58.629 -71.934)"/><path class="a" d="M58.629,167.979l2.439-.011.038,8.537-2.439.011Zm0,0" transform="translate(-58.629 -153.329)"/><path class="a" d="M211.059,119.957l2.439-.02.039,4.878-2.439.02Zm0,0" transform="translate(-187.823 -112.62)"/></g><path class="b" d="M192.014,333.853l-4.146-3.109-4.146,3.109-1.464-1.951,4.878-3.659a1.218,1.218,0,0,1,1.464,0l4.878,3.659Zm0,0" transform="translate(-154.469 -278)"/><path class="a" d="M210.734,225.64l-.1-9.735,2.439-.042.1,9.735Zm0,0" transform="translate(-178.515 -182.958)"/><path class="c" d="M3.35,373.686A5.062,5.062,0,0,0,10,376.016L4.637,364.988a2.439,2.439,0,0,0-4.411,2.081Zm0,0" transform="translate(0 -308.191)"/><path class="d" d="M72.225,373.329l3.122-6.617a2.439,2.439,0,1,0-4.411-2.081L65.57,375.658A5.063,5.063,0,0,0,72.225,373.329Zm0,0" transform="translate(-55.569 -307.834)"/><path class="c" d="M165.556,387.646a2.438,2.438,0,0,0-1.165,3.246l1.67,2.959a5.1,5.1,0,0,0,6.612,2.344l-3.87-7.384A2.439,2.439,0,0,0,165.556,387.646Zm0,0" transform="translate(-139.128 -328.356)"/><path class="c" d="M226.713,394.028l1.4-2.959a2.439,2.439,0,0,0-4.411-2.081l-3.679,7.384A5.114,5.114,0,0,0,226.713,394.028Zm0,0" transform="translate(-186.474 -328.533)"/><path class="d" d="M66.629,172.887l0,0v-.01Zm0,0" transform="translate(-56.466 -146.526)"/><path class="d" d="M66.629,76.84l.008,0v-.02Zm0,0" transform="translate(-56.466 -65.113)"/><path class="d" d="M219.059,124.84l.009,0,0-.02Zm0,0" transform="translate(-185.66 -105.796)"/><path class="c" d="M50.629,104.367V98.4a2.4,2.4,0,0,1,2.4-2.4h.078a2.4,2.4,0,0,1,2.4,2.4v5.967l-2.544,3.517Zm0,0" transform="translate(-42.905 -81.366)"/><path class="c" d="M50.629,8.391V2.4a2.4,2.4,0,0,1,2.4-2.4h.078a2.4,2.4,0,0,1,2.4,2.4V8.391l-2.543,3.493Zm0,0" transform="translate(-42.905)"/><path class="c" d="M12.352,23.342a5.194,5.194,0,0,0,6.707,2.487l-3.912-8.1a2.4,2.4,0,1,0-4.2,2.317Zm0,0" transform="translate(-9.002 -13.944)"/><path class="d" d="M65.949,25.833a5.071,5.071,0,0,0,6.6-2.487l1.37-3.3a2.4,2.4,0,1,0-4.2-2.317l-1.219,2.65Zm0,0" transform="translate(-55.89 -13.949)"/><path class="d" d="M4.264,109.691a5.192,5.192,0,0,0,6.707,2.487L8.638,108.04l-3.049-5.732a2.4,2.4,0,0,0-4.205,2.317Zm0,0" transform="translate(-0.914 -85.66)"/><path class="d" d="M65.938,112.191a5.07,5.07,0,0,0,6.6-2.487l2.882-5.063a2.4,2.4,0,0,0-4.205-2.318Zm0,0" transform="translate(-55.88 -85.673)"/><path class="c" d="M50.629,224.367V218.4a2.4,2.4,0,0,1,2.4-2.4h.078a2.4,2.4,0,0,1,2.4,2.4v5.967l-2.544,3.517Zm0,0" transform="translate(-42.905 -183.073)"/><path class="d" d="M4.264,229.691a5.192,5.192,0,0,0,6.707,2.487L8.638,228.04l-3.049-5.732a2.4,2.4,0,0,0-4.205,2.317Zm0,0" transform="translate(-0.914 -187.367)"/><path class="d" d="M65.938,232.191a5.069,5.069,0,0,0,6.6-2.487l2.882-5.063a2.4,2.4,0,0,0-4.205-2.318Zm0,0" transform="translate(-55.88 -187.38)"/><path class="c" d="M202.629,264.367V258.4a2.4,2.4,0,0,1,2.4-2.4h.078a2.4,2.4,0,0,1,2.4,2.4v5.967l-2.544,3.517Zm0,0" transform="translate(-171.734 -216.976)"/><path class="d" d="M156.264,269.691a5.192,5.192,0,0,0,6.707,2.487l-2.334-4.138-3.049-5.732a2.4,2.4,0,0,0-4.205,2.317Zm0,0" transform="translate(-129.743 -221.27)"/><path class="d" d="M217.938,272.191a5.07,5.07,0,0,0,6.6-2.487l2.882-5.063a2.4,2.4,0,0,0-4.205-2.318Zm0,0" transform="translate(-184.709 -221.283)"/><path class="c" d="M202.629,152.367V146.4a2.4,2.4,0,0,1,2.4-2.4h.078a2.4,2.4,0,0,1,2.4,2.4v5.967l-2.544,3.517Zm0,0" transform="translate(-171.734 -122.049)"/><path class="d" d="M156.264,157.691a5.192,5.192,0,0,0,6.707,2.487l-2.334-4.138-3.049-5.732a2.4,2.4,0,0,0-4.205,2.317Zm0,0" transform="translate(-129.743 -126.343)"/><path class="c" d="M217.938,160.191a5.069,5.069,0,0,0,6.6-2.487l2.882-5.063a2.4,2.4,0,0,0-4.205-2.318Zm0,0" transform="translate(-184.709 -126.356)"/><path class="c" d="M202.629,56.367V50.4a2.4,2.4,0,0,1,2.4-2.4h.078a2.4,2.4,0,0,1,2.4,2.4v5.967l-2.544,3.517Zm0,0" transform="translate(-171.734 -40.683)"/><path class="d" d="M156.264,61.691a5.192,5.192,0,0,0,6.707,2.487l-2.334-4.138-3.049-5.732a2.4,2.4,0,0,0-4.205,2.317Zm0,0" transform="translate(-129.743 -44.977)"/><path class="d" d="M217.938,64.191a5.07,5.07,0,0,0,6.6-2.487l2.882-5.063a2.4,2.4,0,0,0-4.205-2.318Zm0,0" transform="translate(-184.709 -44.99)"/></g></svg>