<svg xmlns="http://www.w3.org/2000/svg" width="66.19" height="68.554" viewBox="0 0 66.19 68.554"><defs><style>.a{fill:#fdf1a9;}.b{fill:#553b25;}.c{fill:#f8bf51;}.d{fill:#ed9c00;}</style></defs><path class="a" d="M251.728,289.869a21.228,21.228,0,0,0,8.156,3.207l2.848.474a19.522,19.522,0,0,0-3.278-10.827l-1.618-2.056.168-.118,1.3-1.037a12.292,12.292,0,0,0,4.61-9.6h-2.187a12.3,12.3,0,0,0-6.821,2.065l-3.815,2.512,1-6.35a4.137,4.137,0,1,0-8.274,0l.975,6.509-3.783-2.671a12.3,12.3,0,0,0-6.826-2.065H232a12.292,12.292,0,0,0,4.61,9.6l1.167.934-1.317,2.277a19.522,19.522,0,0,0-3.278,10.827l2.846-.473a19.534,19.534,0,0,0,7.8-3.136Zm0,0" transform="translate(-197.723 -224.995)"/><path class="b" d="M3.546,63.826a11.2,11.2,0,0,1,2.041-6.445l12.33-17.524a147.233,147.233,0,0,0,13.851-24.3L35.511,7.24A9.586,9.586,0,0,1,38.939,3.2l1.248-.836L36.641,0l-2.08,3.121a9.961,9.961,0,0,1-.611.819l-7.167,8.6A147.188,147.188,0,0,0,9.189,39.017L4.353,48.343A38.763,38.763,0,0,0,0,66.19a2.364,2.364,0,0,0,2.364,2.364H3.546A2.364,2.364,0,0,0,5.91,66.19,2.364,2.364,0,0,1,3.546,63.826Zm0,0"/><path class="b" d="M106.759,1.182,104.4,0,92.036,29.87a80.4,80.4,0,0,1-4.155,8.569L75.26,60.977a8.436,8.436,0,0,1-4.695,3.883,1.138,1.138,0,0,0,.521,2.206l2.2-.315a8.436,8.436,0,0,0,5.994-3.933l11.51-18.7a80.665,80.665,0,0,0,8.34-18.364Zm0,0" transform="translate(-59.481)"/><path class="c" d="M300.436,347.6a3.575,3.575,0,0,1-.42-.657,3.839,3.839,0,0,1-.118-.843,3,3,0,0,0-2.946-3.274,3.947,3.947,0,0,1-.776-.2,3.75,3.75,0,0,1-.625-.455,3,3,0,0,0-4.565,0,3.738,3.738,0,0,1-.624.454,3.941,3.941,0,0,1-.774.2,3,3,0,0,0-2.955,3.275,3.8,3.8,0,0,1-.118.841,3.5,3.5,0,0,1-.42.659,3.1,3.1,0,0,0,0,4.439,3.574,3.574,0,0,1,.42.657,3.841,3.841,0,0,1,.118.843,3,3,0,0,0,2.946,3.274,3.943,3.943,0,0,1,.776.2,3.753,3.753,0,0,1,.625.455,3.608,3.608,0,0,0,2.283,1.052,3.693,3.693,0,0,0,2.33-1.074,4.416,4.416,0,0,1,.616-.452,3.337,3.337,0,0,1,.591-.146,4.354,4.354,0,0,0,2.266-.966,3.238,3.238,0,0,0,.847-2.379,1.8,1.8,0,0,1,.519-1.464,3.1,3.1,0,0,0,0-4.439Zm0,0" transform="translate(-243.029 -290.722)"/><path class="d" d="M316.716,368.274h-1.159a1.181,1.181,0,0,1-.827-.33,9.318,9.318,0,0,1-2.73-6.559V360h2.364v1.385a6.941,6.941,0,0,0,1.7,4.525h.154a6.941,6.941,0,0,0,1.7-4.525V360h2.364v1.385a9.316,9.316,0,0,1-2.727,6.559A1.183,1.183,0,0,1,316.716,368.274Zm0,0" transform="translate(-265.903 -306.811)"/></svg>