<svg xmlns="http://www.w3.org/2000/svg" width="74" height="64.131" viewBox="0 0 74 64.131"><defs><style>.a{fill:#498c07;}.b{fill:#66aa25;}.c{fill:#3d7606;}</style></defs><g transform="translate(-171.45 -8.409)"><path class="a" d="M230.817,34.5a9.428,9.428,0,0,1-3.52-5.765c-.381-2.022.145-3.39.7-3.592s.956.289,1.217.724a7.031,7.031,0,0,1-.087-3.91c.493-1.449,1.3-2.55,1.651-2.521.274.023.666.609.637,1.014a7.392,7.392,0,0,1,1.13-2.781,6.882,6.882,0,0,1,2.086-2.056c.319-.116.608.087.145,1.564,1.188-2.259,4.229-4.78,4.635-4.606.253.109-.145,1.246-.406,1.622,1.217-1.941,3.448-3.3,3.853-3.128.179.076-.289,1.1-.463,1.391a9.291,9.291,0,0,1,3.621-2.608c.319-.174.116.724-.231,1.217C247.228,9.5,249.111,8.8,249.4,8.946c.209.1-.087.55,0,.666.869-.666,3.1-1.391,3.39-1.159.194.156-.116.55-.058.666s2.52-.811,2.926-.348-1.072,3.273-1.014,3.476.956-.261,1.129-.116-.057,1.854-1.419,3.215c.579-.434.724-.493.84-.434a5.919,5.919,0,0,1-1.448,4.288c.434-.232.9-.464,1.043-.406a6.023,6.023,0,0,1-2.144,3.65c.666-.348,1.129-.7,1.274-.58s-.463,2-2.4,3.39c.724-.406,1.159-.579,1.362-.376s-.609,1.593-2.259,3.186c.811-.493,1.448-.638,1.622-.521s-1.159,2.375-2.955,3.881a2.583,2.583,0,0,1,1.883-.289c.174.174-.84,2.086-3.158,3.881.956-.348,1.623-.289,1.855.029s-2.231,2.491-5.186,3.506c.783-.174,1.228-.063,1.391.087.738.68-1.141,1.424-2.606,1.209-1.827-.268-4.028-1.1-6.085-.181,2.433-3-.106-2.17.956-3.259,1.738-1.782,2.173-4.258,1.347-3.737-2.351,1.485.087-3.128-1.478-3.781,3.129-6.431,9.313-14.557,11.631-15.86-2.985,1.667-10.153,8.6-14.455,17.207C234.674,28.2,231.3,31.323,230.817,34.5Z" transform="translate(-16.681)"/><path class="a" d="M215.028,58.2c-2.955-1.477-7.963-1.184-8.025-.753a2.839,2.839,0,0,0,.985,1.333,6.726,6.726,0,0,0-4.287-.493c-1.767.29-3.273.869-3.331,1.246s.811.638,1.3.783c-1.188-.029-3.355,1.2-4.664,2.346-1.188,1.043-1.768,1.825-1.651,2.086s1.014.463,1.391.493a10.988,10.988,0,0,0-3.042,2.752,6.466,6.466,0,0,0-1.535,2.665c.087.2,1.1.087,1.361.029a12.7,12.7,0,0,0-2.665,3.1c-.811,1.419-1.043,2.463-.9,2.607s1.246-.289,1.912-.55a6.908,6.908,0,0,0-2.549,2.752c-.624,1.195-.783,2.52-.579,2.607s.985-.463,1.419-.753c-2.4,2.114-2.057,5.95-1.71,6.17a5.09,5.09,0,0,0,3.766-1.188c-.493.782-.724,1.506-.579,1.651a5.655,5.655,0,0,0,4.433-2.028,5.286,5.286,0,0,0-.174,1.623c.116.116,2.665-.435,4.809-3.1a9.993,9.993,0,0,0-.753,2.114,7.179,7.179,0,0,0,3.592-1.043,12.023,12.023,0,0,0,2.868-2.578,3.646,3.646,0,0,0-.724,2.375c.116.145,2.409-.392,5.157-4.925-.724,1.506-1.072,2.491-.869,2.694s2.463-.7,3.65-2.056a19.406,19.406,0,0,0,2.4-3.767,3.764,3.764,0,0,0-.29,2.115c.145.145,1.941-1.536,2.781-2.81a11.929,11.929,0,0,0,1.825-5.736c.376.435.637.985.84.928a11.337,11.337,0,0,0,.12-7.352c-.294-.86-3.872,5.648-3.727,3.137.12-2.093-2.694,2.738-4,2.391s-1.391-3.259-1.418-4.083c-10.939,7.176-16.338,15.545-16.846,16.481,1.553-3.526,6.025-10.77,16.187-18.744C211.769,59.369,213.811,58.761,215.028,58.2Z" transform="translate(-5.02 -14.575)"/><path class="b" d="M219.568,49.034a5.24,5.24,0,0,1-3.259,1.717c-1.314.179-1.883.057-1.963-.145s.268-.572.572-.855a6.908,6.908,0,0,1-3.107.413c-1.282-.043-2.629-.608-2.629-.89s1.108-.5,1.412-.63a9.7,9.7,0,0,1-3.39-.391c-1.151-.348-2.173-.978-2.129-1.217s.761-.521,1.065-.63c-.956-.131-3.737-1.564-3.759-1.89s.652-.479.912-.587c-.521-.174-4.171-2.846-4.193-3.28s.956-.783,2.26-1.021c.792-.145,1.629-.174,1.347-.282s-.565-.2-.565-.326.608-.717,1.869-.8,1.543.174,1.673.022-.435-.913-.783-1.065.883-.47,2.238-.2a5.719,5.719,0,0,1,2.933,1.521c.152-.434-.652-1.326-.522-1.478s2.021.109,3.563,1.825c-.152-.348-.3-.521-.2-.63s1.326.565,2.129,2c-.13-.631,0-1.651.239-1.782s2.325.977,3.542,2.8A6.025,6.025,0,0,1,220,43.45c.087-.5.2-.89.434-.912s.869,1.216.673,2.824A7.649,7.649,0,0,1,220,48.535a18.045,18.045,0,0,0-6.235-5.258,22.69,22.69,0,0,0-9.3-2.585A25.122,25.122,0,0,1,219.568,49.034Z" transform="translate(-8.278 -8.52)"/><path class="b" d="M236.275,57.269a6.273,6.273,0,0,0,1.174,5.5c.847,1.2,1.759,1.782,2,1.738s.586-.956.391-1.8a6.592,6.592,0,0,0,4.432,4.649c.369-.043.413-1.021.261-1.564,1.043,2.368,4.3,3.085,4.562,2.976s.065-1.152-.043-1.412a5.05,5.05,0,0,0,4.28,1.977c.282-.217-.174-.76-.022-.825s2.477.543,2.825.152-.239-1,.261-.782c.285.123.109-.869-.609-1.521s-1.151-1.174-.977-1.282.456-.065.5-.2-.446-1.731-2.8-2.433c.652-.022,1.195.2,1.326.109a2.827,2.827,0,0,0-1.217-2.238,8.434,8.434,0,0,0-3-1.564,8.72,8.72,0,0,0,2-.174c.109-.152-.871-1.419-2.455-2a11.465,11.465,0,0,0-3.824-.7,4.635,4.635,0,0,0,1.5-.826c.043-.174-2.064-1.673-5.279-1.281A8.464,8.464,0,0,0,236.47,56.4c8.582.348,13.384,6.518,15.3,8.908C247.029,60.745,241.293,57.421,236.275,57.269Z" transform="translate(-19.336 -13.561)"/><path class="c" d="M209.168,33.849a8.81,8.81,0,0,0-3.042-5.243c-2.028-1.564-4.925-2.028-5.214-1.8s.55,1.391.984,1.8a10.431,10.431,0,0,0-4.606-1.854,13.57,13.57,0,0,0-4.866-.261c-.232.174.638,1.593,1.448,2.2a10.93,10.93,0,0,0-5.3-1.188c-1.941-.029-3.622.463-3.592.666a7.167,7.167,0,0,0,2.375,1.274,13.673,13.673,0,0,0-5.07,0c-1.969.319-3.65,1.216-3.592,1.564s1.623.521,1.97.637c-3.853.84-5.968,3.448-5.852,3.824s1.477.174,1.8.174c-1.825.724-5.214,2.9-5.157,3.505s3.853,2.115,4.635,2.259c-.608.319-.608.348-.608.522a9.245,9.245,0,0,0,5.359,2.809c-.7.174-1.361.7-1.361.9a11.616,11.616,0,0,0,7.995,3.592c-1.941.29-2.751.319-2.781.579s2.81,2.057,6.46,2.2a8.323,8.323,0,0,1,3.592-2.23c-1.71-.84,3.418-2.695,4.258-2.695-1.8-.7-4.462-2.549-4.288-2.926s.638-.116.7-.376-3.03-1.812-4.954-2.636a23.784,23.784,0,0,0-7.068-1.854c3.418-.638,7.039.7,7.3.434s-1.8-2.193-1.651-2.665c.2-.637,3.39-1.043,3.418-1.274s-2.636-1.043-2.578-1.333,2.318-.232,3.853-.232,2.259-.289,2-.55,0-.522,1.217-.493,1.3-.522,2.289-.348,3.447,1.158,3.65.927-.782-.9-.434-1.159,2.086.406,3.3.84S209.226,34.776,209.168,33.849Z" transform="translate(0 -5.378)"/><path class="c" d="M237.051,64.242c.116.782.724,3.273.029,4.258s-1.761,2.328-1.478,2.9a9.544,9.544,0,0,0,3.274,3.216c1.767,1.043,3.534,1.825,3.708,1.68s-.757-1.827-.406-1.593a22.415,22.415,0,0,0,2.984,2.665,7.733,7.733,0,0,0,2.781,1.3c.232-.116.406-1.014.406-1.506a9.647,9.647,0,0,0,2,2.549,3.266,3.266,0,0,0,2,.985c.232-.087.058-1.1.029-1.419a6.716,6.716,0,0,0,2.723,2.81c1.506.724,2.2.637,2.346.521s-.289-1.188-.318-1.622c2.549,3.3,6.547,3.881,6.865,3.679s.376-3.708-.319-6.576c.347.261.579.434.811.319s.243-2.2-.2-3.535a11.168,11.168,0,0,0-1.564-2.984c.7.522,1.216.753,1.419.7s.261-1.8-.29-3.129a28.774,28.774,0,0,1-1.419-3.331,2.614,2.614,0,0,0,1.651.84c.232-.087.017-2.261-.608-3.244a7.3,7.3,0,0,0-2.463-2.289c.9.406,1.361.464,1.506.406a5.455,5.455,0,0,0-1.3-3.216,15.3,15.3,0,0,0-4.2-3.447,18.643,18.643,0,0,0,1.97.087,7.25,7.25,0,0,0-2.491-3.968,8.54,8.54,0,0,0-4.375-1.97,9.084,9.084,0,0,1-4.548,3.3,8.026,8.026,0,0,1,3.331,2.259,14.345,14.345,0,0,0,2.954,2.289c.464.2-.144.464-.927.376s1.878,2.021,2.926,3.013a15.194,15.194,0,0,1,2.752,3.853,16.805,16.805,0,0,0-3.476-2.463c.9,1.217,1.8,2.81,2.028,3.187s-.608.666-.232,1.564.434,2.578,1.13,4.345,2.346,5.243,2.433,6.982c-.579-1.622-1.97-4.953-3.505-6.518s-3.071-2.4-3.853-2.4-.348.782-.724.869-1.188-.7-1.767-1.188-1.014-.463-.783.2.174,1.129-.7.463a20.784,20.784,0,0,1-3.331-2.375c-.44-.431-1.274-.319-.927.289s-.753.7-1.593-.2-2.028-2.231-2.4-2.259-.087,1.216-.434,1.274-1.362-.956-2.115-1.593S236.935,63.459,237.051,64.242Z" transform="translate(-19.192 -12.249)"/><path class="b" d="M232.4,49.806a5.913,5.913,0,0,1-1.34-3.753c0-1.808.362-2.093.574-2.126s.729.565.9,1.046a6.19,6.19,0,0,1,.951-3.369c.719-1.215,1.8-2.016,2.154-1.925s.406.8.288,1.152c.527-1.147,2.226-2.431,2.813-2.222s.552,2.735.19,3.808.656.168.9.348-.166,1.443-1.02,2.39-1.4,1.594-1.27,1.773.966-.131,1.15.062-1.724,3.211-5.012,3.523c-.233-1.254.9-5.335,2.454-7.413C234.612,44.254,233.116,47.134,232.4,49.806Z" transform="translate(-17.847 -9.035)"/><path class="b" d="M230.185,55.653a5.24,5.24,0,0,0-3.61.211c-.9.44-1.4,1.012-1.363,1.224s.724.245.839.478-1.017.672-2.031,1.9-1.467,2.654-1.3,2.9.767-.037.944.184c.088.109-.322,1.242-.322,2.394a4.132,4.132,0,0,0,.67,2.5c.511.277,2.163-1.048,2.578-1.758s.878-1.377,1.151-1.307.72.942,1.036.848.788-1.256.953-2.466.275-1.415.453-1.428.5.77.735.771,1.582-2.4.261-5.907a19.163,19.163,0,0,0-5.145,6.2A14.169,14.169,0,0,1,230.185,55.653Z" transform="translate(-15.34 -14.078)"/></g></svg>