<svg xmlns="http://www.w3.org/2000/svg" width="62.275" height="63.349" viewBox="0 0 62.275 63.349"><defs><style>.a{fill:#f3d55b;}.b{fill:#f0c419;}.c{fill:#f29c1f;}.d{fill:#2c3e50;}.e{fill:#35495e;}.f{fill:#f5efca;}</style></defs><path class="a" d="M8,5.369v8.59l8.59,5.369,8.59-5.369V5.369L16.59,0Z" transform="translate(0.59)"/><path class="b" d="M17.179,18.369v8.59L8.59,32.327,0,26.958v-8.59L8.59,13Z" transform="translate(0 0.958)"/><path class="a" d="M49.179,18.369v8.59l-8.59,5.369L32,26.958v-8.59L40.59,13Z" transform="translate(2.359 0.958)"/><path class="a" d="M25.179,31.369v8.59l-8.59,5.369L8,39.958v-8.59L16.59,26Z" transform="translate(0.59 1.916)"/><path class="b" d="M17.179,44.369v8.59L8.59,58.327,0,52.958v-8.59L8.59,39Z" transform="translate(0 2.875)"/><path class="c" d="M33.179,44.369v8.59l-8.59,5.369L16,52.958v-8.59L24.59,39Z" transform="translate(1.179 2.875)"/><path class="c" d="M33.179,18.369v8.59l-8.59,5.369L16,26.958v-8.59L24.59,13Z" transform="translate(1.179 0.958)"/><path class="b" d="M24,5.369v8.59l8.59,5.369,8.59-5.369V5.369L32.59,0Z" transform="translate(1.769)"/><g transform="translate(36.498 21.467)"><path class="d" d="M36.546,25.1a1.074,1.074,0,0,1-.966-.595l-1.471-2.953a1.074,1.074,0,1,1,1.922-.958L37.5,23.548a1.074,1.074,0,0,1-.96,1.553Z" transform="translate(-33.993 -19.993)"/><path class="d" d="M41.7,25.1a1.074,1.074,0,0,1-.96-1.553l1.471-2.953a1.074,1.074,0,0,1,1.922.958L42.665,24.5a1.074,1.074,0,0,1-.962.595Z" transform="translate(-33.503 -19.992)"/><path class="d" d="M39.074,59.295A1.074,1.074,0,0,1,38,58.221V56.074a1.074,1.074,0,0,1,2.147,0v2.147A1.074,1.074,0,0,1,39.074,59.295Z" transform="translate(-33.697 -17.413)"/></g><path class="b" d="M46.291,38.516,44.885,31H34.147l-1.439,7.516A28.075,28.075,0,0,0,32,44.421c0,5.623,2.47,13.421,7.516,13.421,5.09,0,7.516-7.864,7.516-13.421A24.12,24.12,0,0,0,46.291,38.516Z" transform="translate(2.359 2.285)"/><path class="b" d="M46.242,38.516H32.66L34.1,31H44.836Z" transform="translate(2.407 2.285)"/><path class="e" d="M46.975,42.295H32.05a22.745,22.745,0,0,1,.333-2.641L32.7,38H46.287l.354,1.654a22.746,22.746,0,0,1,.333,2.641Z" transform="translate(2.362 2.801)"/><path class="b" d="M47.032,43.611a24.233,24.233,0,0,1-.15,2.684H32.15A24.233,24.233,0,0,1,32,43.611c0-.548.021-1.084.054-1.611H46.978c.032.526.054,1.063.054,1.611Z" transform="translate(2.359 3.096)"/><path class="e" d="M46.871,46a19.833,19.833,0,0,1-.945,4.295H33.085A19.834,19.834,0,0,1,32.14,46Z" transform="translate(2.369 3.391)"/><path class="b" d="M45.862,50c-1.321,3.865-3.7,6.442-6.421,6.442S34.341,53.865,33.02,50Z" transform="translate(2.434 3.685)"/><path class="e" d="M44.737,30.516V28.369a5.369,5.369,0,0,0-10.737,0v4.295Z" transform="translate(2.506 1.695)"/><path class="f" d="M20,35.369c0,2.965,5.4,5.369,10.737,5.369s9.663-6.7,9.663-9.663C40.4,30,36.075,30,30.737,30S20,32.4,20,35.369Z" transform="translate(1.474 2.211)"/><path class="f" d="M59.4,35.369c0,2.963-5.4,5.369-10.737,5.369a7.047,7.047,0,0,1-2.534-.494,10.126,10.126,0,0,1-2.716-1.654,14.034,14.034,0,0,1-3.339-4.145A7.752,7.752,0,0,1,39,31.074c0-.183.118-.322.344-.451h.011a6.164,6.164,0,0,1,2.18-.462c.795-.075,1.761-.118,2.835-.129C45.668,30,47.128,30,48.663,30,54,30,59.4,32.405,59.4,35.369Z" transform="translate(2.875 2.211)"/></svg>