<svg xmlns="http://www.w3.org/2000/svg" width="64" height="71.81" viewBox="0 0 64 71.81"><defs><style>.a{fill:#dc8758;}.b{fill:#d77f4a;}.c{fill:#fdb441;}.d{fill:#fec165;}</style></defs><g transform="translate(-27.138)"><g transform="translate(52.991 33.975)"><g transform="translate(0)"><path class="a" d="M219.093,250.32V255.2a21.526,21.526,0,0,1-3.579,11.883v4.292a2.569,2.569,0,1,1-5.137,0V267.08A21.526,21.526,0,0,1,206.8,255.2V250.32a15.271,15.271,0,0,1,.184-2.357l4.133-11.381,5.09-.476,2.7,11.857A15.271,15.271,0,0,1,219.093,250.32Z" transform="translate(-206.798 -236.106)"/></g></g><path class="b" d="M246.208,247.963l-2.7-11.857-3.045.285,2.639,11.572a15.27,15.27,0,0,1,.184,2.357V255.2a21.524,21.524,0,0,1-3.088,11.106,3.482,3.482,0,0,0-.491,1.8v3.271a2.567,2.567,0,0,1-1.017,2.041,2.563,2.563,0,0,0,1.764.519,2.611,2.611,0,0,0,2.364-2.625V267.08a21.526,21.526,0,0,0,3.579-11.883V250.32A15.251,15.251,0,0,0,246.208,247.963Z" transform="translate(-181.106 -202.131)"/><path class="c" d="M238.632,292.667a11.07,11.07,0,0,0-1.83,6.076v4.877a17.228,17.228,0,0,0,.4,3.691,1.466,1.466,0,0,0,2.862,0,17.218,17.218,0,0,0,.4-3.691v-4.877A11.071,11.071,0,0,0,238.632,292.667Z" transform="translate(-179.494 -250.553)"/><path class="a" d="M247.734,231.01a15.347,15.347,0,0,0,6.349,6.359l4.306,2.29a21.524,21.524,0,0,0,12.171,2.422l3.789,2.016a2.568,2.568,0,1,0,2.413-4.535l-3.789-2.016a21.526,21.526,0,0,0-8.81-8.74l-4.306-2.291c-.227-.121-.457-.234-.689-.343l-10.53-3.924-3.084,4.784Z" transform="translate(-186.986 -190.268)"/><path class="b" d="M276.707,239.533l-3.735-1.987a21.526,21.526,0,0,0-8.81-8.74l-4.305-2.29c-.227-.121-.457-.234-.689-.343l-10.53-3.924-3.084,4.784.107.2,1.618-2.509,10.53,3.924c.232.109.462.222.689.343l4.306,2.29a21.523,21.523,0,0,1,8.387,8,3.113,3.113,0,0,0,1.209,1.162l3,1.6a2.565,2.565,0,0,1,1.353,2.069,2.559,2.559,0,0,0,1.134-1.2A2.609,2.609,0,0,0,276.707,239.533Z" transform="translate(-186.986 -190.268)"/><path class="a" d="M218.912,25.977a15.349,15.349,0,0,0,.183-2.357V18.743A21.525,21.525,0,0,0,215.517,6.86V2.569a2.568,2.568,0,1,0-5.137,0V6.86A21.525,21.525,0,0,0,206.8,18.743V23.62a15.349,15.349,0,0,0,.183,2.357l.695,10.787h9.509Z" transform="translate(-153.811)"/><path class="b" d="M210.4,23.62V18.743a21.523,21.523,0,0,1,3.067-11.071,3.638,3.638,0,0,0,.511-1.873V2.569a2.561,2.561,0,0,1,.771-1.832A2.562,2.562,0,0,0,212.915,0a2.612,2.612,0,0,0-2.535,2.634V6.861A21.525,21.525,0,0,0,206.8,18.743V23.62a15.349,15.349,0,0,0,.183,2.357l.695,10.787h3.6l-.695-10.787A15.365,15.365,0,0,1,210.4,23.62Z" transform="translate(-153.81 0)"/><path class="c" d="M238.632,112.43a11.07,11.07,0,0,1-1.83-6.076v-4.877a17.229,17.229,0,0,1,.4-3.691,1.467,1.467,0,0,1,2.862,0,17.219,17.219,0,0,1,.4,3.691v4.877A11.071,11.071,0,0,1,238.632,112.43Z" transform="translate(-179.494 -82.735)"/><g transform="translate(27.138 17.679)"><path class="a" d="M57.551,136.288a15.348,15.348,0,0,0-6.372-6.4l-4.306-2.29A21.524,21.524,0,0,0,34.7,125.175l-3.789-2.016a2.568,2.568,0,1,0-2.413,4.535l3.789,2.016a21.526,21.526,0,0,0,8.81,8.74l4.306,2.29c.227.121.457.234.689.343l11.214,2.449,1.83-4.379Z" transform="translate(-27.138 -122.858)"/></g><path class="b" d="M48.806,139.027c-.232-.109-.462-.222-.689-.343l-4.306-2.29a21.522,21.522,0,0,1-8.367-7.962,3.261,3.261,0,0,0-1.263-1.214l-2.97-1.58a2.569,2.569,0,0,1-1.316-2.755,2.567,2.567,0,0,0-2.487,1.489,2.612,2.612,0,0,0,1.185,3.371l3.731,1.985a21.526,21.526,0,0,0,8.81,8.74l4.306,2.29c.227.121.457.234.689.343l11.214,2.449,1.018-2.436Z" transform="translate(-0.036 -105.196)"/><g transform="translate(27.138 17.679)"><path class="a" d="M57.551,245.662a15.347,15.347,0,0,1-6.372,6.4l-4.306,2.29A21.524,21.524,0,0,1,34.7,256.774l-3.789,2.016a2.568,2.568,0,1,1-2.413-4.535l3.789-2.016a21.526,21.526,0,0,1,8.81-8.74l4.306-2.29a15.346,15.346,0,0,1,8.915-1.7l4.094.469,1.1,2.344Z" transform="translate(-27.138 -222.64)"/><path class="b" d="M58.415,243.224l-.152-.017-1.9,3.234a15.347,15.347,0,0,1-6.372,6.4l-4.306,2.291A21.523,21.523,0,0,1,34.109,257.6a2.142,2.142,0,0,0-1.152.247l-3.232,1.72a2.568,2.568,0,0,1-2.568-.092,2.559,2.559,0,0,0,.35,1.616,2.611,2.611,0,0,0,3.465.916l3.733-1.986A21.524,21.524,0,0,0,46.874,257.6l4.306-2.29a15.347,15.347,0,0,0,6.372-6.4l1.965-3.342Z" transform="translate(-27.139 -225.889)"/><path class="c" d="M127.419,269.494a11.071,11.071,0,0,0-6.223,1.238l-4.305,2.29a17.225,17.225,0,0,0-3.071,2.086,1.467,1.467,0,0,0,1.344,2.527,17.223,17.223,0,0,0,3.446-1.381l4.305-2.29a11.071,11.071,0,0,0,4.5-4.469Z" transform="translate(-100.901 -248.352)"/><path class="a" d="M251.082,142.459a15.347,15.347,0,0,0,8.775-1.717l4.306-2.29a21.525,21.525,0,0,0,8.81-8.74l3.789-2.016a2.568,2.568,0,1,0-2.413-4.535l-3.789,2.016a21.524,21.524,0,0,0-12.171,2.422l-4.306,2.29a15.347,15.347,0,0,0-6.349,6.359l-2.18,4.273,1.289,2.018Z" transform="translate(-214.124 -122.859)"/><path class="b" d="M249.733,138.792a15.347,15.347,0,0,1,6.349-6.359l4.306-2.29a21.522,21.522,0,0,1,11.349-2.485,2.992,2.992,0,0,0,1.58-.34l3.032-1.613a2.564,2.564,0,0,1,1.776-.234,2.569,2.569,0,0,0-.39-1.29,2.614,2.614,0,0,0-3.446-.874l-3.728,1.983a21.524,21.524,0,0,0-12.171,2.422L254.083,130a15.347,15.347,0,0,0-6.349,6.359l-2.18,4.273,1.289,2.018.93-.018Z" transform="translate(-214.124 -122.973)"/><g transform="translate(26.997 13.15)"><circle class="d" cx="5.075" cy="5.075" r="5.075"/></g><path class="c" d="M218.707,219.321a5.076,5.076,0,0,1,3.1-4.674,5.075,5.075,0,1,0,0,9.349A5.076,5.076,0,0,1,218.707,219.321Z" transform="translate(-187.751 -201.096)"/><g transform="translate(12.398 7.109)"><path class="c" d="M127.419,180.466a11.071,11.071,0,0,1-6.223-1.238l-4.305-2.29a17.225,17.225,0,0,1-3.071-2.086,1.467,1.467,0,0,1,1.344-2.527,17.225,17.225,0,0,1,3.446,1.381l4.305,2.29a11.069,11.069,0,0,1,4.5,4.469Z" transform="translate(-113.3 -172.266)"/><path class="c" d="M287.614,180.466a11.071,11.071,0,0,0,6.223-1.238l4.305-2.29a17.226,17.226,0,0,0,3.071-2.086,1.467,1.467,0,0,0-1.344-2.527,17.224,17.224,0,0,0-3.446,1.381L292.118,176A11.069,11.069,0,0,0,287.614,180.466Z" transform="translate(-262.531 -172.266)"/><path class="c" d="M287.614,269.494a11.071,11.071,0,0,1,6.223,1.238l4.305,2.29a17.226,17.226,0,0,1,3.071,2.086,1.467,1.467,0,0,1-1.344,2.527,17.223,17.223,0,0,1-3.446-1.381l-4.305-2.29A11.071,11.071,0,0,1,287.614,269.494Z" transform="translate(-262.531 -255.462)"/></g></g></g></svg>