<svg xmlns="http://www.w3.org/2000/svg" width="55" height="68.875" viewBox="0 0 55 68.875"><defs><style>.a{fill:#fffae5;}.b{fill:#e6e5d0;}.c{opacity:0.5;}.d{fill:#b7b391;}.e{fill:#7cbf2d;}</style></defs><g transform="translate(-60.355 -11)"><path class="a" d="M109.644,100.7c-.053,5.189-.259,10.747-.849,12.777-.309,1.058-.821,2.6-1.4,4.291-1.33,3.847-3.038,8.48-3.6,10.022-2.664,7.246-3.67,18.374,0,23.974q.179.274.368.533l-.011.008a10.547,10.547,0,0,1-14.714-5.548q-.122-.325-.228-.662c-2-6.464,1.919-16.439,9.059-22.779a46.151,46.151,0,0,0,8.4-11.194,23.622,23.622,0,0,0,1.5-3.608A35.243,35.243,0,0,0,109.644,100.7Z" transform="translate(-24.345 -77.092)"/><path class="b" d="M92.242,146.757q-.122-.325-.228-.662c-2-6.464,1.919-16.439,9.059-22.779a45.694,45.694,0,0,0,7.785-10.077c.542-2.2.735-7.539.786-12.539a35.243,35.243,0,0,1-1.486,7.814,23.622,23.622,0,0,1-1.5,3.608,46.15,46.15,0,0,1-8.4,11.194C91.121,129.657,87.2,139.631,89.2,146.1q.105.337.228.662A10.516,10.516,0,0,0,100.7,153.4,10.418,10.418,0,0,1,92.242,146.757Z" transform="translate(-24.345 -77.092)"/><path class="a" d="M198.68,101.053c4.809,8.251,3.611,18.252,0,23.974q-.367.582-.767,1.1c-4.518,5.852-11.8,5.253-16.007-.565q-.19-.259-.368-.533c-3.67-5.6-2.664-16.728,0-23.974.566-1.542,2.274-6.175,3.6-10.022,3.061-8.465,5.957-10.722,7.174-21.441.035,1.168.072,2.4.108,3.642.166,5.458.346,11.221.446,13.508C193.184,93.974,196.56,97.415,198.68,101.053Z" transform="translate(-102.095 -50.355)"/><path class="b" d="M187.528,125.56q-.19-.259-.368-.533c-3.67-5.6-2.664-16.728,0-23.974.566-1.542,2.274-6.175,3.6-10.022.706-1.954,1.4-3.576,2.075-5.049-.1-2.641-.265-7.82-.415-12.75-.037-1.245-.073-2.474-.108-3.642-1.217,10.719-4.113,12.977-7.174,21.441-1.33,3.847-3.038,8.48-3.6,10.022-2.664,7.246-3.67,18.374,0,23.974q.179.274.368.533c2.884,3.992,7.22,5.527,11.117,4.206A11.232,11.232,0,0,1,187.528,125.56Z" transform="translate(-102.095 -50.355)"/><path class="a" d="M83.813,156.29a23.622,23.622,0,0,1-1.5,3.608,46.15,46.15,0,0,1-8.4,11.194c-7.14,6.341-11.061,16.315-9.059,22.779q.105.337.228.662l-.028.011a10.328,10.328,0,0,1-4.541-7.266c-.936-6.7,2.108-14.164,11.808-19.64,3.113-1.758,8.533-5.191,11.489-11.349Z" transform="translate(0 -124.868)"/><g class="c" transform="translate(60.355 42.892)"><path class="d" d="M71.54,250a32.564,32.564,0,0,1,.575-12.111c-9.533,5.465-12.528,12.868-11.6,19.52a10.328,10.328,0,0,0,4.542,7.266l.028-.011A10.547,10.547,0,0,0,79.8,270.214l.011-.008c2.865,3.966,7.164,5.506,11.041,4.231C81.109,271.506,73.205,262.076,71.54,250Z" transform="translate(-60.355 -237.892)"/></g><path class="a" d="M284.812,119.442c7.14,6.341,11.059,16.315,9.058,22.779-.006.018-.011.038-.018.056a10.366,10.366,0,0,1-14.763,6.116,13.373,13.373,0,0,0,.767-1.1c3.611-5.722,4.809-15.723,0-23.974-2.12-3.638-5.5-7.079-5.811-14.313-.1-2.287-.28-8.05-.446-13.508h0c.5,2.915,1.064,5.968,1.712,8.545a31.637,31.637,0,0,0,1.1,3.608A38.339,38.339,0,0,0,284.812,119.442Z" transform="translate(-183.272 -72.623)"/><path class="b" d="M281.9,148.393a13.373,13.373,0,0,0,.767-1.1c3.611-5.722,4.809-15.723,0-23.974-2.12-3.638-5.5-7.079-5.811-14.313,0-.114-.01-.239-.015-.369-.162-.345-.306-.675-.426-.986a31.635,31.635,0,0,1-1.1-3.608c-.648-2.576-1.216-5.629-1.712-8.545h0c.166,5.458.346,11.221.446,13.508.315,7.235,3.691,10.676,5.811,14.313,4.809,8.251,3.611,18.252,0,23.974q-.367.582-.767,1.1a10.33,10.33,0,0,0,6.246,1.1A10.191,10.191,0,0,1,281.9,148.393Z" transform="translate(-183.272 -72.623)"/><path class="a" d="M297.133,167.639c9.7,5.476,12.745,12.94,11.808,19.64a10.328,10.328,0,0,1-4.542,7.266l-.072-.022c.007-.018.013-.038.018-.056,2-6.464-1.917-16.439-9.058-22.779a38.34,38.34,0,0,1-8.4-11.789,31.636,31.636,0,0,1-1.1-3.608C288.747,162.448,294.02,165.88,297.133,167.639Z" transform="translate(-193.748 -124.868)"/><path class="e" d="M228.964,19.234h0c-1.217,10.719-4.113,12.977-7.174,21.441.583-1.692,1.095-3.233,1.4-4.291.59-2.03.8-7.587.849-12.777.058-5.521-.056-10.626-.056-10.626L228.725,11s.1,3.649.239,8.234Z" transform="translate(-138.744)"/></g></svg>