<svg xmlns="http://www.w3.org/2000/svg" width="63.5" height="62.405" viewBox="0 0 63.5 62.405"><defs><style>.a{fill:#3d7606;}.b{fill:#468707;}.c{fill:#f0b706;}.d{fill:#ffc206;}.e{fill:#f9eda8;}.f{fill:#f5c763;}</style></defs><path class="a" d="M28.466,0A13.138,13.138,0,0,0,15.328,13.138,13.138,13.138,0,0,0,2.19,0H0V2.19A13.138,13.138,0,0,0,13.138,15.328h4.379a13.228,13.228,0,0,0,2.463-.238c.876-.3,1.766-.576,2.686-.811A13.138,13.138,0,0,0,30.655,2.19V0Zm0,0"/><path class="b" d="M61.641,42.02a1.1,1.1,0,0,1-.774-.321l-6.89-6.89a1.095,1.095,0,0,1,1.548-1.548L60.867,38.6a1.094,1.094,0,0,0,1.548,0l8.626-8.626a1.095,1.095,0,1,1,1.548,1.548L62.415,41.7A1.1,1.1,0,0,1,61.641,42.02Zm0,0" transform="translate(-46.313 -25.598)"/><path class="a" d="M359.481,54.78a13.138,13.138,0,0,0,9.38-12.591V40h-2.19a13.137,13.137,0,0,0-12.895,10.648" transform="translate(-305.362 -34.526)"/><path class="b" d="M373.981,62.282l8.305-8.3a1.095,1.095,0,1,1,1.548,1.548l-8.305,8.305a1.095,1.095,0,1,1-1.548-1.549Zm0,0" transform="translate(-322.523 -46.313)"/><path class="c" d="M60.667,103.328h-.056a2.9,2.9,0,0,1-2.622-1.76C54.609,94.041,44.022,88,31.75,88a36.736,36.736,0,0,0-9.087,1.14c-.92.235-1.812.511-2.686.811-6.891,2.368-12.246,6.664-14.47,11.616a2.894,2.894,0,0,1-2.618,1.76H2.833A2.833,2.833,0,0,0,0,106.161v.9A2.833,2.833,0,0,0,2.833,109.9h.056a2.9,2.9,0,0,1,2.627,1.76c2.776,6.194,10.444,11.378,19.91,13.02a16.4,16.4,0,0,1,30.837-10.11,16,16,0,0,0,1.725-2.91,2.9,2.9,0,0,1,2.622-1.76h.056a2.833,2.833,0,0,0,2.833-2.833v-.9A2.833,2.833,0,0,0,60.667,103.328Zm0,0" transform="translate(0 -75.957)"/><g transform="translate(12.043 17.517)"><path class="d" d="M89.095,184A1.095,1.095,0,1,1,88,185.095,1.095,1.095,0,0,1,89.095,184Zm0,0" transform="translate(-88 -176.336)"/><path class="d" d="M145.095,128A1.095,1.095,0,1,1,144,129.095,1.095,1.095,0,0,1,145.095,128Zm0,0" transform="translate(-136.336 -128)"/><path class="d" d="M217.095,144A1.095,1.095,0,1,1,216,145.095,1.095,1.095,0,0,1,217.095,144Zm0,0" transform="translate(-198.483 -141.81)"/><path class="d" d="M297.095,152A1.095,1.095,0,1,1,296,153.095,1.095,1.095,0,0,1,297.095,152Zm0,0" transform="translate(-267.534 -148.716)"/></g><path class="e" d="M216.845,232.422A16.422,16.422,0,1,1,200.422,216,16.423,16.423,0,0,1,216.845,232.422Zm0,0" transform="translate(-158.819 -186.44)"/><path class="f" d="M234.276,253.138A13.138,13.138,0,1,1,221.138,240,13.138,13.138,0,0,1,234.276,253.138Zm0,0" transform="translate(-179.534 -207.155)"/><path class="e" d="M238.991,258.948h-8.305l5.872-5.872a1.095,1.095,0,0,0-1.548-1.548l-5.872,5.872v-8.305a1.095,1.095,0,0,0-2.19,0V257.4l-5.872-5.872a1.095,1.095,0,0,0-1.548,1.548l5.872,5.872h-8.305a1.095,1.095,0,0,0,0,2.19H225.4l-5.872,5.872a1.095,1.095,0,1,0,1.548,1.548l5.872-5.872v8.305a1.095,1.095,0,0,0,2.19,0v-8.305l5.872,5.872a1.095,1.095,0,1,0,1.548-1.548l-5.872-5.872h8.305a1.095,1.095,0,1,0,0-2.19Zm0,0" transform="translate(-186.44 -214.06)"/></svg>