<svg xmlns="http://www.w3.org/2000/svg" width="69.099" height="70.268" viewBox="0 0 69.099 70.268"><defs><style>.a{fill:#ff8cc2;}.b{fill:#ffa1cd;}.c{fill:#d9257a;}.d{fill:#941953;}.e{fill:#e67a18;}</style></defs><g transform="translate(-0.426)"><path class="a" d="M22.212,275.414A21.487,21.487,0,0,1,14,278.288l-2.7,2.621A34.584,34.584,0,0,0,1.71,297.93L.426,303.5l5.4-1.246a34.576,34.576,0,0,0,17.236-9.817h.132a4.942,4.942,0,0,0,.218-2.161c-.321-1.549-2.614-2.96-2.614-4.646s2.293-3.1,2.614-4.646c.343-1.66-1.166-3.888-.508-5.313Zm0,0" transform="translate(0 -234.399)"/><path class="a" d="M310.288,275.7c.658,1.429-.852,3.651-.508,5.31.321,1.549,2.614,2.96,2.614,4.646s-2.293,3.1-2.614,4.646a4.959,4.959,0,0,0,.216,2.161h.134s10.655,8.3,17.235,9.817l5.4,1.246-1.284-5.568a34.585,34.585,0,0,0-9.589-17.016l-2.7-2.621a21.5,21.5,0,0,1-8.212-2.873Zm0,0" transform="translate(-263.241 -234.429)"/><path class="a" d="M58.8,14.3h-.119A18.393,18.393,0,0,0,44.53,21.379l-.559.7a49.811,49.811,0,0,0-9-22.08,49.813,49.813,0,0,0-9,22.08l-.558-.7A18.393,18.393,0,0,0,11.267,14.3h-.119A10.722,10.722,0,0,0,.426,25.019c0,5.922,4.8,19.062,10.722,19.062a21.56,21.56,0,0,0,11.064-3.066l12.764-7.657,12.763,7.657A21.561,21.561,0,0,0,58.8,44.08c5.922,0,10.722-13.139,10.722-19.062A10.722,10.722,0,0,0,58.8,14.3Zm0,0"/><g transform="translate(3.651 2.383)"><path class="b" d="M225.617,16a1.191,1.191,0,0,1,1.191,1.191V41.019a1.191,1.191,0,1,1-2.383,0V17.191A1.191,1.191,0,0,1,225.617,16Zm0,0" transform="translate(-194.293 -16)"/><path class="b" d="M22.431,361.429l11.42-11.42a1.191,1.191,0,0,1,1.685,1.685l-11.42,11.42a1.191,1.191,0,0,1-1.685-1.685Zm0,0" transform="translate(-22.082 -299.971)"/><path class="b" d="M350.434,350.005a1.192,1.192,0,0,1,1.685,0l11.42,11.42a1.191,1.191,0,0,1-1.685,1.685l-11.42-11.42A1.193,1.193,0,0,1,350.434,350.005Zm0,0" transform="translate(-301.239 -299.968)"/><path class="b" d="M85.089,149.831a1.176,1.176,0,0,1-.3-.04l-15.35-4.038a15.071,15.071,0,0,1-10.025-8.608,1.2,1.2,0,0,1,.715-1.629,1.176,1.176,0,0,1,1.456.638,12.694,12.694,0,0,0,8.458,7.294l14.746,3.881a1.185,1.185,0,0,0,.6,0l14.743-3.88a12.693,12.693,0,0,0,8.465-7.294,1.176,1.176,0,0,1,1.456-.638,1.2,1.2,0,0,1,.714,1.629,15.067,15.067,0,0,1-10.025,8.608L85.4,149.793A1.183,1.183,0,0,1,85.089,149.831Zm0,0" transform="translate(-53.765 -117.664)"/></g><path class="c" d="M134.477,223.6a5.367,5.367,0,0,0-3.034,2.366,5.24,5.24,0,0,0,.119,3.574,5.171,5.171,0,0,1,.3,2,4.852,4.852,0,0,1-1.008,1.549,4.242,4.242,0,0,0,0,6.684,4.843,4.843,0,0,1,1.008,1.549,5.159,5.159,0,0,1-.3,1.994,5.233,5.233,0,0,0-.119,3.574,5.361,5.361,0,0,0,3.033,2.368,5.116,5.116,0,0,1,1.549.879,5.75,5.75,0,0,1,.786,1.805,3.839,3.839,0,0,0,6.038,2.937,3.566,3.566,0,0,1,3.492-.006,7.884,7.884,0,0,0,2.553.6,3.065,3.065,0,0,0,1.45-.346,4.942,4.942,0,0,0,2.034-3.183,5.766,5.766,0,0,1,.788-1.805,5.092,5.092,0,0,1,1.549-.879,5.371,5.371,0,0,0,3.035-2.366,5.243,5.243,0,0,0-.119-3.574,5.182,5.182,0,0,1-.3-2,4.861,4.861,0,0,1,1.008-1.549,4.243,4.243,0,0,0,0-6.685,4.842,4.842,0,0,1-1.008-1.549,5.148,5.148,0,0,1,.3-1.994,5.237,5.237,0,0,0,.119-3.574,5.364,5.364,0,0,0-3.034-2.368c-.629-.276-10.119-5.995-10.119-5.995S135.105,223.32,134.477,223.6Zm0,0" transform="translate(-109.62 -185.196)"/><path class="d" d="M225.617,320a1.191,1.191,0,0,1,1.191,1.191v8.34a1.191,1.191,0,1,1-2.383,0v-8.34A1.191,1.191,0,0,1,225.617,320Zm0,0" transform="translate(-190.642 -272.345)"/><path class="e" d="M204.339,260.765V256a5.957,5.957,0,1,1-11.914,0v4.765a5.957,5.957,0,1,0,11.914,0Zm0,0" transform="translate(-163.407 -217.876)"/><path class="d" d="M204.339,221.957A5.957,5.957,0,1,1,198.383,216,5.957,5.957,0,0,1,204.339,221.957Zm0,0" transform="translate(-163.407 -183.833)"/></g></svg>