<svg xmlns="http://www.w3.org/2000/svg" width="32" height="62.709" viewBox="0 0 32 62.709"><defs><style>.a{fill:#3d7606;}.b{fill:#d2d76d;}.c{fill:#498c07;}</style></defs><g transform="translate(-0.001)"><g transform="translate(0.001 4.479)"><path class="a" d="M1.734,32A1.735,1.735,0,0,0,.39,34.83L12.127,49.275a1.732,1.732,0,0,0,1.344.642,1.7,1.7,0,0,0,.288-.042,1.724,1.724,0,0,0,1.06-2.788l-2.477-3.049-9.26-11.4A1.732,1.732,0,0,0,1.734,32Zm0,0" transform="translate(-0.001 -32)"/><path class="a" d="M121.409,49.875a1.7,1.7,0,0,0,.288.042h.005a1.73,1.73,0,0,0,1.343-.642L134.784,34.83A1.735,1.735,0,0,0,133.44,32h-.005a1.732,1.732,0,0,0-1.344.642l-9.263,11.4-2.477,3.049a1.725,1.725,0,0,0,1.059,2.788Zm0,0" transform="translate(-103.173 -32)"/><path class="a" d="M66.35,165.386l-4.677-12.515a1.121,1.121,0,1,1,2.043-.923l4.676,12.515a1.121,1.121,0,1,1-2.042.923Zm0,0" transform="translate(-52.955 -134.591)"/><path class="a" d="M118.233,293.946a1.12,1.12,0,0,1-.56-1.483l4.677-12.515a1.121,1.121,0,1,1,2.042.923l-4.676,12.515a1.12,1.12,0,0,1-1.483.56Zm0,0" transform="translate(-101.117 -244.675)"/><path class="a" d="M66.35,293.386l-4.677-12.515a1.121,1.121,0,1,1,2.043-.923l4.676,12.515a1.121,1.121,0,1,1-2.042.923Zm0,0" transform="translate(-52.955 -244.675)"/><path class="a" d="M118.233,165.946a1.12,1.12,0,0,1-.56-1.483l4.677-12.515a1.121,1.121,0,1,1,2.042.923l-4.676,12.515a1.12,1.12,0,0,1-1.483.56Zm0,0" transform="translate(-101.117 -134.591)"/></g><path class="b" d="M102.764,164.545v-43.9a2.24,2.24,0,0,0-4.479,0v43.9Zm0,0" transform="translate(-84.527 -101.837)"/><path class="a" d="M100.525,0a2.24,2.24,0,0,0-2.24,2.24V14.433l2.24,3.981,2.24-3.981V2.24A2.24,2.24,0,0,0,100.525,0Zm0,0" transform="translate(-84.527)"/><path class="c" d="M22.838,167.087,11.1,152.642a1.733,1.733,0,1,0-2.688,2.188L20.15,169.275a1.733,1.733,0,0,0,2.688-2.188Zm0,0" transform="translate(-6.9 -130.724)"/><path class="c" d="M113.721,169.917a1.73,1.73,0,0,0,1.343-.642L126.8,154.83a1.735,1.735,0,0,0-1.344-2.83h-.005a1.732,1.732,0,0,0-1.344.642l-11.737,14.445a1.724,1.724,0,0,0,1.056,2.788,1.7,1.7,0,0,0,.288.042Zm0,0" transform="translate(-96.31 -130.724)"/><path class="c" d="M8.325,274.829l11.737,14.445a1.731,1.731,0,0,0,1.344.642,1.7,1.7,0,0,0,.3-.042,1.724,1.724,0,0,0,1.06-2.788L11.025,272.642a1.738,1.738,0,1,0-2.7,2.188Zm0,0" transform="translate(-6.824 -233.927)"/><path class="c" d="M113.721,289.917a1.73,1.73,0,0,0,1.343-.642L126.8,274.83a1.735,1.735,0,0,0-1.344-2.83h-.005a1.732,1.732,0,0,0-1.344.642l-11.737,14.445a1.79,1.79,0,0,0,1.344,2.83Zm0,0" transform="translate(-96.31 -233.927)"/><path class="c" d="M41.085,36.843,35.317,26.587A1.736,1.736,0,0,1,36.829,24h.5a1.735,1.735,0,0,1,1.512.885l7.341,13.05,7.342-13.05A1.735,1.735,0,0,1,55.032,24h.5a1.736,1.736,0,0,1,1.512,2.587L51.272,36.843a21.2,21.2,0,0,1-3.513,4.626,2.239,2.239,0,0,1-3.16,0A21.183,21.183,0,0,1,41.085,36.843Zm0,0" transform="translate(-30.181 -20.641)"/></g></svg>