<svg xmlns="http://www.w3.org/2000/svg" width="62.028" height="67.297" viewBox="0 0 62.028 67.297"><defs><style>.a{fill:#356605;}.b{fill:#6a9d54;}.c{fill:#368b4c;}.d{fill:#3d7606;}.e{fill:#c70024;}.f{fill:#ff5931;}.g{fill:#900;}</style></defs><g transform="translate(-20.042 -0.001)"><path class="a" d="M255.837,19.222a22.189,22.189,0,0,1-2.465.651,15.168,15.168,0,0,1-.8-3c-.683-4.048-.476-11.288,7.968-15.908q.757-.413,1.6-.8A1.891,1.891,0,0,1,264.771,1.5c.108.515.216,1.106.3,1.755C265.723,8.115,265.214,16.136,255.837,19.222Z" transform="translate(-201.757 0)"/><path class="b" d="M252.577,23.267c-.683-4.048-.476-11.288,7.968-15.908q.03.191.057.391C261.22,12.39,260.783,19.912,252.577,23.267Z" transform="translate(-201.758 -6.391)"/><g transform="translate(20.042 7.735)"><path class="c" d="M147.215,74.544a1.015,1.015,0,0,1-.828-.425L136.6,60.448a1.017,1.017,0,1,1,1.654-1.184l9.784,13.671a1.017,1.017,0,0,1-.826,1.609Z" transform="translate(-121.117 -58.839)"/><path class="a" d="M42.031,179.013c-6.822,11.618-16.935,7.324-21.065,4.864a1.89,1.89,0,0,1-.415-2.914A22.751,22.751,0,0,1,22.627,179c8.342-6.91,16.276-2.279,18.672-.559C41.773,178.787,42.031,179.013,42.031,179.013Z" transform="translate(-20.042 -160.015)"/></g><path class="b" d="M58.38,178.447c-6.528,6.637-14.587,3.132-18.163,1a1.855,1.855,0,0,1-.509-.443C48.05,172.1,55.984,176.726,58.38,178.447Z" transform="translate(-17.081 -152.282)"/><path class="d" d="M84.573,124.646c-11.149,7.565-18.44-.655-21.114-4.651a1.89,1.89,0,0,1,.877-2.81,22.9,22.9,0,0,1,2.453-.81c9.272-2.479,14.453,3,16.6,6.187A14.208,14.208,0,0,1,84.573,124.646Z" transform="translate(-37.433 -100.535)"/><path class="b" d="M107.5,122.563c-8.349,3.176-14.021-2.6-16.6-6.187C100.18,113.9,105.361,119.374,107.5,122.563Z" transform="translate(-61.551 -100.535)"/><path class="d" d="M196.816,34.7c10.728-8.15,5.267-17.683,2.334-21.494a1.89,1.89,0,0,0-2.943-.066,22.912,22.912,0,0,0-1.55,2.066c-5.309,8-1.773,14.654.564,17.7A14.221,14.221,0,0,0,196.816,34.7Z" transform="translate(-149.255 -10.833)"/><path class="b" d="M195.22,51.006c5.675-6.9,2.016-14.116-.564-17.7C189.347,41.3,192.882,47.956,195.22,51.006Z" transform="translate(-149.255 -28.924)"/><path class="e" d="M162.263,156.838a9.49,9.49,0,0,1-9.7,6.2c-14.743-1.2-28.06-10.613-28.06-10.613-10.612-7.043-11.93-22.334-2.507-29.077l.321-.229L129.2,118.2l7.2-5.153c9.423-6.743,23.5-.571,26.714,11.752C166.913,139.338,164.6,150.453,162.263,156.838Z" transform="translate(-83.06 -95.773)"/><path class="f" d="M188.472,156.838a9.452,9.452,0,0,1-.517,1.165,9.494,9.494,0,0,1-5.214,1.07c-14.743-1.2-28.06-10.613-28.06-10.613-8.948-5.939-11.288-17.741-6.152-25.34l6.879-4.925,7.2-5.153c9.423-6.743,23.5-.571,26.714,11.752C193.121,139.338,190.805,150.453,188.472,156.838Z" transform="translate(-109.268 -95.773)"/><ellipse class="g" cx="1.222" cy="2.2" rx="1.222" ry="2.2" transform="translate(43.782 44.978) rotate(144.409)"/><ellipse class="g" cx="1.222" cy="2.2" rx="1.222" ry="2.2" transform="translate(48.254 33.751) rotate(144.409)"/><ellipse class="g" cx="1.222" cy="2.2" rx="1.222" ry="2.2" transform="translate(59.245 40.962) rotate(144.409)"/><ellipse class="g" cx="1.222" cy="2.2" rx="1.222" ry="2.2" transform="translate(74.906 24.285) rotate(144.409)"/><ellipse class="g" cx="1.222" cy="2.2" rx="1.222" ry="2.2" transform="translate(71.592 37.879) rotate(144.409)"/><ellipse class="g" cx="1.222" cy="2.2" rx="1.222" ry="2.2" transform="translate(78.475 49.346) rotate(144.409)"/><ellipse class="g" cx="1.222" cy="2.2" rx="1.222" ry="2.2" transform="translate(63.395 55.463) rotate(144.409)"/><ellipse class="g" cx="1.222" cy="2.2" rx="1.222" ry="2.2" transform="translate(73.987 61.135) rotate(144.409)"/><ellipse class="g" cx="1.222" cy="2.2" rx="1.222" ry="2.2" transform="translate(61.813 26.023) rotate(144.409)"/><ellipse class="g" cx="1.222" cy="2.2" rx="1.222" ry="2.2" transform="translate(49.474 55.582) rotate(144.409)"/></g></svg>