<svg xmlns="http://www.w3.org/2000/svg" width="72.61" height="72.61" viewBox="0 0 72.61 72.61"><defs><style>.a{fill:#0079c1;}</style></defs><g transform="translate(-0.002 0)"><g transform="translate(0.002 0)"><g transform="translate(0)"><path class="a" d="M290.261,202.867a1.212,1.212,0,0,0,1.629.529,103.749,103.749,0,0,1,10.708-4.764,1.211,1.211,0,0,0-.731-2.309,103.788,103.788,0,0,0-11.075,4.917A1.211,1.211,0,0,0,290.261,202.867Z" transform="translate(-248.985 -168.433)"/><path class="a" d="M291.342,101.129a1.208,1.208,0,0,0,.548-.132A103.737,103.737,0,0,1,302.6,96.232a1.211,1.211,0,0,0-.731-2.309,103.793,103.793,0,0,0-11.075,4.917,1.21,1.21,0,0,0,.551,2.288Z" transform="translate(-248.985 -80.555)"/><path class="a" d="M71.4,18.153a1.21,1.21,0,0,0-1.21,1.21v47.2a3.635,3.635,0,0,1-3.63,3.63H37.517V67.405a35.663,35.663,0,0,1,10.891-2.056A62.421,62.421,0,0,1,66.18,67.708a1.21,1.21,0,0,0,1.591-1.149V13.312a1.208,1.208,0,0,0-.948-1.181s-.949-.212-2.57-.51A1.21,1.21,0,0,0,63.815,14c.618.114,1.136.214,1.536.294V64.951a68.344,68.344,0,0,0-16.942-2.022,38.018,38.018,0,0,0-12.054,2.319,28.35,28.35,0,0,0-10.939-2.319A81.55,81.55,0,0,0,7.263,65V14.249A79.656,79.656,0,0,1,25.415,12.1,26.238,26.238,0,0,1,35.1,14.1V61.719a1.21,1.21,0,0,0,1.833,1.037c.12-.071,12.11-7.233,22.752-10.78a1.21,1.21,0,0,0,.828-1.148V1.211A1.212,1.212,0,0,0,58.874.077,128.733,128.733,0,0,0,39.3,9.866a1.21,1.21,0,0,0,1.283,2.052A129.345,129.345,0,0,1,58.09,2.98V49.961a135.619,135.619,0,0,0-20.573,9.656v-46.3a1.211,1.211,0,0,0-.669-1.083A28.022,28.022,0,0,0,25.415,9.682a78.542,78.542,0,0,0-19.7,2.467,1.209,1.209,0,0,0-.877,1.163V66.559a1.21,1.21,0,0,0,1.21,1.21,1.192,1.192,0,0,0,.332-.047,77.738,77.738,0,0,1,19.031-2.373,26.18,26.18,0,0,1,9.681,2V70.19H6.053a3.635,3.635,0,0,1-3.63-3.63v-47.2a1.21,1.21,0,0,0-2.42,0v47.2A6.058,6.058,0,0,0,6.053,72.61H66.561a6.058,6.058,0,0,0,6.051-6.051v-47.2A1.21,1.21,0,0,0,71.4,18.153Z" transform="translate(-0.002 0)"/><path class="a" d="M290.261,151.667a1.212,1.212,0,0,0,1.629.529,103.755,103.755,0,0,1,10.708-4.764,1.211,1.211,0,0,0-.731-2.309,103.783,103.783,0,0,0-11.075,4.917A1.211,1.211,0,0,0,290.261,151.667Z" transform="translate(-248.985 -124.494)"/><path class="a" d="M290.261,254.067a1.212,1.212,0,0,0,1.629.529,103.749,103.749,0,0,1,10.708-4.764,1.211,1.211,0,0,0-.731-2.309,103.791,103.791,0,0,0-11.075,4.917A1.211,1.211,0,0,0,290.261,254.067Z" transform="translate(-248.985 -212.372)"/><path class="a" d="M102.552,154.314c-7.473-1.754-15.964.48-16.321.576a1.21,1.21,0,0,0,.312,2.379,1.229,1.229,0,0,0,.315-.041c.081-.023,8.257-2.173,15.143-.558a1.21,1.21,0,1,0,.552-2.356Z" transform="translate(-73.232 -131.855)"/><path class="a" d="M102.552,205.517c-7.473-1.752-15.964.48-16.321.576a1.21,1.21,0,0,0,.312,2.379,1.232,1.232,0,0,0,.315-.041c.081-.023,8.257-2.173,15.143-.558a1.21,1.21,0,1,0,.552-2.356Z" transform="translate(-73.232 -175.798)"/><path class="a" d="M290.261,305.267a1.212,1.212,0,0,0,1.629.529,103.74,103.74,0,0,1,10.708-4.764,1.211,1.211,0,0,0-.731-2.309,103.8,103.8,0,0,0-11.075,4.917A1.211,1.211,0,0,0,290.261,305.267Z" transform="translate(-248.985 -256.311)"/><path class="a" d="M102.552,256.716c-7.473-1.752-15.964.479-16.321.576a1.211,1.211,0,0,0,.312,2.38,1.227,1.227,0,0,0,.315-.042c.081-.023,8.257-2.173,15.143-.558a1.21,1.21,0,1,0,.552-2.356Z" transform="translate(-73.232 -219.735)"/><path class="a" d="M102.552,359.114c-7.473-1.754-15.964.48-16.321.576a1.211,1.211,0,0,0,.312,2.38,1.228,1.228,0,0,0,.315-.042c.081-.023,8.257-2.174,15.143-.558a1.21,1.21,0,1,0,.552-2.356Z" transform="translate(-73.232 -307.611)"/><path class="a" d="M102.552,307.913c-7.473-1.754-15.964.479-16.321.576a1.211,1.211,0,0,0,.312,2.38,1.226,1.226,0,0,0,.315-.042c.081-.023,8.257-2.173,15.143-.558a1.21,1.21,0,1,0,.552-2.356Z" transform="translate(-73.232 -263.671)"/></g></g></g></svg>