<svg xmlns="http://www.w3.org/2000/svg" width="59.007" height="70.892" viewBox="0 0 59.007 70.892"><defs><style>.a{fill:#0079c1;}</style></defs><g transform="translate(-44.46 0.001)"><g transform="translate(44.46 -0.001)"><path class="a" d="M103.28,17.447a1.393,1.393,0,0,0-.847-.645L91.972,14.019a7.091,7.091,0,0,0,.312-1.259A6.52,6.52,0,0,0,96.012,9.8a6.445,6.445,0,0,0,.657-4.955,6.588,6.588,0,0,0-12.627-.262,7.254,7.254,0,0,0-.784.16,7.206,7.206,0,0,0-5.233,5.571L58.712,5.171a1.4,1.4,0,0,0-1.058.138,1.386,1.386,0,0,0-.65.841l-12.5,46.3a1.376,1.376,0,0,0,.139,1.051,1.393,1.393,0,0,0,.847.645l8.993,2.392v12.97a1.39,1.39,0,0,0,1.395,1.385h45.264a1.39,1.39,0,0,0,1.395-1.385V21.757l.88-3.26a1.376,1.376,0,0,0-.139-1.051ZM89.335,2.9a3.8,3.8,0,0,1,4.64,2.659A3.713,3.713,0,0,1,93.6,8.41,3.777,3.777,0,1,1,89.335,2.9ZM81.281,9.47a4.407,4.407,0,0,1,2.526-2.006,6.494,6.494,0,0,0,3.22,4.721,6.6,6.6,0,0,0,2.345.809,4.453,4.453,0,0,1-8.535-.175A4.358,4.358,0,0,1,81.281,9.47ZM59.337,8.2l18.72,4.98q.038.176.085.351a7.127,7.127,0,0,0,.982,2.145l-1.462,1.451a1.378,1.378,0,0,0,0,1.958,1.4,1.4,0,0,0,1.972,0L81.1,17.636A7.257,7.257,0,0,0,90.5,16.493l9.869,2.625L90.933,54.061l-7.4-1.968a1.4,1.4,0,0,0-1.708.979l-1.982,7.344L47.563,51.829ZM88.306,56.229l-5.255,3.012,1.111-4.115ZM99.751,68.122H57.276V57.279l23.195,6.17a1.4,1.4,0,0,0,1.058-.138l11.087-6.355a1.386,1.386,0,0,0,.65-.841L99.75,32.092v36.03Z" transform="translate(-44.46 0.001)"/><path class="a" d="M161.848,171.7l27.555,7.33a1.409,1.409,0,0,0,.362.048,1.384,1.384,0,0,0,.36-2.722l-27.555-7.33a1.385,1.385,0,1,0-.722,2.675Z" transform="translate(-144.585 -145.578)"/><path class="a" d="M151.448,210.51,179,217.84a1.41,1.41,0,0,0,.362.048,1.384,1.384,0,0,0,.36-2.722l-27.555-7.33a1.385,1.385,0,1,0-.722,2.675Z" transform="translate(-135.636 -179.016)"/><path class="a" d="M149.483,248.7l-7.713-2.052a1.385,1.385,0,1,0-.722,2.675l7.713,2.052a1.408,1.408,0,0,0,.362.048,1.384,1.384,0,0,0,.36-2.722Z" transform="translate(-126.686 -212.453)"/><path class="a" d="M240.191,273.07h0a1.385,1.385,0,1,0,1.4,1.385A1.389,1.389,0,0,0,240.19,273.07Z" transform="translate(-211.691 -235.26)"/></g></g></svg>